<?xml version="1.0" encoding="UTF-8" standalone="no"?>
<!-- Created with Inkscape (http://www.inkscape.org/) -->

<svg
   width="210mm"
   height="297mm"
   viewBox="0 0 210 297"
   version="1.1"
   id="svg5"
   inkscape:version="1.1.2 (0a00cf5339, 2022-02-04)"
   sodipodi:docname="drawing.svg"
   xmlns:inkscape="http://www.inkscape.org/namespaces/inkscape"
   xmlns:sodipodi="http://sodipodi.sourceforge.net/DTD/sodipodi-0.dtd"
   xmlns="http://www.w3.org/2000/svg"
   xmlns:svg="http://www.w3.org/2000/svg">
  <sodipodi:namedview
     id="namedview7"
     pagecolor="#ffffff"
     bordercolor="#666666"
     borderopacity="1.0"
     inkscape:pageshadow="2"
     inkscape:pageopacity="0.0"
     inkscape:pagecheckerboard="0"
     inkscape:document-units="mm"
     showgrid="false"
     showguides="true"
     inkscape:guide-bbox="true"
     inkscape:zoom="0.64052329"
     inkscape:cx="392.64771"
     inkscape:cy="583.89758"
     inkscape:window-width="1916"
     inkscape:window-height="1161"
     inkscape:window-x="0"
     inkscape:window-y="18"
     inkscape:window-maximized="1"
     inkscape:current-layer="layer1">
    <sodipodi:guide
       position="-40.894297,237.10432"
       orientation="0,-1"
       id="guide1566" />
  </sodipodi:namedview>
  <defs
     id="defs2" />
  <g
     inkscape:label="Layer 1"
     inkscape:groupmode="layer"
     id="layer1">
    <path
       d="m 5.6983096,104.82289 c 1.5570136,0.52026 3.724761,0.84071 6.1319094,0.84071 2.40715,0 4.580561,-0.31103 6.137575,-0.84071 1.366628,-0.45617 2.211107,-1.00848 2.211107,-1.54948 0,-0.54099 -0.844479,-1.09141 -2.211107,-1.54758 -1.557014,-0.52027 -3.724768,-0.84261 -6.131918,-0.84261 -2.4071484,0 -4.5749031,0.32234 -6.1375664,0.84261 -2.8934838,0.967 -2.9745383,2.10177 0,3.09706 z m 11.6870134,13.28927 a 0.94250152,0.94250152 0 1 1 -0.931191,0.9425 0.9311915,0.9311915 0 0 1 0.931191,-0.9425 z m 0,-5.27801 a 0.93307648,0.93307648 0 1 1 -0.931191,0.9425 0.9311915,0.9311915 0 0 1 0.931191,-0.9425 z m 0,-5.49101 a 0.93307648,0.93307648 0 1 1 -0.931191,0.93307 0.9311915,0.9311915 0 0 1 0.931191,-0.92742 z m 2.789809,8.48251 a 7.4363365,7.4363365 0 0 1 -1.839768,0.87087 c -1.670107,0.5655 -3.966044,0.90857 -6.499488,0.90857 -2.5334434,0 -4.8293732,-0.34307 -6.5145694,-0.90292 A 7.5155066,7.5155066 0 0 1 3.4966213,115.8445 v 3.55135 c 0.1074505,0.50517 0.9274215,1.01224 2.1998003,1.43636 1.5570136,0.52027 3.724768,0.8426 6.1319174,0.8426 2.407149,0 4.574896,-0.32233 6.13191,-0.8426 0.942504,-0.31479 1.638068,-0.67482 1.977369,-1.04617 0.280866,-0.30725 0.237514,-0.50895 0.237514,-0.87464 v -3.08009 z M 2.3053042,103.27907 c 0,-1.11215 1.1555027,-2.05089 3.0160024,-2.67483 1.6851962,-0.55985 3.986783,-0.906697 6.5145694,-0.906697 2.527787,0 4.829381,0.346847 6.507033,0.906697 1.677651,0.55985 2.812422,1.3968 3.00092,2.37511 a 0.58623593,0.58623593 0 0 1 0.03391,0.19981 v 16.35052 c 0,1.131 -2.165867,2.13571 -3.029197,2.42411 -1.677658,0.5655 -3.979245,0.90669 -6.507032,0.90669 -2.5277874,0 -4.8350305,-0.35438 -6.5202268,-0.90669 -0.8840622,-0.29406 -3.0160024,-1.26483 -3.0160024,-2.42411 v -0.377 q 0.01318,-7.93963 0,-15.87361 z m 1.1988619,10.86516 c 0.1074434,0.50518 0.9274214,1.01036 2.1941435,1.43637 1.5570136,0.52026 3.724761,0.8426 6.1319094,0.8426 2.40715,0 4.580561,-0.32611 6.137575,-0.8426 1.366628,-0.45617 2.211107,-1.00848 2.211107,-1.54759 v 0 -3.45332 a 7.500427,7.500427 0 0 1 -1.843537,0.87087 c -1.677651,0.5655 -3.979238,0.90669 -6.507025,0.90669 -2.5277874,0 -4.8218362,-0.34685 -6.5070324,-0.90669 a 7.5155066,7.5155066 0 0 1 -1.8171405,-0.85768 z m 0,-5.25162 c 0.1074434,0.50518 0.9274214,1.01225 2.1998003,1.43637 1.5570065,0.52026 3.7247612,0.8426 6.1319096,0.8426 2.40715,0 4.574904,-0.32234 6.131918,-0.8426 1.366628,-0.45617 2.211107,-1.00848 2.211107,-1.54759 v 0 -3.7078 a 7.5682871,7.5682871 0 0 1 -1.843537,0.87087 c -1.670107,0.55985 -3.966044,0.91612 -6.499488,0.91612 -2.5334434,0 -4.8293732,-0.35627 -6.5145694,-0.91612 A 7.5155066,7.5155066 0 0 1 3.4966213,105.0849 v 3.80771 z"
       id="path11"
       style="stroke-width:0.1885" />
    <path
       class="st0"
       d="m -35.047662,96.283234 h 26.9187076 c 0.762,0 1.383771,0.624416 1.383771,1.38377 v 7.516836 c 0,0.762 -0.624417,1.38377 -1.383771,1.38377 h -4.0401866 v 1.41552 h 4.0401866 c 0.762,0 1.383771,0.62442 1.383771,1.38377 v 7.51682 c 0,0.762 -0.624417,1.38377 -1.383771,1.38377 h -4.0401866 v 4.01637 h 2.076979 v 2.07169 h 4.1036866 v 2.38125 h -4.1036866 v 2.05317 h -6.532563 v -2.05317 h -9.498541 v 2.05317 h -6.532563 v -2.05317 h -4.534958 v -2.38125 h 4.534958 v -2.07169 h 2.074334 v -4.01108 h -4.466167 c -0.762,0 -1.383771,-0.62442 -1.383771,-1.38377 v -7.51946 c 0,-0.762 0.621771,-1.38377 1.383771,-1.38377 h 4.466167 v -1.41553 h -4.466167 c -0.762,0 -1.383771,-0.62441 -1.383771,-1.38377 v -7.51683 c -0.0026,-0.764646 0.621771,-1.386416 1.383771,-1.386416 z m 2.050521,14.798166 h 1.582208 v 4.0931 h -1.582208 z m 21.732875,-10.90879 c 0.693208,0 1.254125,0.56092 1.254125,1.25413 0,0.69321 -0.560917,1.25413 -1.254125,1.25413 -0.693209,0 -1.254125,-0.56092 -1.254125,-1.25413 0,-0.69321 0.560916,-1.25413 1.254125,-1.25413 z m -4.775729,0 c 0.693208,0 1.254125,0.56092 1.254125,1.25413 0,0.69321 -0.560917,1.25413 -1.254125,1.25413 -0.693209,0 -1.254125,-0.56092 -1.254125,-1.25413 0,-0.69321 0.563562,-1.25413 1.254125,-1.25413 z m -8.215313,-0.793751 h 1.582208 v 4.093121 h -1.582208 z m -4.370917,0 h 1.582209 v 4.093121 h -1.582209 z m -4.370916,0 h 1.582208 v 4.093121 h -1.582208 z m 21.732875,12.496291 c 0.693208,0 1.254125,0.56092 1.254125,1.25413 0,0.6932 -0.560917,1.25412 -1.254125,1.25412 -0.693209,0 -1.254125,-0.56092 -1.254125,-1.25412 0,-0.69321 0.560916,-1.25413 1.254125,-1.25413 z m -4.775729,0 c 0.693208,0 1.254125,0.56092 1.254125,1.25413 0,0.6932 -0.560917,1.25412 -1.254125,1.25412 -0.693209,0 -1.254125,-0.56092 -1.254125,-1.25412 0,-0.69321 0.563562,-1.25413 1.254125,-1.25413 z m -8.215313,-0.79375 h 1.582209 v 4.0931 h -1.582209 z m -4.370917,0 h 1.582209 v 4.0931 h -1.582209 z m 15.266459,12.97782 c 0.820208,0 1.484312,0.6641 1.484312,1.48431 0,0.82021 -0.664104,1.48431 -1.484312,1.48431 -0.820208,0 -1.484313,-0.6641 -1.484313,-1.48431 0,-0.82021 0.66675,-1.48431 1.484313,-1.48431 z m -16.031104,0 c 0.820208,0 1.484312,0.6641 1.484312,1.48431 0,0.82021 -0.664104,1.48431 -1.484312,1.48431 -0.820209,0 -1.484313,-0.6641 -1.484313,-1.48431 0,-0.82021 0.66675,-1.48431 1.484313,-1.48431 z m 3.267604,0.30162 h 9.498541 v -2.07169 h 2.074334 v -4.01637 h -13.649854 v 4.01637 h 2.076979 z m -2.076979,-16.37506 h 13.649854 v -1.41553 h -13.649854 z"
       id="path21"
       style="stroke-width:0.264583" />
    <rect
       style="fill:#000000;fill-rule:evenodd;stroke-width:1.365;fill-opacity:0;stroke:#000000;stroke-opacity:1;stroke-miterlimit:4;stroke-dasharray:none"
       id="rect55"
       width="71.035393"
       height="49.484158"
       x="-43.691952"
       y="86.746559" />
    <path
       d="m 111.96319,71.795446 c 1.02499,0.342491 2.45204,0.553446 4.03668,0.553446 1.58465,0 3.01543,-0.204754 4.04042,-0.553446 0.89967,-0.300299 1.45559,-0.663889 1.45559,-1.020033 0,-0.356138 -0.55592,-0.718484 -1.45559,-1.018785 -1.02499,-0.342497 -2.45204,-0.554696 -4.03669,-0.554696 -1.58465,0 -3.0117,0.212199 -4.04041,0.554696 -1.90481,0.636584 -1.95816,1.383612 0,2.038818 z m 7.69366,8.748428 a 0.62045625,0.62045625 0 1 1 -0.61301,0.620455 0.61301078,0.61301078 0 0 1 0.61301,-0.620455 z m 0,-3.474554 a 0.61425168,0.61425168 0 1 1 -0.61301,0.620455 0.61301078,0.61301078 0 0 1 0.61301,-0.620455 z m 0,-3.614774 a 0.61425168,0.61425168 0 1 1 -0.61301,0.614248 0.61301078,0.61301078 0 0 1 0.61301,-0.610528 z m 1.83655,5.5841 a 4.8953995,4.8953995 0 0 1 -1.21113,0.573301 c -1.09945,0.372273 -2.61088,0.598119 -4.27867,0.598119 -1.66778,0 -3.17922,-0.225846 -4.28859,-0.5944 a 4.9475178,4.9475178 0 0 1 -1.20121,-0.564611 v 2.337882 c 0.0707,0.332558 0.61053,0.666364 1.44815,0.945566 1.02499,0.342498 2.45204,0.55469 4.03669,0.55469 1.58464,0 3.01169,-0.212192 4.03668,-0.55469 0.62046,-0.207229 1.07836,-0.444238 1.30173,-0.6887 0.18489,-0.202266 0.15635,-0.335046 0.15635,-0.575783 v -2.027648 z m -11.76386,-8.259507 c 0,-0.732137 0.76069,-1.350117 1.98547,-1.760862 1.10937,-0.368554 2.62453,-0.596881 4.28859,-0.596881 1.66406,0 3.17922,0.228327 4.28363,0.596881 1.10442,0.368554 1.85145,0.919524 1.97554,1.563554 a 0.38592378,0.38592378 0 0 1 0.0223,0.131536 v 10.763672 c 0,0.744544 -1.42581,1.405953 -1.99414,1.595809 -1.10442,0.372273 -2.61958,0.596881 -4.28364,0.596881 -1.66406,0 -3.18294,-0.233291 -4.29232,-0.596881 -0.58198,-0.193582 -1.98546,-0.832648 -1.98546,-1.595809 v -0.248182 q 0.009,-5.22672 0,-10.449718 z m 0.78923,7.152617 c 0.0707,0.332564 0.61053,0.665126 1.44442,0.945572 1.02499,0.342491 2.45204,0.55469 4.03668,0.55469 1.58465,0 3.01543,-0.214681 4.04042,-0.55469 0.89967,-0.3003 1.45559,-0.663889 1.45559,-1.018789 v 0 -2.273348 a 4.9375908,4.9375908 0 0 1 -1.21361,0.573301 c -1.10441,0.372273 -2.61957,0.596881 -4.28363,0.596881 -1.66407,0 -3.17426,-0.228334 -4.28363,-0.596881 a 4.9475178,4.9475178 0 0 1 -1.19624,-0.564618 z m 0,-3.457181 c 0.0707,0.332564 0.61053,0.66637 1.44815,0.945572 1.02498,0.342491 2.45203,0.55469 4.03668,0.55469 1.58465,0 3.0117,-0.212199 4.03669,-0.55469 0.89967,-0.300301 1.45559,-0.663889 1.45559,-1.018789 v 0 -2.440874 a 4.9822637,4.9822637 0 0 1 -1.21361,0.5733 c -1.09945,0.368554 -2.61088,0.603089 -4.27867,0.603089 -1.66778,0 -3.17922,-0.234535 -4.28859,-0.603089 a 4.9475178,4.9475178 0 0 1 -1.20121,-0.565855 v 2.506646 z"
       id="path11-3"
       style="stroke-width:0.124091" />
    <path
       class="st0"
       d="m 85.139781,66.17373 h 17.720809 c 0.50163,0 0.91094,0.411054 0.91094,0.910947 v 4.948385 c 0,0.501631 -0.41106,0.910947 -0.91094,0.910947 h -2.65969 v 0.931848 h 2.65969 c 0.50163,0 0.91094,0.411061 0.91094,0.910947 v 4.948378 c 0,0.501631 -0.41106,0.910947 -0.91094,0.910947 h -2.65969 v 2.644006 h 1.36729 v 1.36381 h 2.70149 v 1.567594 h -2.70149 v 1.351618 h -4.300443 v -1.351618 h -6.252965 v 1.351618 h -4.300438 v -1.351618 h -2.985399 v -1.567594 h 2.985399 v -1.36381 h 1.36555 v -2.640524 h -2.940113 c -0.501631,0 -0.910948,-0.41106 -0.910948,-0.910946 v -4.950117 c 0,-0.50163 0.409317,-0.910947 0.910948,-0.910947 h 2.940113 v -0.931854 h -2.940113 c -0.501631,0 -0.910948,-0.411054 -0.910948,-0.910947 v -4.948385 c -0.0017,-0.503369 0.409317,-0.912685 0.910948,-0.912685 z m 1.349874,9.741741 h 1.04158 v 2.694518 h -1.04158 z m 14.306925,-7.18134 c 0.45635,0 0.82561,0.369258 0.82561,0.825604 0,0.456346 -0.36926,0.825604 -0.82561,0.825604 -0.45634,0 -0.825597,-0.369258 -0.825597,-0.825604 0,-0.456346 0.369257,-0.825604 0.825597,-0.825604 z m -3.143901,0 c 0.456346,0 0.825604,0.369258 0.825604,0.825604 0,0.456346 -0.369258,0.825604 -0.825604,0.825604 -0.456345,0 -0.825597,-0.369258 -0.825597,-0.825604 0,-0.456346 0.370996,-0.825604 0.825597,-0.825604 z m -5.408206,-0.522532 h 1.041577 v 2.694534 h -1.041577 z m -2.877409,0 h 1.041581 v 2.694534 h -1.041581 z m -2.877409,0 h 1.04158 v 2.694534 h -1.04158 z m 14.306925,8.226404 c 0.45635,0 0.82561,0.369258 0.82561,0.825603 0,0.45634 -0.36926,0.825598 -0.82561,0.825598 -0.45634,0 -0.825597,-0.369258 -0.825597,-0.825598 0,-0.456345 0.369257,-0.825603 0.825597,-0.825603 z m -3.143901,0 c 0.456346,0 0.825604,0.369258 0.825604,0.825603 0,0.45634 -0.369258,0.825598 -0.825604,0.825598 -0.456345,0 -0.825597,-0.369258 -0.825597,-0.825598 0,-0.456345 0.370996,-0.825603 0.825597,-0.825603 z m -5.408206,-0.522532 h 1.041584 v 2.694518 h -1.041584 z m -2.877409,0 h 1.041581 v 2.694518 h -1.041581 z m 10.050032,8.543398 c 0.539951,0 0.977144,0.437182 0.977144,0.977133 0,0.539949 -0.437193,0.977131 -0.977144,0.977131 -0.539951,0 -0.977133,-0.437182 -0.977133,-0.977131 0,-0.539951 0.438927,-0.977133 0.977133,-0.977133 z m -10.553404,0 c 0.539949,0 0.977134,0.437182 0.977134,0.977133 0,0.539949 -0.437185,0.977131 -0.977134,0.977131 -0.53995,0 -0.977135,-0.437182 -0.977135,-0.977131 0,-0.539951 0.438927,-0.977133 0.977135,-0.977133 z m 2.15109,0.198559 h 6.252965 v -1.36381 h 1.365554 V 80.649611 H 89.64749 v 2.644007 h 1.367292 z M 89.64749,73.877601 h 8.985811 V 72.945747 H 89.64749 Z"
       id="path21-6"
       style="clip-rule:evenodd;fill-rule:evenodd;stroke-width:0.174177" />
    <rect
       style="fill:#000000;fill-opacity:0;fill-rule:evenodd;stroke:#000000;stroke-width:0.89859;stroke-miterlimit:4;stroke-dasharray:none;stroke-opacity:1"
       id="rect55-7"
       width="46.763165"
       height="32.575813"
       x="79.449173"
       y="59.895679" />
    <path
       d="m 167.30823,71.795417 c 1.02499,0.34249 2.45204,0.55345 4.03668,0.55345 1.58465,0 3.01543,-0.20476 4.04042,-0.55345 0.89967,-0.3003 1.45559,-0.66389 1.45559,-1.02003 0,-0.35614 -0.55592,-0.71849 -1.45559,-1.01879 -1.02499,-0.34249 -2.45204,-0.554687 -4.03669,-0.554687 -1.58465,0 -3.0117,0.212197 -4.04041,0.554687 -1.90481,0.63659 -1.95816,1.38361 0,2.03882 z m 7.69366,8.748424 a 0.62045625,0.62045625 0 1 1 -0.61301,0.62045 0.61301078,0.61301078 0 0 1 0.61301,-0.62045 z m 0,-3.474557 a 0.61425168,0.61425168 0 1 1 -0.61301,0.62046 0.61301078,0.61301078 0 0 1 0.61301,-0.62046 z m 0,-3.614767 a 0.61425168,0.61425168 0 1 1 -0.61301,0.61425 0.61301078,0.61301078 0 0 1 0.61301,-0.61053 z m 1.83655,5.584097 a 4.8953995,4.8953995 0 0 1 -1.21113,0.5733 c -1.09945,0.372277 -2.61088,0.598117 -4.27867,0.598117 -1.66778,0 -3.17922,-0.22584 -4.28859,-0.594397 a 4.9475178,4.9475178 0 0 1 -1.20121,-0.56461 v 2.337877 c 0.0707,0.33256 0.61053,0.66637 1.44815,0.94557 1.02499,0.3425 2.45204,0.55469 4.03669,0.55469 1.58464,0 3.01169,-0.21219 4.03668,-0.55469 0.62046,-0.20723 1.07836,-0.44424 1.30173,-0.6887 0.18489,-0.20227 0.15635,-0.33505 0.15635,-0.57578 v -2.027647 z m -11.76386,-8.259507 c 0,-0.73213 0.76069,-1.35011 1.98547,-1.760857 1.10937,-0.36855 2.62453,-0.59688 4.28859,-0.59688 1.66406,0 3.17922,0.22833 4.28363,0.59688 1.10442,0.368557 1.85145,0.919527 1.97554,1.563557 a 0.38592378,0.38592378 0 0 1 0.0223,0.13153 v 10.763664 c 0,0.74455 -1.42581,1.40596 -1.99414,1.59581 -1.10442,0.37228 -2.61958,0.59688 -4.28364,0.59688 -1.66406,0 -3.18294,-0.23329 -4.29232,-0.59688 -0.58198,-0.19358 -1.98546,-0.83265 -1.98546,-1.59581 v -0.24818 q 0.009,-5.226717 0,-10.449714 z m 0.78923,7.152617 c 0.0707,0.33257 0.61053,0.66513 1.44442,0.94557 1.02499,0.34249 2.45204,0.55469 4.03668,0.55469 1.58465,0 3.01543,-0.21468 4.04042,-0.55469 0.89967,-0.3003 1.45559,-0.66389 1.45559,-1.01879 v 0 -2.27334 a 4.9375908,4.9375908 0 0 1 -1.21361,0.5733 c -1.10441,0.37227 -2.61957,0.59688 -4.28363,0.59688 -1.66407,0 -3.17426,-0.22834 -4.28363,-0.59688 a 4.9475178,4.9475178 0 0 1 -1.19624,-0.56462 z m 0,-3.457177 c 0.0707,0.332557 0.61053,0.666367 1.44815,0.945567 1.02498,0.34249 2.45203,0.55469 4.03668,0.55469 1.58465,0 3.0117,-0.2122 4.03669,-0.55469 0.89967,-0.3003 1.45559,-0.66389 1.45559,-1.018787 v 0 -2.44087 a 4.9822637,4.9822637 0 0 1 -1.21361,0.5733 c -1.09945,0.36855 -2.61088,0.60309 -4.27867,0.60309 -1.66778,0 -3.17922,-0.23454 -4.28859,-0.60309 a 4.9475178,4.9475178 0 0 1 -1.20121,-0.56586 v 2.50665 z"
       id="path11-3-5"
       style="stroke-width:0.124091" />
    <path
       class="st0"
       d="m 140.48482,66.17371 h 17.72081 c 0.50163,0 0.91094,0.41105 0.91094,0.91094 v 4.948387 c 0,0.50163 -0.41106,0.91094 -0.91094,0.91094 h -2.65969 v 0.93185 h 2.65969 c 0.50163,0 0.91094,0.41106 0.91094,0.910947 v 4.94838 c 0,0.501627 -0.41106,0.910937 -0.91094,0.910937 h -2.65969 v 2.64401 h 1.36729 v 1.36381 h 2.70149 v 1.567587 h -2.70149 v 1.35162 h -4.30045 v -1.35162 h -6.25296 v 1.35162 h -4.30044 v -1.35162 h -2.9854 v -1.567587 h 2.9854 v -1.36381 h 1.36555 v -2.64052 h -2.94011 c -0.50163,0 -0.91095,-0.41106 -0.91095,-0.910947 v -4.95012 c 0,-0.501627 0.40932,-0.910937 0.91095,-0.910937 h 2.94011 v -0.93186 h -2.94011 c -0.50163,0 -0.91095,-0.41105 -0.91095,-0.91095 V 67.08639 c -0.002,-0.50337 0.40932,-0.91268 0.91095,-0.91268 z m 1.34987,9.741734 h 1.04158 v 2.69451 h -1.04158 z m 14.30693,-7.181334 c 0.45635,0 0.82561,0.36925 0.82561,0.825597 0,0.45635 -0.36926,0.8256 -0.82561,0.8256 -0.45634,0 -0.8256,-0.36925 -0.8256,-0.8256 0,-0.456347 0.36926,-0.825597 0.8256,-0.825597 z m -3.1439,0 c 0.45634,0 0.8256,0.36925 0.8256,0.825597 0,0.45635 -0.36926,0.8256 -0.8256,0.8256 -0.45635,0 -0.8256,-0.36925 -0.8256,-0.8256 0,-0.456347 0.371,-0.825597 0.8256,-0.825597 z m -5.40821,-0.52254 h 1.04158 v 2.694537 h -1.04158 z m -2.87741,0 h 1.04158 v 2.694537 h -1.04158 z m -2.87741,0 h 1.04158 v 2.694537 h -1.04158 z m 14.30693,8.226404 c 0.45635,0 0.82561,0.36926 0.82561,0.8256 0,0.45634 -0.36926,0.8256 -0.82561,0.8256 -0.45634,0 -0.8256,-0.36926 -0.8256,-0.8256 0,-0.45634 0.36926,-0.8256 0.8256,-0.8256 z m -3.1439,0 c 0.45634,0 0.8256,0.36926 0.8256,0.8256 0,0.45634 -0.36926,0.8256 -0.8256,0.8256 -0.45635,0 -0.8256,-0.36926 -0.8256,-0.8256 0,-0.45634 0.371,-0.8256 0.8256,-0.8256 z m -5.40821,-0.52253 h 1.04158 v 2.69451 h -1.04158 z m -2.87741,0 h 1.04158 v 2.69451 h -1.04158 z m 10.05003,8.543387 c 0.53995,0 0.97715,0.43719 0.97715,0.977137 0,0.53995 -0.4372,0.97713 -0.97715,0.97713 -0.53995,0 -0.97713,-0.43718 -0.97713,-0.97713 0,-0.539947 0.43893,-0.977137 0.97713,-0.977137 z m -10.5534,0 c 0.53995,0 0.97713,0.43719 0.97713,0.977137 0,0.53995 -0.43718,0.97713 -0.97713,0.97713 -0.53995,0 -0.97714,-0.43718 -0.97714,-0.97713 0,-0.539947 0.43893,-0.977137 0.97714,-0.977137 z m 2.15109,0.19856 h 6.25296 v -1.36381 h 1.36556 v -2.644 h -8.98581 v 2.644 h 1.36729 z m -1.36729,-10.779814 h 8.98581 v -0.93186 h -8.98581 z"
       id="path21-6-3"
       style="clip-rule:evenodd;fill-rule:evenodd;stroke-width:0.174177" />
    <rect
       style="fill:#000000;fill-opacity:0;fill-rule:evenodd;stroke:#000000;stroke-width:0.89859;stroke-miterlimit:4;stroke-dasharray:none;stroke-opacity:1"
       id="rect55-7-5"
       width="46.763165"
       height="32.575813"
       x="134.79422"
       y="59.895679" />
    <path
       d="m 222.65327,71.795383 c 1.02499,0.34249 2.45204,0.55345 4.03668,0.55345 1.58465,0 3.01543,-0.20476 4.04042,-0.55345 0.89967,-0.3003 1.45559,-0.66389 1.45559,-1.02003 0,-0.35614 -0.55592,-0.71849 -1.45559,-1.01879 -1.02499,-0.34249 -2.45204,-0.554687 -4.03669,-0.554687 -1.58465,0 -3.0117,0.212197 -4.04041,0.554687 -1.90481,0.63659 -1.95816,1.38361 0,2.03882 z m 7.69366,8.748424 a 0.62045625,0.62045625 0 1 1 -0.61301,0.62045 0.61301078,0.61301078 0 0 1 0.61301,-0.62045 z m 0,-3.474557 a 0.61425168,0.61425168 0 1 1 -0.61301,0.62046 0.61301078,0.61301078 0 0 1 0.61301,-0.62046 z m 0,-3.614767 a 0.61425168,0.61425168 0 1 1 -0.61301,0.61425 0.61301078,0.61301078 0 0 1 0.61301,-0.61053 z m 1.83655,5.584097 a 4.8953995,4.8953995 0 0 1 -1.21113,0.5733 c -1.09945,0.372277 -2.61088,0.598117 -4.27867,0.598117 -1.66778,0 -3.17922,-0.22584 -4.28859,-0.594397 a 4.9475178,4.9475178 0 0 1 -1.20121,-0.56461 v 2.337877 c 0.0707,0.33256 0.61053,0.66637 1.44815,0.94557 1.02499,0.3425 2.45204,0.55469 4.03669,0.55469 1.58464,0 3.01169,-0.21219 4.03668,-0.55469 0.62046,-0.20723 1.07836,-0.44424 1.30173,-0.6887 0.18489,-0.20227 0.15635,-0.33505 0.15635,-0.57578 V 79.04231 Z m -11.76386,-8.259507 c 0,-0.73213 0.76069,-1.35011 1.98547,-1.760857 1.10937,-0.36855 2.62453,-0.59688 4.28859,-0.59688 1.66406,0 3.17922,0.22833 4.28363,0.59688 1.10442,0.368557 1.85145,0.919527 1.97554,1.563557 a 0.38592378,0.38592378 0 0 1 0.0223,0.13153 v 10.763664 c 0,0.74455 -1.42581,1.40596 -1.99414,1.59581 -1.10442,0.37228 -2.61958,0.59688 -4.28364,0.59688 -1.66406,0 -3.18294,-0.23329 -4.29232,-0.59688 -0.58198,-0.19358 -1.98546,-0.83265 -1.98546,-1.59581 v -0.24818 q 0.009,-5.226717 0,-10.449714 z m 0.78923,7.152617 c 0.0707,0.33257 0.61053,0.66513 1.44442,0.94557 1.02499,0.34249 2.45204,0.55469 4.03668,0.55469 1.58465,0 3.01543,-0.21468 4.04042,-0.55469 0.89967,-0.3003 1.45559,-0.66389 1.45559,-1.01879 v 0 -2.27334 a 4.9375908,4.9375908 0 0 1 -1.21361,0.5733 c -1.10441,0.37227 -2.61957,0.59688 -4.28363,0.59688 -1.66407,0 -3.17426,-0.22834 -4.28363,-0.59688 a 4.9475178,4.9475178 0 0 1 -1.19624,-0.56462 z m 0,-3.457177 c 0.0707,0.332557 0.61053,0.666367 1.44815,0.945567 1.02498,0.34249 2.45203,0.55469 4.03668,0.55469 1.58465,0 3.0117,-0.2122 4.03669,-0.55469 0.89967,-0.3003 1.45559,-0.66389 1.45559,-1.018787 v 0 -2.44087 a 4.9822637,4.9822637 0 0 1 -1.21361,0.5733 c -1.09945,0.36855 -2.61088,0.60309 -4.27867,0.60309 -1.66778,0 -3.17922,-0.23454 -4.28859,-0.60309 a 4.9475178,4.9475178 0 0 1 -1.20121,-0.56586 v 2.50665 z"
       id="path11-3-5-1"
       style="stroke-width:0.124091" />
    <path
       class="st0"
       d="m 195.82986,66.173676 h 17.72081 c 0.50163,0 0.91094,0.41105 0.91094,0.91094 v 4.948387 c 0,0.50163 -0.41106,0.91094 -0.91094,0.91094 h -2.65969 v 0.93185 h 2.65969 c 0.50163,0 0.91094,0.41106 0.91094,0.910947 v 4.94838 c 0,0.501627 -0.41106,0.910937 -0.91094,0.910937 h -2.65969 v 2.64401 h 1.36729 v 1.36381 h 2.70149 v 1.567587 h -2.70149 v 1.35162 h -4.30045 v -1.35162 h -6.25296 v 1.35162 h -4.30044 v -1.35162 h -2.9854 v -1.567587 h 2.9854 v -1.36381 h 1.36555 v -2.64052 h -2.94011 c -0.50163,0 -0.91095,-0.41106 -0.91095,-0.910947 v -4.95012 c 0,-0.501627 0.40932,-0.910937 0.91095,-0.910937 h 2.94011 v -0.93186 h -2.94011 c -0.50163,0 -0.91095,-0.41105 -0.91095,-0.91095 v -4.948377 c -0.002,-0.50337 0.40932,-0.91268 0.91095,-0.91268 z m 1.34987,9.741734 h 1.04158 v 2.69451 h -1.04158 z m 14.30693,-7.181334 c 0.45635,0 0.82561,0.36925 0.82561,0.825597 0,0.45635 -0.36926,0.8256 -0.82561,0.8256 -0.45634,0 -0.8256,-0.36925 -0.8256,-0.8256 0,-0.456347 0.36926,-0.825597 0.8256,-0.825597 z m -3.1439,0 c 0.45634,0 0.8256,0.36925 0.8256,0.825597 0,0.45635 -0.36926,0.8256 -0.8256,0.8256 -0.45635,0 -0.8256,-0.36925 -0.8256,-0.8256 0,-0.456347 0.371,-0.825597 0.8256,-0.825597 z m -5.40821,-0.52254 h 1.04158 v 2.694537 h -1.04158 z m -2.87741,0 h 1.04158 v 2.694537 h -1.04158 z m -2.87741,0 h 1.04158 v 2.694537 h -1.04158 z m 14.30693,8.226404 c 0.45635,0 0.82561,0.36926 0.82561,0.8256 0,0.45634 -0.36926,0.8256 -0.82561,0.8256 -0.45634,0 -0.8256,-0.36926 -0.8256,-0.8256 0,-0.45634 0.36926,-0.8256 0.8256,-0.8256 z m -3.1439,0 c 0.45634,0 0.8256,0.36926 0.8256,0.8256 0,0.45634 -0.36926,0.8256 -0.8256,0.8256 -0.45635,0 -0.8256,-0.36926 -0.8256,-0.8256 0,-0.45634 0.371,-0.8256 0.8256,-0.8256 z m -5.40821,-0.52253 h 1.04158 v 2.69451 h -1.04158 z m -2.87741,0 h 1.04158 v 2.69451 h -1.04158 z m 10.05003,8.543387 c 0.53995,0 0.97715,0.43719 0.97715,0.977137 0,0.53995 -0.4372,0.97713 -0.97715,0.97713 -0.53995,0 -0.97713,-0.43718 -0.97713,-0.97713 0,-0.539947 0.43893,-0.977137 0.97713,-0.977137 z m -10.5534,0 c 0.53995,0 0.97713,0.43719 0.97713,0.977137 0,0.53995 -0.43718,0.97713 -0.97713,0.97713 -0.53995,0 -0.97714,-0.43718 -0.97714,-0.97713 0,-0.539947 0.43893,-0.977137 0.97714,-0.977137 z m 2.15109,0.19856 h 6.25296 v -1.36381 h 1.36556 v -2.644 h -8.98581 v 2.644 h 1.36729 z m -1.36729,-10.779814 h 8.98581 v -0.93186 h -8.98581 z"
       id="path21-6-3-2"
       style="clip-rule:evenodd;fill-rule:evenodd;stroke-width:0.174177" />
    <rect
       style="fill:#000000;fill-opacity:0;fill-rule:evenodd;stroke:#000000;stroke-width:0.89859;stroke-miterlimit:4;stroke-dasharray:none;stroke-opacity:1"
       id="rect55-7-5-7"
       width="46.763165"
       height="32.575813"
       x="190.13927"
       y="59.895645" />
    <path
       d="m 111.96319,114.12879 c 1.02499,0.34249 2.45204,0.55344 4.03668,0.55344 1.58465,0 3.01543,-0.20475 4.04042,-0.55344 0.89967,-0.3003 1.45559,-0.66389 1.45559,-1.02004 0,-0.35613 -0.55592,-0.71848 -1.45559,-1.01878 -1.02499,-0.3425 -2.45204,-0.5547 -4.03669,-0.5547 -1.58465,0 -3.0117,0.2122 -4.04041,0.5547 -1.90481,0.63658 -1.95816,1.38361 0,2.03882 z m 7.69366,8.74843 a 0.62045625,0.62045625 0 1 1 -0.61301,0.62046 0.61301078,0.61301078 0 0 1 0.61301,-0.62046 z m 0,-3.47456 a 0.61425168,0.61425168 0 1 1 -0.61301,0.62046 0.61301078,0.61301078 0 0 1 0.61301,-0.62046 z m 0,-3.61477 a 0.61425168,0.61425168 0 1 1 -0.61301,0.61425 0.61301078,0.61301078 0 0 1 0.61301,-0.61053 z m 1.83655,5.5841 a 4.8953995,4.8953995 0 0 1 -1.21113,0.5733 c -1.09945,0.37228 -2.61088,0.59812 -4.27867,0.59812 -1.66778,0 -3.17922,-0.22584 -4.28859,-0.5944 a 4.9475178,4.9475178 0 0 1 -1.20121,-0.56461 v 2.33788 c 0.0707,0.33256 0.61053,0.66637 1.44815,0.94557 1.02499,0.3425 2.45204,0.55469 4.03669,0.55469 1.58464,0 3.01169,-0.21219 4.03668,-0.55469 0.62046,-0.20723 1.07836,-0.44424 1.30173,-0.6887 0.18489,-0.20227 0.15635,-0.33505 0.15635,-0.57578 v -2.02765 z m -11.76386,-8.25951 c 0,-0.73214 0.76069,-1.35012 1.98547,-1.76086 1.10937,-0.36856 2.62453,-0.59688 4.28859,-0.59688 1.66406,0 3.17922,0.22832 4.28363,0.59688 1.10442,0.36855 1.85145,0.91952 1.97554,1.56355 a 0.38592378,0.38592378 0 0 1 0.0223,0.13154 v 10.76368 c 0,0.74454 -1.42581,1.40595 -1.99414,1.59581 -1.10442,0.37227 -2.61958,0.59688 -4.28364,0.59688 -1.66406,0 -3.18294,-0.23329 -4.29232,-0.59688 -0.58198,-0.19359 -1.98546,-0.83265 -1.98546,-1.59581 v -0.24819 q 0.009,-5.22672 0,-10.44972 z m 0.78923,7.15262 c 0.0707,0.33256 0.61053,0.66513 1.44442,0.94558 1.02499,0.34249 2.45204,0.55469 4.03668,0.55469 1.58465,0 3.01543,-0.21469 4.04042,-0.55469 0.89967,-0.30031 1.45559,-0.6639 1.45559,-1.0188 v 0 -2.27334 a 4.9375908,4.9375908 0 0 1 -1.21361,0.5733 c -1.10441,0.37227 -2.61957,0.59688 -4.28363,0.59688 -1.66407,0 -3.17426,-0.22834 -4.28363,-0.59688 a 4.9475178,4.9475178 0 0 1 -1.19624,-0.56462 z m 0,-3.45718 c 0.0707,0.33256 0.61053,0.66637 1.44815,0.94557 1.02498,0.34249 2.45203,0.55469 4.03668,0.55469 1.58465,0 3.0117,-0.2122 4.03669,-0.55469 0.89967,-0.3003 1.45559,-0.66389 1.45559,-1.01879 v 0 -2.44087 a 4.9822637,4.9822637 0 0 1 -1.21361,0.5733 c -1.09945,0.36855 -2.61088,0.60308 -4.27867,0.60308 -1.66778,0 -3.17922,-0.23453 -4.28859,-0.60308 a 4.9475178,4.9475178 0 0 1 -1.20121,-0.56586 v 2.50665 z"
       id="path11-3-0"
       style="stroke-width:0.124091" />
    <path
       class="st0"
       d="m 85.13978,108.50707 h 17.72081 c 0.50163,0 0.91094,0.41105 0.91094,0.91095 v 4.94838 c 0,0.50163 -0.41106,0.91095 -0.91094,0.91095 h -2.65969 v 0.93185 h 2.65969 c 0.50163,0 0.91094,0.41106 0.91094,0.91095 v 4.94838 c 0,0.50163 -0.41106,0.91095 -0.91094,0.91095 h -2.65969 v 2.644 h 1.36729 v 1.36382 h 2.70149 v 1.56759 h -2.70149 v 1.35162 h -4.30044 v -1.35162 h -6.25297 v 1.35162 h -4.30044 v -1.35162 h -2.9854 v -1.56759 h 2.9854 v -1.36382 h 1.36555 v -2.64052 h -2.94011 c -0.50163,0 -0.91095,-0.41106 -0.91095,-0.91095 v -4.95012 c 0,-0.50163 0.40932,-0.91094 0.91095,-0.91094 h 2.94011 v -0.93186 h -2.94011 c -0.50163,0 -0.91095,-0.41106 -0.91095,-0.91095 v -4.94839 c -0.002,-0.50337 0.40932,-0.91268 0.91095,-0.91268 z m 1.34987,9.74175 h 1.04158 v 2.69451 h -1.04158 z m 14.30693,-7.18135 c 0.45635,0 0.82561,0.36926 0.82561,0.82561 0,0.45634 -0.36926,0.8256 -0.82561,0.8256 -0.45634,0 -0.8256,-0.36926 -0.8256,-0.8256 0,-0.45635 0.36926,-0.82561 0.8256,-0.82561 z m -3.1439,0 c 0.45634,0 0.8256,0.36926 0.8256,0.82561 0,0.45634 -0.36926,0.8256 -0.8256,0.8256 -0.45635,0 -0.8256,-0.36926 -0.8256,-0.8256 0,-0.45635 0.371,-0.82561 0.8256,-0.82561 z m -5.40821,-0.52253 h 1.04158 v 2.69453 h -1.04158 z m -2.87741,0 h 1.04158 v 2.69453 h -1.04158 z m -2.87741,0 h 1.04158 v 2.69453 h -1.04158 z m 14.30693,8.22641 c 0.45635,0 0.82561,0.36926 0.82561,0.8256 0,0.45634 -0.36926,0.8256 -0.82561,0.8256 -0.45634,0 -0.8256,-0.36926 -0.8256,-0.8256 0,-0.45634 0.36926,-0.8256 0.8256,-0.8256 z m -3.1439,0 c 0.45634,0 0.8256,0.36926 0.8256,0.8256 0,0.45634 -0.36926,0.8256 -0.8256,0.8256 -0.45635,0 -0.8256,-0.36926 -0.8256,-0.8256 0,-0.45634 0.371,-0.8256 0.8256,-0.8256 z m -5.40821,-0.52253 h 1.04159 v 2.69451 h -1.04159 z m -2.87741,0 h 1.04158 v 2.69451 h -1.04158 z m 10.05004,8.5434 c 0.53995,0 0.97714,0.43718 0.97714,0.97713 0,0.53995 -0.43719,0.97713 -0.97714,0.97713 -0.53996,0 -0.97714,-0.43718 -0.97714,-0.97713 0,-0.53995 0.43893,-0.97713 0.97714,-0.97713 z m -10.55341,0 c 0.53995,0 0.97714,0.43718 0.97714,0.97713 0,0.53995 -0.43719,0.97713 -0.97714,0.97713 -0.53995,0 -0.97713,-0.43718 -0.97713,-0.97713 0,-0.53995 0.43892,-0.97713 0.97713,-0.97713 z m 2.15109,0.19856 h 6.25297 v -1.36381 h 1.36555 v -2.64401 h -8.98581 v 2.64401 h 1.36729 z m -1.36729,-10.77983 h 8.98581 v -0.93186 h -8.98581 z"
       id="path21-6-9"
       style="clip-rule:evenodd;fill-rule:evenodd;stroke-width:0.174177" />
    <rect
       style="fill:#000000;fill-opacity:0;fill-rule:evenodd;stroke:#000000;stroke-width:0.89859;stroke-miterlimit:4;stroke-dasharray:none;stroke-opacity:1"
       id="rect55-7-3"
       width="46.763165"
       height="32.575813"
       x="79.449165"
       y="102.22899" />
    <path
       d="m 167.30823,114.12876 c 1.02499,0.34249 2.45204,0.55345 4.03668,0.55345 1.58465,0 3.01543,-0.20476 4.04042,-0.55345 0.89967,-0.3003 1.45559,-0.66389 1.45559,-1.02003 0,-0.35614 -0.55592,-0.71849 -1.45559,-1.01879 -1.02499,-0.34249 -2.45204,-0.55469 -4.03669,-0.55469 -1.58465,0 -3.0117,0.2122 -4.04041,0.55469 -1.90481,0.63659 -1.95816,1.38361 0,2.03882 z m 7.69366,8.74843 a 0.62045625,0.62045625 0 1 1 -0.61301,0.62045 0.61301078,0.61301078 0 0 1 0.61301,-0.62045 z m 0,-3.47456 a 0.61425168,0.61425168 0 1 1 -0.61301,0.62046 0.61301078,0.61301078 0 0 1 0.61301,-0.62046 z m 0,-3.61477 a 0.61425168,0.61425168 0 1 1 -0.61301,0.61425 0.61301078,0.61301078 0 0 1 0.61301,-0.61053 z m 1.83655,5.5841 a 4.8953995,4.8953995 0 0 1 -1.21113,0.5733 c -1.09945,0.37228 -2.61088,0.59812 -4.27867,0.59812 -1.66778,0 -3.17922,-0.22584 -4.28859,-0.5944 a 4.9475178,4.9475178 0 0 1 -1.20121,-0.56461 v 2.33788 c 0.0707,0.33256 0.61053,0.66637 1.44815,0.94557 1.02499,0.3425 2.45204,0.55469 4.03669,0.55469 1.58464,0 3.01169,-0.21219 4.03668,-0.55469 0.62046,-0.20723 1.07836,-0.44424 1.30173,-0.6887 0.18489,-0.20227 0.15635,-0.33505 0.15635,-0.57578 v -2.02765 z m -11.76386,-8.25951 c 0,-0.73213 0.76069,-1.35011 1.98547,-1.76086 1.10937,-0.36855 2.62453,-0.59688 4.28859,-0.59688 1.66406,0 3.17922,0.22833 4.28363,0.59688 1.10442,0.36856 1.85145,0.91953 1.97554,1.56356 a 0.38592378,0.38592378 0 0 1 0.0223,0.13153 v 10.76367 c 0,0.74455 -1.42581,1.40596 -1.99414,1.59581 -1.10442,0.37228 -2.61958,0.59688 -4.28364,0.59688 -1.66406,0 -3.18294,-0.23329 -4.29232,-0.59688 -0.58198,-0.19358 -1.98546,-0.83265 -1.98546,-1.59581 v -0.24818 q 0.009,-5.22672 0,-10.44972 z m 0.78923,7.15262 c 0.0707,0.33257 0.61053,0.66513 1.44442,0.94557 1.02499,0.34249 2.45204,0.55469 4.03668,0.55469 1.58465,0 3.01543,-0.21468 4.04042,-0.55469 0.89967,-0.3003 1.45559,-0.66389 1.45559,-1.01879 v 0 -2.27334 a 4.9375908,4.9375908 0 0 1 -1.21361,0.5733 c -1.10441,0.37227 -2.61957,0.59688 -4.28363,0.59688 -1.66407,0 -3.17426,-0.22834 -4.28363,-0.59688 a 4.9475178,4.9475178 0 0 1 -1.19624,-0.56462 z m 0,-3.45718 c 0.0707,0.33256 0.61053,0.66637 1.44815,0.94557 1.02498,0.34249 2.45203,0.55469 4.03668,0.55469 1.58465,0 3.0117,-0.2122 4.03669,-0.55469 0.89967,-0.3003 1.45559,-0.66389 1.45559,-1.01879 v 0 -2.44087 a 4.9822637,4.9822637 0 0 1 -1.21361,0.5733 c -1.09945,0.36855 -2.61088,0.60309 -4.27867,0.60309 -1.66778,0 -3.17922,-0.23454 -4.28859,-0.60309 a 4.9475178,4.9475178 0 0 1 -1.20121,-0.56586 v 2.50665 z"
       id="path11-3-5-6"
       style="stroke-width:0.124091" />
    <path
       class="st0"
       d="m 140.48482,108.50705 h 17.72081 c 0.50163,0 0.91094,0.41105 0.91094,0.91094 v 4.94839 c 0,0.50163 -0.41106,0.91094 -0.91094,0.91094 h -2.65969 v 0.93185 h 2.65969 c 0.50163,0 0.91094,0.41106 0.91094,0.91095 v 4.94838 c 0,0.50163 -0.41106,0.91094 -0.91094,0.91094 h -2.65969 v 2.64401 h 1.36729 v 1.36381 h 2.70149 v 1.56759 h -2.70149 v 1.35162 h -4.30045 v -1.35162 h -6.25296 v 1.35162 h -4.30044 v -1.35162 h -2.9854 v -1.56759 h 2.9854 v -1.36381 h 1.36555 v -2.64052 h -2.94011 c -0.50163,0 -0.91095,-0.41106 -0.91095,-0.91095 v -4.95012 c 0,-0.50163 0.40932,-0.91094 0.91095,-0.91094 h 2.94011 v -0.93186 h -2.94011 c -0.50163,0 -0.91095,-0.41105 -0.91095,-0.91095 v -4.94838 c -0.002,-0.50337 0.40932,-0.91268 0.91095,-0.91268 z m 1.34987,9.74174 h 1.04158 v 2.69451 h -1.04158 z m 14.30693,-7.18134 c 0.45635,0 0.82561,0.36925 0.82561,0.8256 0,0.45635 -0.36926,0.8256 -0.82561,0.8256 -0.45634,0 -0.8256,-0.36925 -0.8256,-0.8256 0,-0.45635 0.36926,-0.8256 0.8256,-0.8256 z m -3.1439,0 c 0.45634,0 0.8256,0.36925 0.8256,0.8256 0,0.45635 -0.36926,0.8256 -0.8256,0.8256 -0.45635,0 -0.8256,-0.36925 -0.8256,-0.8256 0,-0.45635 0.371,-0.8256 0.8256,-0.8256 z m -5.40821,-0.52254 h 1.04158 v 2.69454 h -1.04158 z m -2.87741,0 h 1.04158 v 2.69454 h -1.04158 z m -2.87741,0 h 1.04158 v 2.69454 h -1.04158 z m 14.30693,8.22641 c 0.45635,0 0.82561,0.36926 0.82561,0.8256 0,0.45634 -0.36926,0.8256 -0.82561,0.8256 -0.45634,0 -0.8256,-0.36926 -0.8256,-0.8256 0,-0.45634 0.36926,-0.8256 0.8256,-0.8256 z m -3.1439,0 c 0.45634,0 0.8256,0.36926 0.8256,0.8256 0,0.45634 -0.36926,0.8256 -0.8256,0.8256 -0.45635,0 -0.8256,-0.36926 -0.8256,-0.8256 0,-0.45634 0.371,-0.8256 0.8256,-0.8256 z m -5.40821,-0.52253 h 1.04158 v 2.69451 h -1.04158 z m -2.87741,0 h 1.04158 v 2.69451 h -1.04158 z m 10.05003,8.54339 c 0.53995,0 0.97715,0.43719 0.97715,0.97714 0,0.53995 -0.4372,0.97713 -0.97715,0.97713 -0.53995,0 -0.97713,-0.43718 -0.97713,-0.97713 0,-0.53995 0.43893,-0.97714 0.97713,-0.97714 z m -10.5534,0 c 0.53995,0 0.97713,0.43719 0.97713,0.97714 0,0.53995 -0.43718,0.97713 -0.97713,0.97713 -0.53995,0 -0.97714,-0.43718 -0.97714,-0.97713 0,-0.53995 0.43893,-0.97714 0.97714,-0.97714 z m 2.15109,0.19856 h 6.25296 v -1.36381 h 1.36556 v -2.644 h -8.98581 v 2.644 h 1.36729 z m -1.36729,-10.77982 h 8.98581 v -0.93186 h -8.98581 z"
       id="path21-6-3-0"
       style="clip-rule:evenodd;fill-rule:evenodd;stroke-width:0.174177" />
    <rect
       style="fill:#000000;fill-opacity:0;fill-rule:evenodd;stroke:#000000;stroke-width:0.89859;stroke-miterlimit:4;stroke-dasharray:none;stroke-opacity:1"
       id="rect55-7-5-6"
       width="46.763165"
       height="32.575813"
       x="134.79422"
       y="102.22899" />
    <path
       d="m 222.65327,114.12872 c 1.02499,0.34249 2.45204,0.55345 4.03668,0.55345 1.58465,0 3.01543,-0.20476 4.04042,-0.55345 0.89967,-0.3003 1.45559,-0.66389 1.45559,-1.02003 0,-0.35614 -0.55592,-0.71849 -1.45559,-1.01879 -1.02499,-0.34249 -2.45204,-0.55468 -4.03669,-0.55468 -1.58465,0 -3.0117,0.21219 -4.04041,0.55468 -1.90481,0.63659 -1.95816,1.38361 0,2.03882 z m 7.69366,8.74843 a 0.62045625,0.62045625 0 1 1 -0.61301,0.62045 0.61301078,0.61301078 0 0 1 0.61301,-0.62045 z m 0,-3.47456 a 0.61425168,0.61425168 0 1 1 -0.61301,0.62046 0.61301078,0.61301078 0 0 1 0.61301,-0.62046 z m 0,-3.61477 a 0.61425168,0.61425168 0 1 1 -0.61301,0.61426 0.61301078,0.61301078 0 0 1 0.61301,-0.61054 z m 1.83655,5.58411 a 4.8953995,4.8953995 0 0 1 -1.21113,0.5733 c -1.09945,0.37227 -2.61088,0.59811 -4.27867,0.59811 -1.66778,0 -3.17922,-0.22584 -4.28859,-0.59439 a 4.9475178,4.9475178 0 0 1 -1.20121,-0.56461 v 2.33787 c 0.0707,0.33256 0.61053,0.66637 1.44815,0.94557 1.02499,0.3425 2.45204,0.55469 4.03669,0.55469 1.58464,0 3.01169,-0.21219 4.03668,-0.55469 0.62046,-0.20723 1.07836,-0.44424 1.30173,-0.6887 0.18489,-0.20227 0.15635,-0.33505 0.15635,-0.57578 v -2.02764 z m -11.76386,-8.25952 c 0,-0.73213 0.76069,-1.35011 1.98547,-1.76085 1.10937,-0.36855 2.62453,-0.59688 4.28859,-0.59688 1.66406,0 3.17922,0.22833 4.28363,0.59688 1.10442,0.36855 1.85145,0.91952 1.97554,1.56355 a 0.38592378,0.38592378 0 0 1 0.0223,0.13153 v 10.76367 c 0,0.74455 -1.42581,1.40596 -1.99414,1.59581 -1.10442,0.37228 -2.61958,0.59688 -4.28364,0.59688 -1.66406,0 -3.18294,-0.23329 -4.29232,-0.59688 -0.58198,-0.19358 -1.98546,-0.83265 -1.98546,-1.59581 v -0.24818 q 0.009,-5.22672 0,-10.44972 z m 0.78923,7.15262 c 0.0707,0.33257 0.61053,0.66513 1.44442,0.94558 1.02499,0.34249 2.45204,0.55469 4.03668,0.55469 1.58465,0 3.01543,-0.21468 4.04042,-0.55469 0.89967,-0.30031 1.45559,-0.6639 1.45559,-1.0188 v 0 -2.27334 a 4.9375908,4.9375908 0 0 1 -1.21361,0.5733 c -1.10441,0.37227 -2.61957,0.59688 -4.28363,0.59688 -1.66407,0 -3.17426,-0.22834 -4.28363,-0.59688 a 4.9475178,4.9475178 0 0 1 -1.19624,-0.56462 z m 0,-3.45717 c 0.0707,0.33255 0.61053,0.66636 1.44815,0.94556 1.02498,0.34249 2.45203,0.55469 4.03668,0.55469 1.58465,0 3.0117,-0.2122 4.03669,-0.55469 0.89967,-0.3003 1.45559,-0.66389 1.45559,-1.01878 v 0 -2.44088 a 4.9822637,4.9822637 0 0 1 -1.21361,0.5733 c -1.09945,0.36855 -2.61088,0.60309 -4.27867,0.60309 -1.66778,0 -3.17922,-0.23454 -4.28859,-0.60309 a 4.9475178,4.9475178 0 0 1 -1.20121,-0.56586 v 2.50666 z"
       id="path11-3-5-1-2"
       style="stroke-width:0.124091" />
    <path
       class="st0"
       d="m 195.82986,108.50701 h 17.72081 c 0.50163,0 0.91094,0.41105 0.91094,0.91094 v 4.94839 c 0,0.50163 -0.41106,0.91094 -0.91094,0.91094 h -2.65969 v 0.93186 h 2.65969 c 0.50163,0 0.91094,0.41106 0.91094,0.91094 v 4.94839 c 0,0.50162 -0.41106,0.91093 -0.91094,0.91093 h -2.65969 v 2.64401 h 1.36729 v 1.36382 h 2.70149 v 1.56758 h -2.70149 v 1.35162 h -4.30045 v -1.35162 h -6.25296 v 1.35162 h -4.30044 v -1.35162 h -2.9854 v -1.56758 h 2.9854 v -1.36382 h 1.36555 v -2.64052 h -2.94011 c -0.50163,0 -0.91095,-0.41106 -0.91095,-0.91094 v -4.95013 c 0,-0.50162 0.40932,-0.91093 0.91095,-0.91093 h 2.94011 v -0.93187 h -2.94011 c -0.50163,0 -0.91095,-0.41105 -0.91095,-0.91095 v -4.94838 c -0.002,-0.50337 0.40932,-0.91268 0.91095,-0.91268 z m 1.34987,9.74174 h 1.04158 v 2.69451 h -1.04158 z m 14.30693,-7.18133 c 0.45635,0 0.82561,0.36925 0.82561,0.82559 0,0.45635 -0.36926,0.8256 -0.82561,0.8256 -0.45634,0 -0.8256,-0.36925 -0.8256,-0.8256 0,-0.45634 0.36926,-0.82559 0.8256,-0.82559 z m -3.1439,0 c 0.45634,0 0.8256,0.36925 0.8256,0.82559 0,0.45635 -0.36926,0.8256 -0.8256,0.8256 -0.45635,0 -0.8256,-0.36925 -0.8256,-0.8256 0,-0.45634 0.371,-0.82559 0.8256,-0.82559 z m -5.40821,-0.52255 h 1.04158 v 2.69454 h -1.04158 z m -2.87741,0 h 1.04158 v 2.69454 h -1.04158 z m -2.87741,0 h 1.04158 v 2.69454 h -1.04158 z m 14.30693,8.22641 c 0.45635,0 0.82561,0.36926 0.82561,0.8256 0,0.45634 -0.36926,0.8256 -0.82561,0.8256 -0.45634,0 -0.8256,-0.36926 -0.8256,-0.8256 0,-0.45634 0.36926,-0.8256 0.8256,-0.8256 z m -3.1439,0 c 0.45634,0 0.8256,0.36926 0.8256,0.8256 0,0.45634 -0.36926,0.8256 -0.8256,0.8256 -0.45635,0 -0.8256,-0.36926 -0.8256,-0.8256 0,-0.45634 0.371,-0.8256 0.8256,-0.8256 z m -5.40821,-0.52253 h 1.04158 v 2.69451 h -1.04158 z m -2.87741,0 h 1.04158 v 2.69451 h -1.04158 z m 10.05003,8.5434 c 0.53995,0 0.97715,0.43719 0.97715,0.97713 0,0.53995 -0.4372,0.97713 -0.97715,0.97713 -0.53995,0 -0.97713,-0.43718 -0.97713,-0.97713 0,-0.53994 0.43893,-0.97713 0.97713,-0.97713 z m -10.5534,0 c 0.53995,0 0.97713,0.43719 0.97713,0.97713 0,0.53995 -0.43718,0.97713 -0.97713,0.97713 -0.53995,0 -0.97714,-0.43718 -0.97714,-0.97713 0,-0.53994 0.43893,-0.97713 0.97714,-0.97713 z m 2.15109,0.19856 h 6.25296 v -1.36382 h 1.36556 v -2.644 h -8.98581 v 2.644 h 1.36729 z m -1.36729,-10.77982 h 8.98581 v -0.93187 h -8.98581 z"
       id="path21-6-3-2-6"
       style="clip-rule:evenodd;fill-rule:evenodd;stroke-width:0.174177" />
    <rect
       style="fill:#000000;fill-opacity:0;fill-rule:evenodd;stroke:#000000;stroke-width:0.89859;stroke-miterlimit:4;stroke-dasharray:none;stroke-opacity:1"
       id="rect55-7-5-7-1"
       width="46.763165"
       height="32.575813"
       x="190.13927"
       y="102.22896" />
  </g>
  <style
     type="text/css"
     id="style19">.st0{fill-rule:evenodd;clip-rule:evenodd;}</style>
</svg>
