<?xml version="1.0" encoding="UTF-8" standalone="no"?>
<!-- Created with Inkscape (http://www.inkscape.org/) -->

<svg
   width="274.15198mm"
   height="75.807747mm"
   viewBox="0 0 274.15198 75.807747"
   version="1.1"
   id="svg5"
   inkscape:version="1.1.2 (0a00cf5339, 2022-02-04)"
   sodipodi:docname="central-vs-decentralized.svg"
   xmlns:inkscape="http://www.inkscape.org/namespaces/inkscape"
   xmlns:sodipodi="http://sodipodi.sourceforge.net/DTD/sodipodi-0.dtd"
   xmlns="http://www.w3.org/2000/svg"
   xmlns:svg="http://www.w3.org/2000/svg">
  <sodipodi:namedview
     id="namedview7"
     pagecolor="#ffffff"
     bordercolor="#666666"
     borderopacity="1.0"
     inkscape:pageshadow="2"
     inkscape:pageopacity="0.0"
     inkscape:pagecheckerboard="0"
     inkscape:document-units="mm"
     showgrid="false"
     showguides="true"
     inkscape:guide-bbox="true"
     inkscape:zoom="0.64052329"
     inkscape:cx="559.69862"
     inkscape:cy="305.9998"
     inkscape:window-width="1916"
     inkscape:window-height="1161"
     inkscape:window-x="0"
     inkscape:window-y="18"
     inkscape:window-maximized="1"
     inkscape:current-layer="layer1">
    <sodipodi:guide
       position="3.480155,89.313575"
       orientation="0,-1"
       id="guide1566" />
  </sodipodi:namedview>
  <defs
     id="defs2" />
  <g
     inkscape:label="Layer 1"
     inkscape:groupmode="layer"
     id="layer1"
     transform="translate(44.374452,-73.401505)">
    <path
       d="m 5.6983096,104.82289 c 1.5570136,0.52026 3.724761,0.84071 6.1319094,0.84071 2.40715,0 4.580561,-0.31103 6.137575,-0.84071 1.366628,-0.45617 2.211107,-1.00848 2.211107,-1.54948 0,-0.54099 -0.844479,-1.09141 -2.211107,-1.54758 -1.557014,-0.52027 -3.724768,-0.84261 -6.131918,-0.84261 -2.4071484,0 -4.5749031,0.32234 -6.1375664,0.84261 -2.8934838,0.967 -2.9745383,2.10177 0,3.09706 z m 11.6870134,13.28927 a 0.94250152,0.94250152 0 1 1 -0.931191,0.9425 0.9311915,0.9311915 0 0 1 0.931191,-0.9425 z m 0,-5.27801 a 0.93307648,0.93307648 0 1 1 -0.931191,0.9425 0.9311915,0.9311915 0 0 1 0.931191,-0.9425 z m 0,-5.49101 a 0.93307648,0.93307648 0 1 1 -0.931191,0.93307 0.9311915,0.9311915 0 0 1 0.931191,-0.92742 z m 2.789809,8.48251 a 7.4363365,7.4363365 0 0 1 -1.839768,0.87087 c -1.670107,0.5655 -3.966044,0.90857 -6.499488,0.90857 -2.5334434,0 -4.8293732,-0.34307 -6.5145694,-0.90292 A 7.5155066,7.5155066 0 0 1 3.4966213,115.8445 v 3.55135 c 0.1074505,0.50517 0.9274215,1.01224 2.1998003,1.43636 1.5570136,0.52027 3.724768,0.8426 6.1319174,0.8426 2.407149,0 4.574896,-0.32233 6.13191,-0.8426 0.942504,-0.31479 1.638068,-0.67482 1.977369,-1.04617 0.280866,-0.30725 0.237514,-0.50895 0.237514,-0.87464 v -3.08009 z M 2.3053042,103.27907 c 0,-1.11215 1.1555027,-2.05089 3.0160024,-2.67483 1.6851962,-0.55985 3.986783,-0.906697 6.5145694,-0.906697 2.527787,0 4.829381,0.346847 6.507033,0.906697 1.677651,0.55985 2.812422,1.3968 3.00092,2.37511 a 0.58623593,0.58623593 0 0 1 0.03391,0.19981 v 16.35052 c 0,1.131 -2.165867,2.13571 -3.029197,2.42411 -1.677658,0.5655 -3.979245,0.90669 -6.507032,0.90669 -2.5277874,0 -4.8350305,-0.35438 -6.5202268,-0.90669 -0.8840622,-0.29406 -3.0160024,-1.26483 -3.0160024,-2.42411 v -0.377 q 0.01318,-7.93963 0,-15.87361 z m 1.1988619,10.86516 c 0.1074434,0.50518 0.9274214,1.01036 2.1941435,1.43637 1.5570136,0.52026 3.724761,0.8426 6.1319094,0.8426 2.40715,0 4.580561,-0.32611 6.137575,-0.8426 1.366628,-0.45617 2.211107,-1.00848 2.211107,-1.54759 v 0 -3.45332 a 7.500427,7.500427 0 0 1 -1.843537,0.87087 c -1.677651,0.5655 -3.979238,0.90669 -6.507025,0.90669 -2.5277874,0 -4.8218362,-0.34685 -6.5070324,-0.90669 a 7.5155066,7.5155066 0 0 1 -1.8171405,-0.85768 z m 0,-5.25162 c 0.1074434,0.50518 0.9274214,1.01225 2.1998003,1.43637 1.5570065,0.52026 3.7247612,0.8426 6.1319096,0.8426 2.40715,0 4.574904,-0.32234 6.131918,-0.8426 1.366628,-0.45617 2.211107,-1.00848 2.211107,-1.54759 v 0 -3.7078 a 7.5682871,7.5682871 0 0 1 -1.843537,0.87087 c -1.670107,0.55985 -3.966044,0.91612 -6.499488,0.91612 -2.5334434,0 -4.8293732,-0.35627 -6.5145694,-0.91612 A 7.5155066,7.5155066 0 0 1 3.4966213,105.0849 v 3.80771 z"
       id="path11"
       style="stroke-width:0.1885" />
    <path
       class="st0"
       d="m -35.047662,96.283234 h 26.9187076 c 0.762,0 1.383771,0.624416 1.383771,1.38377 v 7.516836 c 0,0.762 -0.624417,1.38377 -1.383771,1.38377 h -4.0401866 v 1.41552 h 4.0401866 c 0.762,0 1.383771,0.62442 1.383771,1.38377 v 7.51682 c 0,0.762 -0.624417,1.38377 -1.383771,1.38377 h -4.0401866 v 4.01637 h 2.076979 v 2.07169 h 4.1036866 v 2.38125 h -4.1036866 v 2.05317 h -6.532563 v -2.05317 h -9.498541 v 2.05317 h -6.532563 v -2.05317 h -4.534958 v -2.38125 h 4.534958 v -2.07169 h 2.074334 v -4.01108 h -4.466167 c -0.762,0 -1.383771,-0.62442 -1.383771,-1.38377 v -7.51946 c 0,-0.762 0.621771,-1.38377 1.383771,-1.38377 h 4.466167 v -1.41553 h -4.466167 c -0.762,0 -1.383771,-0.62441 -1.383771,-1.38377 v -7.51683 c -0.0026,-0.764646 0.621771,-1.386416 1.383771,-1.386416 z m 2.050521,14.798166 h 1.582208 v 4.0931 h -1.582208 z m 21.732875,-10.90879 c 0.693208,0 1.254125,0.56092 1.254125,1.25413 0,0.69321 -0.560917,1.25413 -1.254125,1.25413 -0.693209,0 -1.254125,-0.56092 -1.254125,-1.25413 0,-0.69321 0.560916,-1.25413 1.254125,-1.25413 z m -4.775729,0 c 0.693208,0 1.254125,0.56092 1.254125,1.25413 0,0.69321 -0.560917,1.25413 -1.254125,1.25413 -0.693209,0 -1.254125,-0.56092 -1.254125,-1.25413 0,-0.69321 0.563562,-1.25413 1.254125,-1.25413 z m -8.215313,-0.793751 h 1.582208 v 4.093121 h -1.582208 z m -4.370917,0 h 1.582209 v 4.093121 h -1.582209 z m -4.370916,0 h 1.582208 v 4.093121 h -1.582208 z m 21.732875,12.496291 c 0.693208,0 1.254125,0.56092 1.254125,1.25413 0,0.6932 -0.560917,1.25412 -1.254125,1.25412 -0.693209,0 -1.254125,-0.56092 -1.254125,-1.25412 0,-0.69321 0.560916,-1.25413 1.254125,-1.25413 z m -4.775729,0 c 0.693208,0 1.254125,0.56092 1.254125,1.25413 0,0.6932 -0.560917,1.25412 -1.254125,1.25412 -0.693209,0 -1.254125,-0.56092 -1.254125,-1.25412 0,-0.69321 0.563562,-1.25413 1.254125,-1.25413 z m -8.215313,-0.79375 h 1.582209 v 4.0931 h -1.582209 z m -4.370917,0 h 1.582209 v 4.0931 h -1.582209 z m 15.266459,12.97782 c 0.820208,0 1.484312,0.6641 1.484312,1.48431 0,0.82021 -0.664104,1.48431 -1.484312,1.48431 -0.820208,0 -1.484313,-0.6641 -1.484313,-1.48431 0,-0.82021 0.66675,-1.48431 1.484313,-1.48431 z m -16.031104,0 c 0.820208,0 1.484312,0.6641 1.484312,1.48431 0,0.82021 -0.664104,1.48431 -1.484312,1.48431 -0.820209,0 -1.484313,-0.6641 -1.484313,-1.48431 0,-0.82021 0.66675,-1.48431 1.484313,-1.48431 z m 3.267604,0.30162 h 9.498541 v -2.07169 h 2.074334 v -4.01637 h -13.649854 v 4.01637 h 2.076979 z m -2.076979,-16.37506 h 13.649854 v -1.41553 h -13.649854 z"
       id="path21"
       style="stroke-width:0.264583" />
    <rect
       style="fill:#000000;fill-opacity:0;fill-rule:evenodd;stroke:#000000;stroke-width:1.365;stroke-miterlimit:4;stroke-dasharray:none;stroke-opacity:1"
       id="rect55"
       width="71.035393"
       height="49.484158"
       x="-43.691952"
       y="86.746559" />
    <path
       d="m 104.389,85.750601 c 1.02499,0.342491 2.45204,0.553446 4.03668,0.553446 1.58465,0 3.01543,-0.204754 4.04042,-0.553446 0.89967,-0.300299 1.45559,-0.663889 1.45559,-1.020033 0,-0.356138 -0.55592,-0.718484 -1.45559,-1.018785 -1.02499,-0.342497 -2.45204,-0.554696 -4.03669,-0.554696 -1.58465,0 -3.0117,0.212199 -4.04041,0.554696 -1.90481,0.636584 -1.95816,1.383612 0,2.038818 z m 7.69366,8.748428 a 0.62045625,0.62045625 0 1 1 -0.61301,0.620455 0.61301078,0.61301078 0 0 1 0.61301,-0.620455 z m 0,-3.474554 a 0.61425168,0.61425168 0 1 1 -0.61301,0.620455 0.61301078,0.61301078 0 0 1 0.61301,-0.620455 z m 0,-3.614774 a 0.61425168,0.61425168 0 1 1 -0.61301,0.614248 0.61301078,0.61301078 0 0 1 0.61301,-0.610528 z m 1.83655,5.5841 a 4.8953995,4.8953995 0 0 1 -1.21113,0.573301 c -1.09945,0.372273 -2.61088,0.598119 -4.27867,0.598119 -1.66778,0 -3.17922,-0.225846 -4.28859,-0.5944 a 4.9475178,4.9475178 0 0 1 -1.20121,-0.564611 v 2.337882 c 0.0707,0.332558 0.61053,0.666364 1.44815,0.945566 1.02499,0.342498 2.45204,0.55469 4.03669,0.55469 1.58464,0 3.01169,-0.212192 4.03668,-0.55469 0.62046,-0.207229 1.07836,-0.444238 1.30173,-0.6887 0.18489,-0.202266 0.15635,-0.335046 0.15635,-0.575783 v -2.027648 z m -11.76386,-8.259507 c 0,-0.732137 0.76069,-1.350117 1.98547,-1.760862 1.10937,-0.368554 2.62453,-0.596881 4.28859,-0.596881 1.66406,0 3.17922,0.228327 4.28363,0.596881 1.10442,0.368554 1.85145,0.919524 1.97554,1.563554 a 0.38592378,0.38592378 0 0 1 0.0223,0.131536 v 10.763672 c 0,0.744544 -1.42581,1.405953 -1.99414,1.595809 -1.10442,0.372273 -2.61958,0.596881 -4.28364,0.596881 -1.66406,0 -3.18294,-0.233291 -4.29232,-0.596881 -0.58198,-0.193582 -1.98546,-0.832648 -1.98546,-1.595809 v -0.248182 q 0.009,-5.22672 0,-10.449718 z m 0.78923,7.152617 c 0.0707,0.332564 0.61053,0.665126 1.44442,0.945572 1.02499,0.342491 2.45204,0.55469 4.03668,0.55469 1.58465,0 3.01543,-0.214681 4.04042,-0.55469 0.89967,-0.3003 1.45559,-0.663889 1.45559,-1.018789 v 0 -2.273348 a 4.9375908,4.9375908 0 0 1 -1.21361,0.573301 c -1.10441,0.372273 -2.61957,0.596881 -4.28363,0.596881 -1.66407,0 -3.17426,-0.228334 -4.28363,-0.596881 a 4.9475178,4.9475178 0 0 1 -1.19624,-0.564618 z m 0,-3.457181 c 0.0707,0.332564 0.61053,0.66637 1.44815,0.945572 1.02498,0.342491 2.45203,0.55469 4.03668,0.55469 1.58465,0 3.0117,-0.212199 4.03669,-0.55469 0.89967,-0.300301 1.45559,-0.663889 1.45559,-1.018789 v 0 -2.440874 a 4.9822637,4.9822637 0 0 1 -1.21361,0.5733 c -1.09945,0.368554 -2.61088,0.603089 -4.27867,0.603089 -1.66778,0 -3.17922,-0.234535 -4.28859,-0.603089 a 4.9475178,4.9475178 0 0 1 -1.20121,-0.565855 v 2.506646 z"
       id="path11-3"
       style="stroke-width:0.124091" />
    <rect
       style="fill:#000000;fill-opacity:0;fill-rule:evenodd;stroke:#000000;stroke-width:0.89859;stroke-miterlimit:4;stroke-dasharray:none;stroke-opacity:1"
       id="rect55-7"
       width="46.763165"
       height="32.575813"
       x="71.874977"
       y="73.850838" />
    <path
       d="m 159.73404,85.750572 c 1.02499,0.34249 2.45204,0.55345 4.03668,0.55345 1.58465,0 3.01543,-0.20476 4.04042,-0.55345 0.89967,-0.3003 1.45559,-0.66389 1.45559,-1.02003 0,-0.35614 -0.55592,-0.71849 -1.45559,-1.01879 -1.02499,-0.34249 -2.45204,-0.554687 -4.03669,-0.554687 -1.58465,0 -3.0117,0.212197 -4.04041,0.554687 -1.90481,0.63659 -1.95816,1.38361 0,2.03882 z m 7.69366,8.748424 a 0.62045625,0.62045625 0 1 1 -0.61301,0.62045 0.61301078,0.61301078 0 0 1 0.61301,-0.62045 z m 0,-3.474557 a 0.61425168,0.61425168 0 1 1 -0.61301,0.62046 0.61301078,0.61301078 0 0 1 0.61301,-0.62046 z m 0,-3.614767 a 0.61425168,0.61425168 0 1 1 -0.61301,0.61425 0.61301078,0.61301078 0 0 1 0.61301,-0.61053 z m 1.83655,5.584097 a 4.8953995,4.8953995 0 0 1 -1.21113,0.5733 c -1.09945,0.372277 -2.61088,0.598117 -4.27867,0.598117 -1.66778,0 -3.17922,-0.22584 -4.28859,-0.594397 a 4.9475178,4.9475178 0 0 1 -1.20121,-0.56461 v 2.337877 c 0.0707,0.33256 0.61053,0.66637 1.44815,0.94557 1.02499,0.3425 2.45204,0.55469 4.03669,0.55469 1.58464,0 3.01169,-0.21219 4.03668,-0.55469 0.62046,-0.20723 1.07836,-0.44424 1.30173,-0.6887 0.18489,-0.20227 0.15635,-0.33505 0.15635,-0.57578 v -2.027647 z m -11.76386,-8.259507 c 0,-0.73213 0.76069,-1.35011 1.98547,-1.760857 1.10937,-0.36855 2.62453,-0.59688 4.28859,-0.59688 1.66406,0 3.17922,0.22833 4.28363,0.59688 1.10442,0.368557 1.85145,0.919527 1.97554,1.563557 a 0.38592378,0.38592378 0 0 1 0.0223,0.13153 v 10.763664 c 0,0.74455 -1.42581,1.40596 -1.99414,1.59581 -1.10442,0.37228 -2.61958,0.59688 -4.28364,0.59688 -1.66406,0 -3.18294,-0.23329 -4.29232,-0.59688 -0.58198,-0.19358 -1.98546,-0.83265 -1.98546,-1.59581 v -0.24818 q 0.009,-5.226717 0,-10.449714 z m 0.78923,7.152617 c 0.0707,0.33257 0.61053,0.66513 1.44442,0.94557 1.02499,0.34249 2.45204,0.55469 4.03668,0.55469 1.58465,0 3.01543,-0.21468 4.04042,-0.55469 0.89967,-0.3003 1.45559,-0.66389 1.45559,-1.01879 v 0 -2.27334 a 4.9375908,4.9375908 0 0 1 -1.21361,0.5733 c -1.10441,0.37227 -2.61957,0.59688 -4.28363,0.59688 -1.66407,0 -3.17426,-0.22834 -4.28363,-0.59688 a 4.9475178,4.9475178 0 0 1 -1.19624,-0.56462 z m 0,-3.457177 c 0.0707,0.332557 0.61053,0.666367 1.44815,0.945567 1.02498,0.34249 2.45203,0.55469 4.03668,0.55469 1.58465,0 3.0117,-0.2122 4.03669,-0.55469 0.89967,-0.3003 1.45559,-0.66389 1.45559,-1.018787 v 0 -2.44087 a 4.9822637,4.9822637 0 0 1 -1.21361,0.5733 c -1.09945,0.36855 -2.61088,0.60309 -4.27867,0.60309 -1.66778,0 -3.17922,-0.23454 -4.28859,-0.60309 a 4.9475178,4.9475178 0 0 1 -1.20121,-0.56586 v 2.50665 z"
       id="path11-3-5"
       style="stroke-width:0.124091" />
    <rect
       style="fill:#000000;fill-opacity:0;fill-rule:evenodd;stroke:#000000;stroke-width:0.89859;stroke-miterlimit:4;stroke-dasharray:none;stroke-opacity:1"
       id="rect55-7-5"
       width="46.763165"
       height="32.575813"
       x="127.22002"
       y="73.850838" />
    <path
       d="m 215.07908,85.750538 c 1.02499,0.34249 2.45204,0.55345 4.03668,0.55345 1.58465,0 3.01543,-0.20476 4.04042,-0.55345 0.89967,-0.3003 1.45559,-0.66389 1.45559,-1.02003 0,-0.35614 -0.55592,-0.71849 -1.45559,-1.01879 -1.02499,-0.34249 -2.45204,-0.554687 -4.03669,-0.554687 -1.58465,0 -3.0117,0.212197 -4.04041,0.554687 -1.90481,0.63659 -1.95816,1.38361 0,2.03882 z m 7.69366,8.748424 a 0.62045625,0.62045625 0 1 1 -0.61301,0.62045 0.61301078,0.61301078 0 0 1 0.61301,-0.62045 z m 0,-3.474557 a 0.61425168,0.61425168 0 1 1 -0.61301,0.62046 0.61301078,0.61301078 0 0 1 0.61301,-0.62046 z m 0,-3.614767 a 0.61425168,0.61425168 0 1 1 -0.61301,0.61425 0.61301078,0.61301078 0 0 1 0.61301,-0.61053 z m 1.83655,5.584097 a 4.8953995,4.8953995 0 0 1 -1.21113,0.5733 c -1.09945,0.372277 -2.61088,0.598117 -4.27867,0.598117 -1.66778,0 -3.17922,-0.22584 -4.28859,-0.594397 a 4.9475178,4.9475178 0 0 1 -1.20121,-0.56461 v 2.337877 c 0.0707,0.33256 0.61053,0.66637 1.44815,0.94557 1.02499,0.3425 2.45204,0.55469 4.03669,0.55469 1.58464,0 3.01169,-0.21219 4.03668,-0.55469 0.62046,-0.20723 1.07836,-0.44424 1.30173,-0.6887 0.18489,-0.20227 0.15635,-0.33505 0.15635,-0.57578 v -2.027647 z m -11.76386,-8.259507 c 0,-0.73213 0.76069,-1.35011 1.98547,-1.760857 1.10937,-0.36855 2.62453,-0.59688 4.28859,-0.59688 1.66406,0 3.17922,0.22833 4.28363,0.59688 1.10442,0.368557 1.85145,0.919527 1.97554,1.563557 a 0.38592378,0.38592378 0 0 1 0.0223,0.13153 v 10.763664 c 0,0.74455 -1.42581,1.40596 -1.99414,1.59581 -1.10442,0.37228 -2.61958,0.59688 -4.28364,0.59688 -1.66406,0 -3.18294,-0.23329 -4.29232,-0.59688 -0.58198,-0.19358 -1.98546,-0.83265 -1.98546,-1.59581 v -0.24818 q 0.009,-5.226717 0,-10.449714 z m 0.78923,7.152617 c 0.0707,0.33257 0.61053,0.66513 1.44442,0.94557 1.02499,0.34249 2.45204,0.55469 4.03668,0.55469 1.58465,0 3.01543,-0.21468 4.04042,-0.55469 0.89967,-0.3003 1.45559,-0.66389 1.45559,-1.01879 v 0 -2.27334 a 4.9375908,4.9375908 0 0 1 -1.21361,0.5733 c -1.10441,0.37227 -2.61957,0.59688 -4.28363,0.59688 -1.66407,0 -3.17426,-0.22834 -4.28363,-0.59688 a 4.9475178,4.9475178 0 0 1 -1.19624,-0.56462 z m 0,-3.457177 c 0.0707,0.332557 0.61053,0.666367 1.44815,0.945567 1.02498,0.34249 2.45203,0.55469 4.03668,0.55469 1.58465,0 3.0117,-0.2122 4.03669,-0.55469 0.89967,-0.3003 1.45559,-0.66389 1.45559,-1.018787 v 0 -2.44087 a 4.9822637,4.9822637 0 0 1 -1.21361,0.5733 c -1.09945,0.36855 -2.61088,0.60309 -4.27867,0.60309 -1.66778,0 -3.17922,-0.23454 -4.28859,-0.60309 a 4.9475178,4.9475178 0 0 1 -1.20121,-0.56586 v 2.50665 z"
       id="path11-3-5-1"
       style="stroke-width:0.124091" />
    <rect
       style="fill:#000000;fill-opacity:0;fill-rule:evenodd;stroke:#000000;stroke-width:0.89859;stroke-miterlimit:4;stroke-dasharray:none;stroke-opacity:1"
       id="rect55-7-5-7"
       width="46.763165"
       height="32.575813"
       x="182.56508"
       y="73.8508" />
    <path
       d="m 104.389,128.08394 c 1.02499,0.34249 2.45204,0.55344 4.03668,0.55344 1.58465,0 3.01543,-0.20475 4.04042,-0.55344 0.89967,-0.3003 1.45559,-0.66389 1.45559,-1.02004 0,-0.35613 -0.55592,-0.71848 -1.45559,-1.01878 -1.02499,-0.3425 -2.45204,-0.5547 -4.03669,-0.5547 -1.58465,0 -3.0117,0.2122 -4.04041,0.5547 -1.90481,0.63658 -1.95816,1.38361 0,2.03882 z m 7.69366,8.74843 a 0.62045625,0.62045625 0 1 1 -0.61301,0.62046 0.61301078,0.61301078 0 0 1 0.61301,-0.62046 z m 0,-3.47456 a 0.61425168,0.61425168 0 1 1 -0.61301,0.62046 0.61301078,0.61301078 0 0 1 0.61301,-0.62046 z m 0,-3.61477 a 0.61425168,0.61425168 0 1 1 -0.61301,0.61425 0.61301078,0.61301078 0 0 1 0.61301,-0.61053 z m 1.83655,5.5841 a 4.8953995,4.8953995 0 0 1 -1.21113,0.5733 c -1.09945,0.37228 -2.61088,0.59812 -4.27867,0.59812 -1.66778,0 -3.17922,-0.22584 -4.28859,-0.5944 a 4.9475178,4.9475178 0 0 1 -1.20121,-0.56461 v 2.33788 c 0.0707,0.33256 0.61053,0.66637 1.44815,0.94557 1.02499,0.3425 2.45204,0.55469 4.03669,0.55469 1.58464,0 3.01169,-0.21219 4.03668,-0.55469 0.62046,-0.20723 1.07836,-0.44424 1.30173,-0.6887 0.18489,-0.20227 0.15635,-0.33505 0.15635,-0.57578 v -2.02765 z m -11.76386,-8.25951 c 0,-0.73214 0.76069,-1.35012 1.98547,-1.76086 1.10937,-0.36856 2.62453,-0.59688 4.28859,-0.59688 1.66406,0 3.17922,0.22832 4.28363,0.59688 1.10442,0.36855 1.85145,0.91952 1.97554,1.56355 a 0.38592378,0.38592378 0 0 1 0.0223,0.13154 v 10.76368 c 0,0.74454 -1.42581,1.40595 -1.99414,1.59581 -1.10442,0.37227 -2.61958,0.59688 -4.28364,0.59688 -1.66406,0 -3.18294,-0.23329 -4.29232,-0.59688 -0.58198,-0.19359 -1.98546,-0.83265 -1.98546,-1.59581 v -0.24819 q 0.009,-5.22672 0,-10.44972 z m 0.78923,7.15262 c 0.0707,0.33256 0.61053,0.66513 1.44442,0.94558 1.02499,0.34249 2.45204,0.55469 4.03668,0.55469 1.58465,0 3.01543,-0.21469 4.04042,-0.55469 0.89967,-0.30031 1.45559,-0.6639 1.45559,-1.0188 v 0 -2.27334 a 4.9375908,4.9375908 0 0 1 -1.21361,0.5733 c -1.10441,0.37227 -2.61957,0.59688 -4.28363,0.59688 -1.66407,0 -3.17426,-0.22834 -4.28363,-0.59688 a 4.9475178,4.9475178 0 0 1 -1.19624,-0.56462 z m 0,-3.45718 c 0.0707,0.33256 0.61053,0.66637 1.44815,0.94557 1.02498,0.34249 2.45203,0.55469 4.03668,0.55469 1.58465,0 3.0117,-0.2122 4.03669,-0.55469 0.89967,-0.3003 1.45559,-0.66389 1.45559,-1.01879 v 0 -2.44087 a 4.9822637,4.9822637 0 0 1 -1.21361,0.5733 c -1.09945,0.36855 -2.61088,0.60308 -4.27867,0.60308 -1.66778,0 -3.17922,-0.23453 -4.28859,-0.60308 a 4.9475178,4.9475178 0 0 1 -1.20121,-0.56586 v 2.50665 z"
       id="path11-3-0"
       style="stroke-width:0.124091" />
    <rect
       style="fill:#000000;fill-opacity:0;fill-rule:evenodd;stroke:#000000;stroke-width:0.89859;stroke-miterlimit:4;stroke-dasharray:none;stroke-opacity:1"
       id="rect55-7-3"
       width="46.763165"
       height="32.575813"
       x="71.874969"
       y="116.18414" />
    <path
       d="m 159.73404,128.08391 c 1.02499,0.34249 2.45204,0.55345 4.03668,0.55345 1.58465,0 3.01543,-0.20476 4.04042,-0.55345 0.89967,-0.3003 1.45559,-0.66389 1.45559,-1.02003 0,-0.35614 -0.55592,-0.71849 -1.45559,-1.01879 -1.02499,-0.34249 -2.45204,-0.55469 -4.03669,-0.55469 -1.58465,0 -3.0117,0.2122 -4.04041,0.55469 -1.90481,0.63659 -1.95816,1.38361 0,2.03882 z m 7.69366,8.74843 a 0.62045625,0.62045625 0 1 1 -0.61301,0.62045 0.61301078,0.61301078 0 0 1 0.61301,-0.62045 z m 0,-3.47456 a 0.61425168,0.61425168 0 1 1 -0.61301,0.62046 0.61301078,0.61301078 0 0 1 0.61301,-0.62046 z m 0,-3.61477 a 0.61425168,0.61425168 0 1 1 -0.61301,0.61425 0.61301078,0.61301078 0 0 1 0.61301,-0.61053 z m 1.83655,5.5841 a 4.8953995,4.8953995 0 0 1 -1.21113,0.5733 c -1.09945,0.37228 -2.61088,0.59812 -4.27867,0.59812 -1.66778,0 -3.17922,-0.22584 -4.28859,-0.5944 a 4.9475178,4.9475178 0 0 1 -1.20121,-0.56461 v 2.33788 c 0.0707,0.33256 0.61053,0.66637 1.44815,0.94557 1.02499,0.3425 2.45204,0.55469 4.03669,0.55469 1.58464,0 3.01169,-0.21219 4.03668,-0.55469 0.62046,-0.20723 1.07836,-0.44424 1.30173,-0.6887 0.18489,-0.20227 0.15635,-0.33505 0.15635,-0.57578 v -2.02765 z m -11.76386,-8.25951 c 0,-0.73213 0.76069,-1.35011 1.98547,-1.76086 1.10937,-0.36855 2.62453,-0.59688 4.28859,-0.59688 1.66406,0 3.17922,0.22833 4.28363,0.59688 1.10442,0.36856 1.85145,0.91953 1.97554,1.56356 a 0.38592378,0.38592378 0 0 1 0.0223,0.13153 v 10.76367 c 0,0.74455 -1.42581,1.40596 -1.99414,1.59581 -1.10442,0.37228 -2.61958,0.59688 -4.28364,0.59688 -1.66406,0 -3.18294,-0.23329 -4.29232,-0.59688 -0.58198,-0.19358 -1.98546,-0.83265 -1.98546,-1.59581 v -0.24818 q 0.009,-5.22672 0,-10.44972 z m 0.78923,7.15262 c 0.0707,0.33257 0.61053,0.66513 1.44442,0.94557 1.02499,0.34249 2.45204,0.55469 4.03668,0.55469 1.58465,0 3.01543,-0.21468 4.04042,-0.55469 0.89967,-0.3003 1.45559,-0.66389 1.45559,-1.01879 v 0 -2.27334 a 4.9375908,4.9375908 0 0 1 -1.21361,0.5733 c -1.10441,0.37227 -2.61957,0.59688 -4.28363,0.59688 -1.66407,0 -3.17426,-0.22834 -4.28363,-0.59688 a 4.9475178,4.9475178 0 0 1 -1.19624,-0.56462 z m 0,-3.45718 c 0.0707,0.33256 0.61053,0.66637 1.44815,0.94557 1.02498,0.34249 2.45203,0.55469 4.03668,0.55469 1.58465,0 3.0117,-0.2122 4.03669,-0.55469 0.89967,-0.3003 1.45559,-0.66389 1.45559,-1.01879 v 0 -2.44087 a 4.9822637,4.9822637 0 0 1 -1.21361,0.5733 c -1.09945,0.36855 -2.61088,0.60309 -4.27867,0.60309 -1.66778,0 -3.17922,-0.23454 -4.28859,-0.60309 a 4.9475178,4.9475178 0 0 1 -1.20121,-0.56586 v 2.50665 z"
       id="path11-3-5-6"
       style="stroke-width:0.124091" />
    <rect
       style="fill:#000000;fill-opacity:0;fill-rule:evenodd;stroke:#000000;stroke-width:0.89859;stroke-miterlimit:4;stroke-dasharray:none;stroke-opacity:1"
       id="rect55-7-5-6"
       width="46.763165"
       height="32.575813"
       x="127.22002"
       y="116.18414" />
    <path
       d="m 215.07908,128.08387 c 1.02499,0.34249 2.45204,0.55345 4.03668,0.55345 1.58465,0 3.01543,-0.20476 4.04042,-0.55345 0.89967,-0.3003 1.45559,-0.66389 1.45559,-1.02003 0,-0.35614 -0.55592,-0.71849 -1.45559,-1.01879 -1.02499,-0.34249 -2.45204,-0.55468 -4.03669,-0.55468 -1.58465,0 -3.0117,0.21219 -4.04041,0.55468 -1.90481,0.63659 -1.95816,1.38361 0,2.03882 z m 7.69366,8.74843 a 0.62045625,0.62045625 0 1 1 -0.61301,0.62045 0.61301078,0.61301078 0 0 1 0.61301,-0.62045 z m 0,-3.47456 a 0.61425168,0.61425168 0 1 1 -0.61301,0.62046 0.61301078,0.61301078 0 0 1 0.61301,-0.62046 z m 0,-3.61477 a 0.61425168,0.61425168 0 1 1 -0.61301,0.61426 0.61301078,0.61301078 0 0 1 0.61301,-0.61054 z m 1.83655,5.58411 a 4.8953995,4.8953995 0 0 1 -1.21113,0.5733 c -1.09945,0.37227 -2.61088,0.59811 -4.27867,0.59811 -1.66778,0 -3.17922,-0.22584 -4.28859,-0.59439 a 4.9475178,4.9475178 0 0 1 -1.20121,-0.56461 v 2.33787 c 0.0707,0.33256 0.61053,0.66637 1.44815,0.94557 1.02499,0.3425 2.45204,0.55469 4.03669,0.55469 1.58464,0 3.01169,-0.21219 4.03668,-0.55469 0.62046,-0.20723 1.07836,-0.44424 1.30173,-0.6887 0.18489,-0.20227 0.15635,-0.33505 0.15635,-0.57578 v -2.02764 z m -11.76386,-8.25952 c 0,-0.73213 0.76069,-1.35011 1.98547,-1.76085 1.10937,-0.36855 2.62453,-0.59688 4.28859,-0.59688 1.66406,0 3.17922,0.22833 4.28363,0.59688 1.10442,0.36855 1.85145,0.91952 1.97554,1.56355 a 0.38592378,0.38592378 0 0 1 0.0223,0.13153 v 10.76367 c 0,0.74455 -1.42581,1.40596 -1.99414,1.59581 -1.10442,0.37228 -2.61958,0.59688 -4.28364,0.59688 -1.66406,0 -3.18294,-0.23329 -4.29232,-0.59688 -0.58198,-0.19358 -1.98546,-0.83265 -1.98546,-1.59581 v -0.24818 q 0.009,-5.22672 0,-10.44972 z m 0.78923,7.15262 c 0.0707,0.33257 0.61053,0.66513 1.44442,0.94558 1.02499,0.34249 2.45204,0.55469 4.03668,0.55469 1.58465,0 3.01543,-0.21468 4.04042,-0.55469 0.89967,-0.30031 1.45559,-0.6639 1.45559,-1.0188 v 0 -2.27334 a 4.9375908,4.9375908 0 0 1 -1.21361,0.5733 c -1.10441,0.37227 -2.61957,0.59688 -4.28363,0.59688 -1.66407,0 -3.17426,-0.22834 -4.28363,-0.59688 a 4.9475178,4.9475178 0 0 1 -1.19624,-0.56462 z m 0,-3.45717 c 0.0707,0.33255 0.61053,0.66636 1.44815,0.94556 1.02498,0.34249 2.45203,0.55469 4.03668,0.55469 1.58465,0 3.0117,-0.2122 4.03669,-0.55469 0.89967,-0.3003 1.45559,-0.66389 1.45559,-1.01878 v 0 -2.44088 a 4.9822637,4.9822637 0 0 1 -1.21361,0.5733 c -1.09945,0.36855 -2.61088,0.60309 -4.27867,0.60309 -1.66778,0 -3.17922,-0.23454 -4.28859,-0.60309 a 4.9475178,4.9475178 0 0 1 -1.20121,-0.56586 v 2.50666 z"
       id="path11-3-5-1-2"
       style="stroke-width:0.124091" />
    <rect
       style="fill:#000000;fill-opacity:0;fill-rule:evenodd;stroke:#000000;stroke-width:0.89859;stroke-miterlimit:4;stroke-dasharray:none;stroke-opacity:1"
       id="rect55-7-5-7-1"
       width="46.763165"
       height="32.575813"
       x="182.56508"
       y="116.18411" />
    <path
       d="m 196.66405,137.37111 h 2.54404 c 0.12132,0 0.21944,0.0969 0.21944,0.21682 v 3.76349 c 2.98471,0 5.96941,0 8.9559,0 v -12.52968 h -5.43598 v 12.52968 h -0.5138 v -17.929 h -9.03619 v 17.92723 h -0.5138 v -12.52791 h -5.39494 v 12.52968 h 8.9559 v -3.76349 c 0,-0.11987 0.0981,-0.21682 0.21943,-0.21682 z m 0.74573,-12.85402 h 1.0508 c 0.19625,0 0.35681,0.15865 0.35681,0.35255 v 1.5477 h 1.56639 c 0.19624,0 0.3568,0.15865 0.3568,0.35255 v 1.03826 c 0,0.19391 -0.16056,0.35256 -0.3568,0.35256 h -1.56639 v 1.5477 c 0,0.1939 -0.16056,0.35255 -0.35681,0.35255 h -1.0508 c -0.19625,0 -0.35681,-0.15865 -0.35681,-0.35255 v -1.5477 h -1.56639 c -0.19625,0 -0.3568,-0.15865 -0.3568,-0.35256 v -1.03826 c 0,-0.1939 0.16055,-0.35255 0.3568,-0.35255 h 1.56639 v -1.5477 c 0,-0.1939 0.16056,-0.35255 0.35681,-0.35255 z m -10.17797,17.342 c -0.14272,0 -0.2569,-0.11458 -0.2569,-0.25384 v -12.91924 c 0,-0.20624 0.16948,-0.37194 0.37821,-0.37194 h 5.53054 v -4.95334 c 0,-0.12164 0.0499,-0.23269 0.13202,-0.31378 0,-0.0617 0.25512,-0.13221 0.31935,-0.13221 h 9.16106 c 0.12488,0 0.23727,0.0494 0.31934,0.13045 0.0839,0.0934 0.13202,0.18685 0.13202,0.31554 v 4.95158 h 5.56979 c 0.20694,0 0.37821,0.16922 0.37821,0.3737 v 12.91924 c 0,0.14103 -0.11596,0.25384 -0.2569,0.25384 -7.13439,0 -14.27057,0 -21.40674,0 z m 9.65168,-0.50767 h 2.10517 v -3.54668 h -2.10517 z m 7.4234,-5.9211 h 2.83663 c 0.0232,0 0.0428,0.0141 0.0428,0.0299 v 0.8285 c 0,0.0158 -0.0196,0.0317 -0.0428,0.0317 h -2.83663 c -0.0232,0 -0.0428,-0.0141 -0.0428,-0.0317 v -0.8285 c 0,-0.0158 0.0196,-0.0299 0.0428,-0.0299 z m -15.59968,0 h 2.83663 c 0.0232,0 0.0428,0.0141 0.0428,0.0299 v 0.8285 c 0,0.0158 -0.0196,0.0317 -0.0428,0.0317 h -2.83663 c -0.0232,0 -0.0428,-0.0141 -0.0428,-0.0317 v -0.8285 c 0,-0.0158 0.0196,-0.0299 0.0428,-0.0299 z m 15.59968,-1.81035 h 2.83663 c 0.0232,0 0.0428,0.0141 0.0428,0.0316 v 0.82849 c 0,0.0177 -0.0196,0.0299 -0.0428,0.0299 h -2.83663 c -0.0232,0 -0.0428,-0.014 -0.0428,-0.0299 v -0.82849 c 0,-0.0194 0.0196,-0.0316 0.0428,-0.0316 z m 0,-1.81212 h 2.83663 c 0.0232,0 0.0428,0.0141 0.0428,0.0317 v 0.82849 c 0,0.0158 -0.0196,0.03 -0.0428,0.03 h -2.83663 c -0.0232,0 -0.0428,-0.0141 -0.0428,-0.03 v -0.82849 c 0,-0.0176 0.0196,-0.0317 0.0428,-0.0317 z m -15.59968,1.81212 h 2.83663 c 0.0232,0 0.0428,0.0141 0.0428,0.0316 v 0.82849 c 0,0.0177 -0.0196,0.0299 -0.0428,0.0299 h -2.83663 c -0.0232,0 -0.0428,-0.014 -0.0428,-0.0299 v -0.82849 c 0,-0.0194 0.0196,-0.0316 0.0428,-0.0316 z m 0,-1.81212 h 2.83663 c 0.0232,0 0.0428,0.0141 0.0428,0.0317 v 0.82849 c 0,0.0158 -0.0196,0.03 -0.0428,0.03 h -2.83663 c -0.0232,0 -0.0428,-0.0141 -0.0428,-0.03 v -0.82849 c 0,-0.0176 0.0196,-0.0317 0.0428,-0.0317 z m 11.05393,2.7922 h 1.51466 c 0.0232,0 0.0428,0.0194 0.0428,0.0423 v 1.49658 c 0,0.0228 -0.0196,0.0423 -0.0428,0.0423 h -1.51466 c -0.0232,0 -0.0428,-0.0194 -0.0428,-0.0423 v -1.49658 c 0,-0.0246 0.0196,-0.0423 0.0428,-0.0423 z m -2.60291,0 h 1.51465 c 0.0232,0 0.0428,0.0194 0.0428,0.0423 v 1.49658 c 0,0.0228 -0.0196,0.0423 -0.0428,0.0423 h -1.51465 c -0.0232,0 -0.0428,-0.0194 -0.0428,-0.0423 v -1.49658 c 0,-0.0246 0.0196,-0.0423 0.0428,-0.0423 z m -2.60292,0 h 1.51466 c 0.025,0 0.0428,0.0194 0.0428,0.0423 v 1.49658 c 0,0.0228 -0.0196,0.0423 -0.0428,0.0423 h -1.51466 c -0.0232,0 -0.0428,-0.0194 -0.0428,-0.0423 v -1.49658 c 0,-0.0246 0.0196,-0.0423 0.0428,-0.0423 z m 5.20583,-2.90501 h 1.51466 c 0.0232,0 0.0428,0.0194 0.0428,0.0423 v 1.49658 c 0,0.0229 -0.0196,0.0423 -0.0428,0.0423 h -1.51466 c -0.0232,0 -0.0428,-0.0194 -0.0428,-0.0423 v -1.49658 c 0,-0.0229 0.0196,-0.0423 0.0428,-0.0423 z m -2.60291,0 h 1.51465 c 0.0232,0 0.0428,0.0194 0.0428,0.0423 v 1.49658 c 0,0.0229 -0.0196,0.0423 -0.0428,0.0423 h -1.51465 c -0.0232,0 -0.0428,-0.0194 -0.0428,-0.0423 v -1.49658 c 0,-0.0229 0.0196,-0.0423 0.0428,-0.0423 z m -2.60292,0 h 1.51466 c 0.025,0 0.0428,0.0194 0.0428,0.0423 v 1.49658 c 0,0.0229 -0.0196,0.0423 -0.0428,0.0423 h -1.51466 c -0.0232,0 -0.0428,-0.0194 -0.0428,-0.0423 v -1.49658 c 0,-0.0229 0.0196,-0.0423 0.0428,-0.0423 z"
       id="path2003"
       style="stroke-width:0.177336" />
    <path
       class="st0"
       d="m 142.72727,119.28984 c 1.93556,-1.3371 2.08018,1.3104 3.98014,-0.34484 v 2.70089 c -1.81097,1.63078 -2.20253,-1.00338 -3.98014,0.33373 z m -0.86989,7.49754 h 0.33817 c 0.0623,0 0.11124,0.0512 0.11124,0.11124 v 1.29928 h 1.18581 c 0.0623,0 0.11124,0.0512 0.11124,0.11124 v 0.33817 c 0,0.0623 -0.0512,0.11124 -0.11124,0.11124 h -1.74869 v -1.86215 c 0,-0.0579 0.0512,-0.10902 0.11347,-0.10902 z m 0.38266,-1.52176 c 1.52398,0 2.75874,1.23477 2.75874,2.75875 0,1.52398 -1.23476,2.75874 -2.75874,2.75874 -1.52398,0 -2.75874,-1.23476 -2.75874,-2.75874 0,-1.52176 1.23476,-2.75875 2.75874,-2.75875 z m 0.37821,9.24846 v 8.95922 h 2.72537 v -8.95922 z m -0.75642,8.95922 v -8.95922 h -2.72537 v 0 8.95922 z m 11.76246,2.41167 v -15.79378 h -5.99804 v -3.82441 l -5.17263,-3.33273 v -3.69315 h -0.0178 c 0.10902,-0.0623 0.18021,-0.18243 0.18021,-0.31815 0,-0.20468 -0.16463,-0.36932 -0.36931,-0.36932 -0.20469,0 -0.36932,0.16464 -0.36932,0.36932 0,0.13572 0.0734,0.25363 0.18021,0.31815 h -0.0178 v 3.68647 l -5.18375,3.33941 v 3.82441 h -4.39174 -1.60853 v 15.80046 c 7.59099,0 15.17752,-0.007 22.7685,-0.007 z m -20.32345,-11.37089 h 3.00123 v 1.16801 h -3.00123 z m 14.87494,0 h 3.00124 v 1.16801 h -3.00124 z m -14.87494,2.57853 h 3.00123 v 1.16801 h -3.00123 z m 14.87494,0 h 3.00124 v 1.16801 h -3.00124 z m -14.87494,2.57853 h 3.00123 v 1.16801 h -3.00123 z m 14.87494,0 h 3.00124 v 1.16801 h -3.00124 z m -14.87494,2.57853 h 3.00123 v 1.16802 h -3.00123 z m 14.87494,0 h 3.00124 v 1.16802 h -3.00124 z"
       id="path2496"
       style="stroke-width:0.222479" />
    <g
       style="clip-rule:evenodd;fill-rule:evenodd;image-rendering:optimizeQuality;shape-rendering:geometricPrecision;text-rendering:geometricPrecision"
       id="g2517"
       transform="matrix(0.0448488,0,0,0.0448488,76.402652,122.00759)">
      <path
         d="M 11.18,166.57 246.07,0 482.17,166.57 Z m 414.96,156.44 -5.39,-24.71 c 23.12,4.31 60.2,51.38 72.19,72.78 6.12,10.92 11.48,22.96 15.86,36.41 8.75,32.55 0.33,63 -34.99,70.09 -22.13,4.46 -63.4,4.77 -86.66,3.56 -25.03,-1.28 -63.74,-1.25 -73.86,-26.94 -16.31,-41.46 13.58,-90.85 40.85,-121.09 3.6,-3.98 7.32,-7.68 11.14,-11.11 9.92,-8.72 20.62,-19.08 33.39,-23.38 l -12.34,22.96 17.92,-23.75 h 9.42 z m -11.53,19.59 v 6.95 c 4.58,0.49 8.52,1.43 11.79,2.83 3.29,1.42 6.14,3.55 8.59,6.43 1.93,2.19 3.42,4.44 4.47,6.74 1.05,2.33 1.58,4.43 1.58,6.36 0,2.15 -0.79,4.02 -2.35,5.57 -1.57,1.56 -3.46,2.35 -5.69,2.35 -4.21,0 -6.95,-2.28 -8.18,-6.82 -1.43,-5.35 -4.83,-8.92 -10.21,-10.68 v 26.72 c 5.3,1.45 9.55,2.79 12.69,3.99 3.15,1.19 5.98,2.92 8.46,5.2 2.65,2.35 4.71,5.17 6.16,8.44 1.42,3.29 2.14,6.86 2.14,10.76 0,4.89 -1.13,9.45 -3.43,13.7 -2.31,4.28 -5.68,7.74 -10.13,10.46 -4.48,2.7 -9.76,4.3 -15.89,4.8 v 16 c 0,2.52 -0.25,4.37 -0.75,5.53 -0.49,1.16 -1.56,1.73 -3.25,1.73 -1.53,0 -2.6,-0.46 -3.24,-1.4 -0.62,-0.95 -0.92,-2.42 -0.92,-4.39 v -17.34 c -5,-0.54 -9.38,-1.73 -13.13,-3.53 -3.75,-1.79 -6.89,-4.03 -9.39,-6.71 -2.49,-2.69 -4.36,-5.48 -5.54,-8.35 -1.21,-2.89 -1.8,-5.74 -1.8,-8.53 0,-2.03 0.79,-3.9 2.41,-5.54 1.6,-1.64 3.6,-2.48 5.99,-2.48 1.93,0 3.55,0.44 4.88,1.34 1.32,0.9 2.24,2.17 2.77,3.79 1.14,3.51 2.15,6.21 3,8.07 0.88,1.86 2.17,3.57 3.9,5.11 1.73,1.53 4.04,2.71 6.91,3.53 v -29.86 c -5.75,-1.6 -10.53,-3.35 -14.38,-5.3 -3.86,-1.96 -7,-4.72 -9.38,-8.31 -2.39,-3.6 -3.6,-8.22 -3.6,-13.88 0,-7.36 2.35,-13.41 7.04,-18.11 4.69,-4.71 11.46,-7.45 20.32,-8.22 v -6.81 c 0,-3.6 1.36,-5.4 4.05,-5.4 2.75,0 4.11,1.76 4.11,5.26 z m -8.16,44.07 v -24.6 c -3.6,1.08 -6.4,2.48 -8.42,4.23 -2.02,1.75 -3.03,4.43 -3.03,7.98 0,3.37 0.95,5.94 2.83,7.67 1.89,1.74 4.76,3.31 8.62,4.72 z m 8.16,19.07 v 28.14 c 4.31,-0.85 7.65,-2.58 10.01,-5.19 2.35,-2.63 3.53,-5.66 3.53,-9.14 0,-3.73 -1.14,-6.6 -3.44,-8.64 -2.28,-2.04 -5.66,-3.77 -10.1,-5.17 z M 391.15,262.99 c -4.08,-12.02 -7.76,-24.2 -10.85,-36.56 11.55,-12.68 56.24,-10.99 69.08,-0.19 l -11.89,28.28 c 6.4,-8.4 8.55,-11.85 12.37,-16.54 1.59,1.05 3.11,2.23 4.53,3.52 3.38,3.07 6.4,6.45 7.02,11.16 0.39,3.06 -0.49,6.18 -3.2,9.35 L 430.9,293.8 c -3.5,-0.58 -6.94,-1.41 -10.27,-2.6 1.55,-3.64 3.42,-7.65 4.96,-11.29 l -9.94,10.73 c -10.34,-2.19 -18.67,-0.89 -26.43,3.22 l -27.68,-33.23 c -1.64,-1.97 -2.38,-3.96 -2.38,-5.93 0.03,-8.04 11.99,-14.96 18.27,-17.59 z M 0,409.64 h 27.32 v -25.35 h 14.33 v -12.1 H 57.07 V 227.09 H 25.55 v -34.77 h 367.39 c -12.5,2.38 -23.86,7.12 -31.36,14.51 a 27.239,27.239 0 0 0 -7.33,12.15 c -3.14,2.06 -6.26,4.46 -9.03,7.12 l -1,0.99 h -15.8 v 94.31 c -15.65,18.55 -31.3,42.46 -39.91,67.98 -5.15,15.26 -7.82,31.07 -6.71,46.81 H 0 Z M 433.74,192.32 h 32.81 v 13.07 c -7.58,-6.27 -19.7,-10.74 -32.81,-13.07 z M 130.53,384.29 h 17.78 v -12.1 h 15.42 v -145.1 h -48.62 v 145.1 h 15.42 z m 106.65,0 H 255 v -12.1 h 15.38 v -145.1 h -48.62 v 145.1 h 15.42 z m -70.21,-259.73 79.46,-60.96 79.9,60.96 z"
         id="path2508" />
    </g>
    <path
       class="st0"
       d="m 191.86525,80.845883 h 8.06764 c 0.95155,0 1.73081,0.77926 1.73081,1.72923 v 15.96298 c 0,0.95155 -0.77926,1.729227 -1.72923,1.729227 h -8.06764 c -0.95155,0.002 -1.73081,-0.777677 -1.73081,-1.727647 v -15.96298 c 0,-0.95155 0.77926,-1.73081 1.72923,-1.73081 z m 4.03382,15.8223 c 0.61803,0 1.12068,0.50107 1.12068,1.12068 0,0.61803 -0.50265,1.12068 -1.12068,1.12068 -0.61962,0 -1.12068,-0.50106 -1.12068,-1.12068 0,-0.61803 0.50265,-1.12068 1.12068,-1.12068 z m -1.78456,-14.42184 h 3.57069 c 0.0253,0 0.0474,0.0221 0.0474,0.0474 v 0.52162 c 0,0.0253 -0.0221,0.0474 -0.0474,0.0474 h -3.57069 c 0,0 0,0 0,0 -0.0253,0 -0.0474,-0.0206 -0.0474,-0.0474 v 0 -0.52162 c 0,0 0,0 0,0 0,-0.0269 0.0206,-0.0474 0.0474,-0.0474 z m -2.45316,2.00268 h 8.47702 c 0.15491,0 0.28136,0.12803 0.28136,0.28135 v 11.06613 c 0,0.15333 -0.12804,0.28136 -0.28136,0.28136 h -8.47702 c -0.15333,0 -0.28136,-0.12646 -0.28136,-0.28136 v -11.06771 c 0,-0.15332 0.12645,-0.27977 0.28136,-0.27977 z"
       id="path2521"
       style="stroke-width:0.158065" />
    <path
       class="st0"
       d="m 134.97454,84.102629 h 15.30897 c 1.0009,0 0.94676,0.40529 0.85979,1.43901 l -0.56937,7.2574 c -0.0968,1.15679 -0.0148,0.87621 -1.24047,1.05178 l -11.25938,1.43244 0.59561,1.7278 c 4.88476,0 7.24592,0 12.1274,0 0.16408,0.61367 0.38723,1.61294 0.55132,2.29717 h -2.01495 l -0.19361,-0.699 c -4.06927,0 -5.61985,0 -9.69076,0 -2.22333,-0.0377 -2.00018,0.56445 -2.53344,-1.35697 l -3.81986,-13.88636 h -1.83445 v -1.33072 h 3.21767 c 0.14932,0.55953 0.35606,1.50136 0.49553,2.06745 z m 5.09643,14.98408 c 0.85815,0 1.55551,0.69736 1.55551,1.555511 0,0.8598 -0.69572,1.55551 -1.55551,1.55551 -0.8598,0 -1.55551,-0.69571 -1.55551,-1.55551 0,-0.858151 0.69571,-1.555511 1.55551,-1.555511 z m 6.41565,0 c 0.85815,0 1.55551,0.69736 1.55551,1.555511 0,0.8598 -0.69736,1.55551 -1.55551,1.55551 -0.85979,0 -1.55551,-0.69571 -1.55551,-1.55551 0,-0.858151 0.69572,-1.555511 1.55551,-1.555511 z m -10.17152,-9.98446 h 2.47766 l -0.89918,-3.75915 c -0.88605,0 -1.75897,-0.002 -2.61385,-0.002 l 0.30192,1.12562 0.01,-0.002 z m 2.8731,-3.75751 0.89917,3.75751 h 2.38578 l -0.90246,-3.75423 z m 3.68039,0.005 0.90245,3.75259 h 2.2824 l -0.89917,-3.7493 z m 3.58357,0.005 0.89918,3.7493 h 2.28404 l 0.25269,-3.01258 c 0.0705,-0.8401 0.21823,-0.73344 -0.59562,-0.73344 -0.92871,-0.002 -1.87876,-0.003 -2.84029,-0.003 z m 3.10282,4.70262 h -1.97556 l 0.6514,2.71722 0.16081,-0.0213 c 0.99598,-0.14276 0.93035,0.0853 1.00911,-0.85488 z m -2.57939,2.88951 -0.69243,-2.88951 h -2.28076 l 0.76627,3.18978 z m -3.4638,0.47092 -0.80893,-3.36207 h -2.38741 l 0.88113,3.67711 z m -3.57045,0.48732 -0.92051,-3.84775 h -2.44319 l 1.14202,4.15131 z"
       id="path2535"
       style="stroke-width:0.164083" />
    <path
       class="st0"
       d="m 79.778937,78.464318 h 14.815098 c 0.34765,0 0.63023,0.2805 0.63023,0.62333 0,0.34284 -0.28444,0.62334 -0.63023,0.62334 H 79.778937 c -0.34765,0 -0.63023,-0.2805 -0.63023,-0.62334 -0.002,-0.34283 0.28258,-0.62333 0.63023,-0.62333 z m 18.220948,7.91452 v 0.75166 c 0.007,0.0715 0.0112,0.14301 0.0112,0.21451 0,1.26133 -1.19539,2.28434 -2.66965,2.28434 -1.47426,0 -2.66965,-1.02301 -2.66965,-2.28434 0,-0.0531 0.002,-0.10817 0.006,-0.16134 h -0.10597 c 0.004,0.0532 0.006,0.10634 0.006,0.16134 0,1.26133 -1.195388,2.28434 -2.669648,2.28434 -1.47427,0 -2.66966,-1.02301 -2.66966,-2.28434 0,-0.0531 0.002,-0.10817 0.006,-0.16134 h -0.10597 c 0.004,0.0532 0.006,0.10634 0.006,0.16134 0,1.26133 -1.19539,2.28434 -2.66965,2.28434 -1.47426,0 -2.66965,-1.02301 -2.66965,-2.28434 0,-0.0531 0.002,-0.10817 0.006,-0.16134 h -0.0669 c 0.004,0.0532 0.006,0.10634 0.006,0.16134 0,1.26133 -1.1954,2.28434 -2.66966,2.28434 -1.47425,0 -2.66965,-1.02301 -2.66965,-2.28434 0,-0.0624 0.004,-0.12283 0.009,-0.18334 v -0.78283 z m -18.914378,-6.00052 h 16.293068 l 2.0766,4.37251 H 76.932677 Z m -2.50048,17.88788 h 2.25321 v -7.02169 c 0.0372,0.002 0.0744,0.003 0.11155,0.003 h 0.009 0.0427 0.007 0.006 0.0297 0.006 0.026 v 0.006 h 0.002 v -0.006 c 1.01879,0 1.96135,-0.32083 2.69569,-0.8525 l 0.006,0.003 0.006,0.003 0.006,0.003 0.006,0.003 0.006,0.003 0.006,0.003 0.002,0.002 0.004,0.002 0.006,0.003 0.006,0.003 0.006,0.003 h 0.002 l 0.0186,0.0128 v 0 l 0.006,0.003 0.002,0.002 0.009,0.006 0.006,0.003 0.006,0.003 0.002,0.002 0.004,0.002 0.006,0.003 0.006,0.003 0.006,0.003 0.004,0.011 0.006,0.003 0.004,0.003 v 0 l 0.006,0.003 0.006,0.003 0.006,0.003 0.006,0.003 0.006,0.003 0.006,0.003 h 0.002 l 0.0427,0.0275 0.006,0.003 0.006,0.003 0.0334,0.022 0.006,0.003 0.0409,0.0238 0.007,0.002 0.006,0.003 0.006,0.003 0.006,0.003 0.006,0.003 0.006,0.003 0.006,0.003 0.006,0.003 v 4.60168 h 9.92376 v -4.49718 c 0.15988,-0.0825 0.31604,-0.176 0.462908,-0.27683 l 0.004,-0.003 h 0.002 l 0.0297,-0.0202 0.002,-0.002 0.009,-0.006 0.009,-0.006 v 0 l 0.0149,-0.011 h 0.002 l 0.002,-0.002 0.0316,-0.022 c 0.73807,0.54084 1.68806,0.86717 2.71614,0.86717 v 0.006 h 0.002 v -0.006 h 0.006 v 7.01619 h 2.25322 c 0.34765,0 0.63209,0.61233 0.63209,1.36217 0,0.749832 -0.28444,1.362172 -0.63209,1.362172 H 76.600577 c -0.34579,-9e-5 -0.63023,-0.61243 -0.63023,-1.362262 0,-0.75167 0.28444,-1.36584 0.63023,-1.36584 z"
       id="path2549"
       style="stroke-width:0.184617" />
  </g>
  <style
     type="text/css"
     id="style19">.st0{fill-rule:evenodd;clip-rule:evenodd;}</style>
  <style
     type="text/css"
     id="style2494"><![CDATA[
	.st0{fill-rule:evenodd;clip-rule:evenodd;}
]]></style>
  <style
     type="text/css"
     id="style2519">.st0{fill-rule:evenodd;clip-rule:evenodd;}</style>
  <style
     type="text/css"
     id="style2533">.st0{fill-rule:evenodd;clip-rule:evenodd;}</style>
  <style
     type="text/css"
     id="style2547">.st0{fill-rule:evenodd;clip-rule:evenodd;}</style>
</svg>
