<?xml version="1.0" encoding="utf-8"?><svg version="1.1" id="Layer_1" xmlns="http://www.w3.org/2000/svg" xmlns:xlink="http://www.w3.org/1999/xlink" x="0px" y="0px" viewBox="0 0 119.93 122.88" style="enable-background:new 0 0 119.93 122.88" xml:space="preserve"><style type="text/css">.st0{fill-rule:evenodd;clip-rule:evenodd;}</style><g><path class="st0" d="M37.65,54.16v14.6c0,1.07-0.74,1.99-1.7,2.29c-7.15,2.8-12.16,6.38-15.3,10.32c-2.14,2.65-3.39,5.49-3.83,8.33 c-0.44,2.8-0.11,5.68,1,8.44c1.4,3.58,4.02,7,7.67,9.92c8.88,7.08,21.89,10.28,34.87,10.03c13.34-0.29,26.54-4.28,34.91-11.54 c2.73-2.36,4.83-4.98,6.16-7.7c1.33-2.73,1.88-5.64,1.44-8.55c-0.44-2.95-1.84-5.97-4.46-8.99c-3.13-3.61-7.89-7.11-14.63-10.36 c-0.85-0.41-1.36-1.25-1.36-2.17V53.42c0-4.57-0.7-8.96-2.69-12.2c-1.84-3.06-4.98-5.16-9.88-5.57c-2.47-0.18-7.45-0.26-12.13-0.15 c-3.98,0.07-7.7,0.26-9.29,0.59c-4.57,0.88-7.22,3.17-8.74,6.19c-1.62,3.28-2.03,7.48-2.03,11.83L37.65,54.16L37.65,54.16z M76.5,43.21c0.63,0.81,0.48,1.99-0.33,2.62c-0.81,0.63-1.99,0.48-2.62-0.33c-0.48-0.63-1.03-1.14-1.7-1.55 c-0.66-0.41-1.44-0.7-2.32-0.92c-1-0.22-1.66-1.22-1.44-2.21c0.22-1,1.22-1.66,2.21-1.44c1.29,0.29,2.47,0.74,3.5,1.36 c1.07,0.66,1.95,1.47,2.73,2.43L76.5,43.21L76.5,43.21z M46.35,45.49c-0.63,0.81-1.81,0.96-2.62,0.33 c-0.81-0.63-0.96-1.81-0.33-2.62c0.77-1,1.66-1.81,2.73-2.43c1.03-0.63,2.21-1.11,3.5-1.36c1-0.22,1.99,0.44,2.21,1.44 c0.22,0.99-0.44,1.99-1.44,2.21c-0.88,0.18-1.66,0.48-2.32,0.92c-0.66,0.41-1.22,0.92-1.7,1.55L46.35,45.49L46.35,45.49z M70.49,48.85c3.46,0,6.27,3.24,6.27,7.22s-2.8,7.22-6.27,7.22c-3.46,0-6.27-3.24-6.27-7.22S67.03,48.85,70.49,48.85L70.49,48.85z M70.27,53.82c1.73,0,3.13,1.4,3.13,3.13c0,1.73-1.4,3.13-3.13,3.13c-1.73,0-3.13-1.4-3.13-3.13 C67.14,55.22,68.54,53.82,70.27,53.82L70.27,53.82z M49.59,48.85c3.47,0,6.27,3.24,6.27,7.22s-2.8,7.22-6.27,7.22 c-3.46,0-6.27-3.24-6.27-7.22S46.13,48.85,49.59,48.85L49.59,48.85z M49.37,53.82c1.73,0,3.13,1.4,3.13,3.13 c0,1.73-1.4,3.13-3.13,3.13c-1.73,0-3.13-1.4-3.13-3.13C46.24,55.22,47.64,53.82,49.37,53.82L49.37,53.82z M59.88,100.12 c6.41,0,11.65,2.99,11.65,6.71c0,3.72-5.2,6.71-11.65,6.71c-6.41,0-11.65-2.99-11.65-6.71C48.23,103.11,53.42,100.12,59.88,100.12 L59.88,100.12z M59.62,72.44c7.89,0,14.3,3.83,14.3,8.59c0,4.76-6.41,8.59-14.3,8.59c-7.89,0-14.3-3.83-14.3-8.59 C45.32,76.27,51.73,72.44,59.62,72.44L59.62,72.44z M62.97,76.79c1.81,0,3.24,0.92,3.24,2.03c0,1.11-1.44,2.03-3.24,2.03 c-1.81,0-3.24-0.92-3.24-2.03C59.73,77.71,61.17,76.79,62.97,76.79L62.97,76.79z M72.08,31.16l2.8-5.2 c1.22-2.14,2.76-3.87,4.83-4.83c2.91-1.36,3.06-0.26,3.06-4.39l0-12.5c-0.07-5.42,8.11-5.6,8.26,0v12.5c-0.22,3.8,4.17,3.98,4.24,0 V4.14c0.85-5.9,7.59-5.12,8.26,0v12.61c-0.04,3.91,4.35,3.94,4.24,0V3.95c0.81-5.75,7.81-4.72,8.07,0v15.11 c2.91,1,5.9,4.68,2.76,7.45c-1.25,1.11-2.69,0.96-4.2,0.96H88.96c-5.49,0-5.82-0.44-8.4,4.76l-0.96,1.92 c1.73,1.25,3.1,2.84,4.2,4.61c2.51,4.13,3.39,9.33,3.39,14.71v13.86c6.63,3.39,11.5,7.08,14.82,10.87 c3.24,3.72,5.01,7.59,5.57,11.43c0.55,3.87-0.15,7.7-1.88,11.28c-1.62,3.32-4.13,6.45-7.34,9.25c-9.21,8-23.52,12.38-37.93,12.72 c-14.01,0.29-28.16-3.24-37.97-11.06c-4.35-3.46-7.48-7.59-9.18-11.94c-1.36-3.54-1.81-7.22-1.25-10.91 c0.59-3.65,2.14-7.22,4.83-10.58c3.43-4.31,8.7-8.18,15.96-11.24V54.16c0-4.94,0.52-9.88,2.54-13.97c1.14-2.32,2.76-4.31,4.94-5.86 l-0.92-1.84c-2.54-5.2-2.91-4.76-8.4-4.76l-25.43,0c-1.51,0-2.95,0.15-4.2-0.96c-3.13-2.76-0.18-6.45,2.76-7.45V4.21 c0.26-4.72,7.3-5.75,8.07,0V17c-0.11,3.94,4.24,3.91,4.24,0V4.4c0.7-5.12,7.41-5.9,8.26,0V17c0.07,3.98,4.42,3.8,4.24,0V4.51 c0.18-5.6,8.33-5.46,8.26,0V17c0,4.13,0.15,2.99,3.06,4.39c2.06,1,3.61,2.69,4.83,4.83l2.76,5.16c1.88-0.29,5.38-0.48,9.1-0.55 c-0.55-3.72-1.62-6.93-3.13-9.73c-1.66-3.13-3.87-5.75-6.45-8.07c-1.11-1-1.18-2.65-0.22-3.76c1-1.11,2.65-1.18,3.76-0.22 c3.02,2.69,5.6,5.79,7.59,9.51c0.52,1,1.03,2.03,1.47,3.1c1.58-2.76,3.76-4.9,6.41-6.52c1.25-0.77,2.87-0.37,3.65,0.85 c0.77,1.25,0.37,2.88-0.85,3.65c-1.92,1.18-3.5,2.73-4.64,4.72c-1,1.73-1.7,3.83-1.99,6.34c3.1,0,5.9,0.07,7.56,0.22 c0.63,0.04,1.25,0.11,1.81,0.22L72.08,31.16L72.08,31.16z"/></g></svg>