<?xml version="1.0" encoding="utf-8"?><svg version="1.1" id="Layer_1" xmlns="http://www.w3.org/2000/svg" xmlns:xlink="http://www.w3.org/1999/xlink" x="0px" y="0px" viewBox="0 0 90.18 122.88" style="enable-background:new 0 0 90.18 122.88" xml:space="preserve"><style type="text/css">.st0{fill-rule:evenodd;clip-rule:evenodd;}</style><g><path class="st0" d="M45.48,46.08c21.21,0,38.4,17.19,38.4,38.4c0,21.21-17.19,38.4-38.4,38.4c-21.21,0-38.4-17.19-38.4-38.4 C7.08,63.27,24.27,46.08,45.48,46.08L45.48,46.08z M72.84,52.24c-0.72-0.69-1.43-1.34-2.17-1.95c2.4-3.86,4.34-11.67,5.11-22.55 c-0.15-5.61-1.41-8.38-3.97-7.82c-7.69,1.68-8.39,16.59-7.64,26.65c-1.08-0.36-2.23-0.63-3.47-0.81 c-2.42-16.1-1.59-42.79,19.28-45.65c6.57-0.9,9.81,3.56,10.2,12.61C87.76,34.1,80.91,48.13,72.84,52.24L72.84,52.24z M17.33,52.89 c0.72-0.69,1.43-1.34,2.17-1.95c-2.4-3.86-4.34-11.67-5.11-22.55c0.15-5.61,1.41-8.38,3.97-7.82c7.69,1.68,8.39,16.59,7.64,26.65 c1.08-0.36,2.23-0.63,3.47-0.81C31.9,30.31,31.07,3.62,10.2,0.76C3.63-0.14,0.39,4.32,0,13.37C2.42,34.75,9.26,48.77,17.33,52.89 L17.33,52.89z M34.85,95.42c2.1,0,3.95,1.03,5.09,2.62c3.52-1.49,7.28-1.42,11.06-0.09c1.14-1.53,2.97-2.52,5.02-2.52 c3.46,0,6.26,2.8,6.26,6.26c0,3.46-2.8,6.26-6.26,6.26c-3.01,0-5.53-2.12-6.13-4.95c-3.43-1.15-6.3-1.03-8.96,0.13 c-0.65,2.77-3.13,4.83-6.1,4.83c-3.46,0-6.26-2.8-6.26-6.26C28.59,98.22,31.39,95.42,34.85,95.42L34.85,95.42z M59.51,91.74 c6.96,5.31,11.07,13.58,2.18,19.05c-5.37,3.3-10.94,0.55-15.84-4.59c-13.62,14.89-29.61-2.79-17.22-13.86 C37.8,84.17,50.01,84.51,59.51,91.74L59.51,91.74z M65.06,75.15c2.34,0,4.24,1.9,4.24,4.24c0,2.34-1.9,4.24-4.24,4.24 c-2.34,0-4.24-1.9-4.24-4.24C60.82,77.05,62.72,75.15,65.06,75.15L65.06,75.15z M25.9,75.15c2.34,0,4.24,1.9,4.24,4.24 c0,2.34-1.9,4.24-4.24,4.24c-2.34,0-4.24-1.9-4.24-4.24C21.66,77.05,23.55,75.15,25.9,75.15L25.9,75.15z"/></g></svg>