<?xml version="1.0" encoding="UTF-8" standalone="no"?>
<!-- Created with Inkscape (http://www.inkscape.org/) -->

<svg
   width="378.33957mm"
   height="204.01994mm"
   viewBox="0 0 378.33957 204.01994"
   version="1.1"
   id="svg3040"
   inkscape:version="1.1.2 (0a00cf5339, 2022-02-04)"
   sodipodi:docname="centralize-data.svg"
   xmlns:inkscape="http://www.inkscape.org/namespaces/inkscape"
   xmlns:sodipodi="http://sodipodi.sourceforge.net/DTD/sodipodi-0.dtd"
   xmlns="http://www.w3.org/2000/svg"
   xmlns:svg="http://www.w3.org/2000/svg">
  <sodipodi:namedview
     id="namedview3042"
     pagecolor="#ffffff"
     bordercolor="#666666"
     borderopacity="1.0"
     inkscape:pageshadow="2"
     inkscape:pageopacity="0.0"
     inkscape:pagecheckerboard="0"
     inkscape:document-units="mm"
     showgrid="false"
     showguides="true"
     inkscape:guide-bbox="true"
     inkscape:zoom="0.64052329"
     inkscape:cx="531.5966"
     inkscape:cy="462.90276"
     inkscape:window-width="1920"
     inkscape:window-height="1200"
     inkscape:window-x="0"
     inkscape:window-y="0"
     inkscape:window-maximized="1"
     inkscape:current-layer="layer1" />
  <defs
     id="defs3037">
    <marker
       style="overflow:visible"
       id="Arrow2Lend"
       refX="0"
       refY="0"
       orient="auto"
       inkscape:stockid="Arrow2Lend"
       inkscape:isstock="true">
      <path
         transform="matrix(-1.1,0,0,-1.1,-1.1,0)"
         d="M 8.7185878,4.0337352 -2.2072895,0.01601326 8.7185884,-4.0017078 c -1.7454984,2.3720609 -1.7354408,5.6174519 -6e-7,8.035443 z"
         style="fill:context-stroke;fill-rule:evenodd;stroke:context-stroke;stroke-width:0.625;stroke-linejoin:round"
         id="path3846" />
    </marker>
    <marker
       style="overflow:visible"
       id="Arrow1Lend"
       refX="0"
       refY="0"
       orient="auto"
       inkscape:stockid="Arrow1Lend"
       inkscape:isstock="true">
      <path
         transform="matrix(-0.8,0,0,-0.8,-10,0)"
         style="fill:context-stroke;fill-rule:evenodd;stroke:context-stroke;stroke-width:1pt"
         d="M 0,0 5,-5 -12.5,0 5,5 Z"
         id="path3828" />
    </marker>
  </defs>
  <g
     inkscape:label="Layer 1"
     inkscape:groupmode="layer"
     id="layer1"
     transform="translate(277.0591,45.719788)">
    <path
       d="m -157.67868,43.048915 c 2.77787,0.867134 6.64536,1.401239 10.93996,1.401239 4.29461,0 8.1722,-0.518404 10.95007,-1.401239 2.43821,-0.760314 3.94485,-1.680867 3.94485,-2.582571 0,-0.901685 -1.50664,-1.819089 -3.94485,-2.579403 -2.77787,-0.867151 -6.64536,-1.404406 -10.93997,-1.404406 -4.2946,0 -8.16211,0.537255 -10.95006,1.404406 -5.16227,1.611731 -5.30689,3.503091 0,5.161974 z m 20.85084,22.14967 a 1.6815208,1.5708988 0 1 1 -1.66134,1.570897 1.6613426,1.552048 0 0 1 1.66134,-1.570897 z m 0,-8.797035 a 1.6647055,1.5551898 0 1 1 -1.66134,1.570896 1.6613426,1.552048 0 0 1 1.66134,-1.570896 z m 0,-9.152051 a 1.6647055,1.5551898 0 1 1 -1.66134,1.555179 1.6613426,1.552048 0 0 1 1.66134,-1.545761 z m 4.97731,14.138084 a 13.267198,12.394391 0 0 1 -3.28234,1.451508 c -2.97963,0.942537 -7.07583,1.514344 -11.59575,1.514344 -4.51993,0 -8.61612,-0.571807 -11.62267,-1.504927 a 13.408446,12.526346 0 0 1 -3.25544,-1.429507 v 5.919154 c 0.1917,0.841983 1.65462,1.687134 3.92468,2.394029 2.77788,0.867151 6.64537,1.404389 10.93998,1.404389 4.2946,0 8.16208,-0.537238 10.93997,-1.404389 1.68152,-0.524671 2.92248,-1.124745 3.52783,-1.743687 0.50108,-0.512104 0.42374,-0.848284 0.42374,-1.457792 v -5.133689 z m -31.88163,-20.911804 c 0,-1.853659 2.06154,-3.418288 5.38087,-4.458229 3.00655,-0.933121 7.11283,-1.511223 11.62267,-1.511223 4.50982,0 8.61612,0.578102 11.60922,1.511223 2.9931,0.933121 5.01765,2.328093 5.35396,3.958675 a 1.0459059,0.97709903 0 0 1 0.0605,0.33303 v 27.251958 c 0,1.885076 -3.86414,3.55966 -5.40442,4.040346 -2.99311,0.942537 -7.09938,1.51121 -11.60921,1.51121 -4.50984,0 -8.6262,-0.590657 -11.63277,-1.51121 -1.57726,-0.49012 -5.38086,-2.108135 -5.38086,-4.040346 v -0.628358 q 0.0236,-13.233247 0,-26.457076 z m 2.1389,18.109325 c 0.19169,0.842 1.65461,1.684001 3.91458,2.394046 2.77787,0.867134 6.64536,1.404389 10.93996,1.404389 4.29461,0 8.1722,-0.543538 10.95007,-1.404389 2.43821,-0.760314 3.94485,-1.680868 3.94485,-2.579421 v 0 -5.755763 a 13.381542,12.501213 0 0 1 -3.28907,1.451508 c -2.9931,0.942537 -7.09936,1.51121 -11.6092,1.51121 -4.50984,0 -8.60267,-0.578106 -11.60922,-1.51121 a 13.408446,12.526346 0 0 1 -3.24197,-1.429524 z m 0,-8.753051 c 0.19169,0.842001 1.65461,1.687151 3.92467,2.394046 2.77786,0.867135 6.64537,1.40439 10.93997,1.40439 4.29461,0 8.1621,-0.537255 10.93997,-1.40439 2.43821,-0.760314 3.94485,-1.680867 3.94485,-2.57942 v 0 -6.179914 a 13.502612,12.614317 0 0 1 -3.28907,1.451508 c -2.97963,0.933121 -7.07583,1.526928 -11.59575,1.526928 -4.51993,0 -8.61612,-0.593807 -11.62267,-1.526928 a 13.408446,12.526346 0 0 1 -3.25544,-1.432657 v 6.346437 z"
       id="path11"
       style="stroke-width:0.325053" />
    <path
       d="m -137.21766,-33.370729 c 1.02499,0.342491 2.45204,0.553446 4.03668,0.553446 1.58465,0 3.01543,-0.204754 4.04042,-0.553446 0.89967,-0.300299 1.45559,-0.663889 1.45559,-1.020033 0,-0.356138 -0.55592,-0.718484 -1.45559,-1.018785 -1.02499,-0.342497 -2.45204,-0.554696 -4.03669,-0.554696 -1.58465,0 -3.0117,0.212199 -4.04041,0.554696 -1.90481,0.636584 -1.95816,1.383612 0,2.038818 z m 7.69366,8.748428 a 0.62045625,0.62045625 0 1 1 -0.61301,0.620455 0.61301078,0.61301078 0 0 1 0.61301,-0.620455 z m 0,-3.474554 a 0.61425168,0.61425168 0 1 1 -0.61301,0.620455 0.61301078,0.61301078 0 0 1 0.61301,-0.620455 z m 0,-3.614774 a 0.61425168,0.61425168 0 1 1 -0.61301,0.614248 0.61301078,0.61301078 0 0 1 0.61301,-0.610528 z m 1.83655,5.5841 a 4.8953995,4.8953995 0 0 1 -1.21113,0.573301 c -1.09945,0.372273 -2.61088,0.598119 -4.27867,0.598119 -1.66778,0 -3.17922,-0.225846 -4.28859,-0.5944 a 4.9475178,4.9475178 0 0 1 -1.20121,-0.564611 v 2.337882 c 0.0707,0.332558 0.61053,0.666364 1.44815,0.945566 1.02499,0.342498 2.45204,0.55469 4.03669,0.55469 1.58464,0 3.01169,-0.212192 4.03668,-0.55469 0.62046,-0.207229 1.07836,-0.444238 1.30173,-0.6887 0.18489,-0.202266 0.15635,-0.335046 0.15635,-0.575783 v -2.027648 z m -11.76386,-8.259507 c 0,-0.732137 0.76069,-1.350117 1.98547,-1.760862 1.10937,-0.368554 2.62453,-0.596881 4.28859,-0.596881 1.66406,0 3.17922,0.228327 4.28363,0.596881 1.10442,0.368554 1.85145,0.919524 1.97554,1.563554 a 0.38592378,0.38592378 0 0 1 0.0223,0.131536 v 10.763672 c 0,0.744544 -1.42581,1.405953 -1.99414,1.595809 -1.10442,0.372273 -2.61958,0.596881 -4.28364,0.596881 -1.66406,0 -3.18294,-0.233291 -4.29232,-0.596881 -0.58198,-0.193582 -1.98546,-0.832648 -1.98546,-1.595809 v -0.248182 q 0.009,-5.22672 0,-10.449718 z m 0.78923,7.152617 c 0.0707,0.332564 0.61053,0.665126 1.44442,0.945572 1.02499,0.342491 2.45204,0.55469 4.03668,0.55469 1.58465,0 3.01543,-0.214681 4.04042,-0.55469 0.89967,-0.3003 1.45559,-0.663889 1.45559,-1.018789 v 0 -2.273348 a 4.9375908,4.9375908 0 0 1 -1.21361,0.573301 c -1.10441,0.372273 -2.61957,0.596881 -4.28363,0.596881 -1.66407,0 -3.17426,-0.228334 -4.28363,-0.596881 a 4.9475178,4.9475178 0 0 1 -1.19624,-0.564618 z m 0,-3.457181 c 0.0707,0.332564 0.61053,0.66637 1.44815,0.945572 1.02498,0.342491 2.45203,0.55469 4.03668,0.55469 1.58465,0 3.0117,-0.212199 4.03669,-0.55469 0.89967,-0.300301 1.45559,-0.663889 1.45559,-1.018789 v 0 -2.440874 a 4.9822637,4.9822637 0 0 1 -1.21361,0.5733 c -1.09945,0.368554 -2.61088,0.603089 -4.27867,0.603089 -1.66778,0 -3.17922,-0.234535 -4.28859,-0.603089 a 4.9475178,4.9475178 0 0 1 -1.20121,-0.565855 v 2.506646 z"
       id="path11-3"
       style="stroke-width:0.124091" />
    <rect
       style="fill:#000000;fill-opacity:0;fill-rule:evenodd;stroke:#000000;stroke-width:0.89859;stroke-miterlimit:4;stroke-dasharray:none;stroke-opacity:1"
       id="rect55-7"
       width="46.763165"
       height="32.575813"
       x="-169.73169"
       y="-45.270493" />
    <path
       d="m -243.95879,6.1736989 c 1.02499,0.34249 2.45204,0.55345 4.03668,0.55345 1.58466,0 3.01544,-0.20476 4.04043,-0.55345 0.89967,-0.3003 1.45559,-0.66389 1.45559,-1.02003 0,-0.35614 -0.55592,-0.71849 -1.45559,-1.01879 -1.02499,-0.34249 -2.45204,-0.554687 -4.0367,-0.554687 -1.58465,0 -3.0117,0.212197 -4.04041,0.554687 -1.90481,0.63659 -1.95816,1.38361 0,2.03882 z m 7.69367,8.7484241 a 0.62045625,0.62045625 0 1 1 -0.61301,0.62045 0.61301078,0.61301078 0 0 1 0.61301,-0.62045 z m 0,-3.474557 a 0.61425168,0.61425168 0 1 1 -0.61301,0.62046 0.61301078,0.61301078 0 0 1 0.61301,-0.62046 z m 0,-3.6147671 a 0.61425168,0.61425168 0 1 1 -0.61301,0.61425 0.61301078,0.61301078 0 0 1 0.61301,-0.61053 z m 1.83655,5.5840971 a 4.8953995,4.8953995 0 0 1 -1.21113,0.5733 c -1.09945,0.372277 -2.61088,0.598117 -4.27868,0.598117 -1.66778,0 -3.17922,-0.22584 -4.28859,-0.594397 a 4.9475178,4.9475178 0 0 1 -1.20121,-0.56461 v 2.337877 c 0.0707,0.33256 0.61053,0.66637 1.44815,0.94557 1.02499,0.3425 2.45204,0.55469 4.03669,0.55469 1.58465,0 3.0117,-0.21219 4.03669,-0.55469 0.62046,-0.20723 1.07836,-0.44424 1.30173,-0.6887 0.18489,-0.20227 0.15635,-0.33505 0.15635,-0.57578 v -2.027647 z m -11.76387,-8.2595071 c 0,-0.73213 0.76069,-1.35011 1.98547,-1.760857 1.10937,-0.36855 2.62453,-0.59688 4.28859,-0.59688 1.66407,0 3.17923,0.22833 4.28364,0.59688 1.10442,0.368557 1.85145,0.919527 1.97554,1.563557 a 0.38592378,0.38592378 0 0 1 0.0223,0.13153 V 15.855283 c 0,0.74455 -1.42581,1.40596 -1.99414,1.59581 -1.10442,0.37228 -2.61958,0.59688 -4.28365,0.59688 -1.66406,0 -3.18294,-0.23329 -4.29232,-0.59688 -0.58198,-0.19358 -1.98546,-0.83265 -1.98546,-1.59581 v -0.24818 q 0.009,-5.226717 0,-10.4497141 z m 0.78923,7.1526171 c 0.0707,0.33257 0.61053,0.66513 1.44442,0.94557 1.02499,0.34249 2.45204,0.55469 4.03668,0.55469 1.58466,0 3.01544,-0.21468 4.04043,-0.55469 0.89967,-0.3003 1.45559,-0.66389 1.45559,-1.01879 v 0 -2.2733401 a 4.9375908,4.9375908 0 0 1 -1.21361,0.5733001 c -1.10441,0.37227 -2.61957,0.59688 -4.28364,0.59688 -1.66407,0 -3.17426,-0.22834 -4.28363,-0.59688 a 4.9475178,4.9475178 0 0 1 -1.19624,-0.5646201 z m 0,-3.4571771 c 0.0707,0.332557 0.61053,0.666367 1.44815,0.945567 1.02498,0.3424901 2.45203,0.5546901 4.03668,0.5546901 1.58466,0 3.01171,-0.2122 4.0367,-0.5546901 0.89967,-0.3003 1.45559,-0.66389 1.45559,-1.018787 v 0 -2.44087 a 4.9822637,4.9822637 0 0 1 -1.21361,0.5733 c -1.09945,0.36855 -2.61088,0.60309 -4.27868,0.60309 -1.66778,0 -3.17922,-0.23454 -4.28859,-0.60309 a 4.9475178,4.9475178 0 0 1 -1.20121,-0.56586 v 2.50665 z"
       id="path11-3-5"
       style="stroke-width:0.124091" />
    <rect
       style="fill:#000000;fill-opacity:0;fill-rule:evenodd;stroke:#000000;stroke-width:0.89859;stroke-miterlimit:4;stroke-dasharray:none;stroke-opacity:1"
       id="rect55-7-5"
       width="46.763165"
       height="32.575813"
       x="-276.47278"
       y="-5.7260346" />
    <path
       d="m -27.747004,6.1736649 c 1.02499,0.34249 2.45204,0.55345 4.03668,0.55345 1.58465,0 3.01543,-0.20476 4.04042,-0.55345 0.89967,-0.3003 1.45559,-0.66389 1.45559,-1.02003 0,-0.35614 -0.55592,-0.71849 -1.45559,-1.01879 -1.02499,-0.34249 -2.45204,-0.554687 -4.03669,-0.554687 -1.58465,0 -3.0117,0.212197 -4.04041,0.554687 -1.90481,0.63659 -1.95816,1.38361 0,2.03882 z m 7.69366,8.7484241 a 0.62045625,0.62045625 0 1 1 -0.61301,0.62045 0.61301078,0.61301078 0 0 1 0.61301,-0.62045 z m 0,-3.474557 a 0.61425168,0.61425168 0 1 1 -0.61301,0.62046 0.61301078,0.61301078 0 0 1 0.61301,-0.62046 z m 0,-3.6147671 a 0.61425168,0.61425168 0 1 1 -0.61301,0.61425 0.61301078,0.61301078 0 0 1 0.61301,-0.61053 z m 1.83655,5.5840971 a 4.8953995,4.8953995 0 0 1 -1.21113,0.5733 c -1.09945,0.372277 -2.61088,0.598117 -4.27867,0.598117 -1.66778,0 -3.17922,-0.22584 -4.28859,-0.594397 a 4.9475178,4.9475178 0 0 1 -1.20121,-0.56461 v 2.337877 c 0.0707,0.33256 0.61053,0.66637 1.44815,0.94557 1.02499,0.3425 2.45204,0.55469 4.03669,0.55469 1.58464,0 3.01169,-0.21219 4.03668,-0.55469 0.62046,-0.20723 1.07836,-0.44424 1.30173,-0.6887 0.18489,-0.20227 0.15635,-0.33505 0.15635,-0.57578 v -2.027647 z m -11.76386,-8.2595071 c 0,-0.73213 0.76069,-1.35011 1.98547,-1.760857 1.10937,-0.36855 2.62453,-0.59688 4.28859,-0.59688 1.66406,0 3.17922,0.22833 4.28363,0.59688 1.10442,0.368557 1.85145,0.919527 1.97554,1.563557 a 0.38592378,0.38592378 0 0 1 0.0223,0.13153 V 15.855249 c 0,0.74455 -1.42581,1.40596 -1.99414,1.59581 -1.10442,0.37228 -2.61958,0.59688 -4.28364,0.59688 -1.66406,0 -3.18294,-0.23329 -4.29232,-0.59688 -0.58198,-0.19358 -1.98546,-0.83265 -1.98546,-1.59581 v -0.24818 q 0.009,-5.226717 0,-10.4497141 z m 0.78923,7.1526171 c 0.0707,0.33257 0.61053,0.66513 1.44442,0.94557 1.02499,0.34249 2.45204,0.55469 4.03668,0.55469 1.58465,0 3.01543,-0.21468 4.04042,-0.55469 0.89967,-0.3003 1.45559,-0.66389 1.45559,-1.01879 v 0 -2.2733401 a 4.9375908,4.9375908 0 0 1 -1.21361,0.5733001 c -1.10441,0.37227 -2.61957,0.59688 -4.28363,0.59688 -1.66407,0 -3.17426,-0.22834 -4.28363,-0.59688 a 4.9475178,4.9475178 0 0 1 -1.19624,-0.5646201 z m 0,-3.4571771 c 0.0707,0.332557 0.61053,0.666367 1.44815,0.945567 1.02498,0.3424901 2.45203,0.5546901 4.03668,0.5546901 1.58465,0 3.0117,-0.2122 4.03669,-0.5546901 0.89967,-0.3003 1.45559,-0.66389 1.45559,-1.018787 v 0 -2.44087 a 4.9822637,4.9822637 0 0 1 -1.21361,0.5733 c -1.09945,0.36855 -2.61088,0.60309 -4.27867,0.60309 -1.66778,0 -3.17922,-0.23454 -4.28859,-0.60309 a 4.9475178,4.9475178 0 0 1 -1.20121,-0.56586 v 2.50665 z"
       id="path11-3-5-1"
       style="stroke-width:0.124091" />
    <rect
       style="fill:#000000;fill-opacity:0;fill-rule:evenodd;stroke:#000000;stroke-width:0.89859;stroke-miterlimit:4;stroke-dasharray:none;stroke-opacity:1"
       id="rect55-7-5-7"
       width="46.763165"
       height="32.575813"
       x="-60.261002"
       y="-5.7260728" />
    <path
       d="m -136.8365,137.17485 c 1.02499,0.34249 2.45204,0.55344 4.03668,0.55344 1.58465,0 3.01543,-0.20475 4.04042,-0.55344 0.89967,-0.3003 1.45559,-0.66389 1.45559,-1.02004 0,-0.35613 -0.55592,-0.71848 -1.45559,-1.01878 -1.02499,-0.3425 -2.45204,-0.5547 -4.03669,-0.5547 -1.58465,0 -3.0117,0.2122 -4.04041,0.5547 -1.90481,0.63658 -1.95816,1.38361 0,2.03882 z m 7.69366,8.74843 a 0.62045625,0.62045625 0 1 1 -0.61301,0.62046 0.61301078,0.61301078 0 0 1 0.61301,-0.62046 z m 0,-3.47456 a 0.61425168,0.61425168 0 1 1 -0.61301,0.62046 0.61301078,0.61301078 0 0 1 0.61301,-0.62046 z m 0,-3.61477 a 0.61425168,0.61425168 0 1 1 -0.61301,0.61425 0.61301078,0.61301078 0 0 1 0.61301,-0.61053 z m 1.83655,5.5841 a 4.8953995,4.8953995 0 0 1 -1.21113,0.5733 c -1.09945,0.37228 -2.61088,0.59812 -4.27867,0.59812 -1.66778,0 -3.17922,-0.22584 -4.28859,-0.5944 a 4.9475178,4.9475178 0 0 1 -1.20121,-0.56461 v 2.33788 c 0.0707,0.33256 0.61053,0.66637 1.44815,0.94557 1.02499,0.3425 2.45204,0.55469 4.03669,0.55469 1.58464,0 3.01169,-0.21219 4.03668,-0.55469 0.62046,-0.20723 1.07836,-0.44424 1.30173,-0.6887 0.18489,-0.20227 0.15635,-0.33505 0.15635,-0.57578 v -2.02765 z m -11.76386,-8.25951 c 0,-0.73214 0.76069,-1.35012 1.98547,-1.76086 1.10937,-0.36856 2.62453,-0.59688 4.28859,-0.59688 1.66406,0 3.17922,0.22832 4.28363,0.59688 1.10442,0.36855 1.85145,0.91952 1.97554,1.56355 a 0.38592378,0.38592378 0 0 1 0.0223,0.13154 v 10.76368 c 0,0.74454 -1.42581,1.40595 -1.99414,1.59581 -1.10442,0.37227 -2.61958,0.59688 -4.28364,0.59688 -1.66406,0 -3.18294,-0.23329 -4.29232,-0.59688 -0.58198,-0.19359 -1.98546,-0.83265 -1.98546,-1.59581 v -0.24819 q 0.009,-5.22672 0,-10.44972 z m 0.78923,7.15262 c 0.0707,0.33256 0.61053,0.66513 1.44442,0.94558 1.02499,0.34249 2.45204,0.55469 4.03668,0.55469 1.58465,0 3.01543,-0.21469 4.04042,-0.55469 0.89967,-0.30031 1.45559,-0.6639 1.45559,-1.0188 v 0 -2.27334 a 4.9375908,4.9375908 0 0 1 -1.21361,0.5733 c -1.10441,0.37227 -2.61957,0.59688 -4.28363,0.59688 -1.66407,0 -3.17426,-0.22834 -4.28363,-0.59688 a 4.9475178,4.9475178 0 0 1 -1.19624,-0.56462 z m 0,-3.45718 c 0.0707,0.33256 0.61053,0.66637 1.44815,0.94557 1.02498,0.34249 2.45203,0.55469 4.03668,0.55469 1.58465,0 3.0117,-0.2122 4.03669,-0.55469 0.89967,-0.3003 1.45559,-0.66389 1.45559,-1.01879 v 0 -2.44087 a 4.9822637,4.9822637 0 0 1 -1.21361,0.5733 c -1.09945,0.36855 -2.61088,0.60308 -4.27867,0.60308 -1.66778,0 -3.17922,-0.23453 -4.28859,-0.60308 a 4.9475178,4.9475178 0 0 1 -1.20121,-0.56586 v 2.50665 z"
       id="path11-3-0"
       style="stroke-width:0.124091" />
    <rect
       style="fill:#000000;fill-opacity:0;fill-rule:evenodd;stroke:#000000;stroke-width:0.89859;stroke-miterlimit:4;stroke-dasharray:none;stroke-opacity:1"
       id="rect55-7-3"
       width="46.763165"
       height="32.575813"
       x="-169.35052"
       y="125.27505" />
    <path
       d="m -27.99998,100.767 c 1.02499,0.34249 2.45204,0.55345 4.03668,0.55345 1.58465,0 3.01543,-0.20476 4.04042,-0.55345 0.89967,-0.3003 1.45559,-0.66389 1.45559,-1.020028 0,-0.35614 -0.55592,-0.71849 -1.45559,-1.01879 -1.02499,-0.34249 -2.45204,-0.55469 -4.03669,-0.55469 -1.58465,0 -3.0117,0.2122 -4.04041,0.55469 -1.90481,0.63659 -1.95816,1.383608 0,2.038818 z m 7.69366,8.74843 a 0.62045625,0.62045625 0 1 1 -0.61301,0.62045 0.61301078,0.61301078 0 0 1 0.61301,-0.62045 z m 0,-3.47456 a 0.61425168,0.61425168 0 1 1 -0.61301,0.62046 0.61301078,0.61301078 0 0 1 0.61301,-0.62046 z m 0,-3.61477 a 0.61425168,0.61425168 0 1 1 -0.61301,0.61425 0.61301078,0.61301078 0 0 1 0.61301,-0.61053 z m 1.83655,5.5841 a 4.8953995,4.8953995 0 0 1 -1.21113,0.5733 c -1.09945,0.37228 -2.61088,0.59812 -4.27867,0.59812 -1.66778,0 -3.17922,-0.22584 -4.28859,-0.5944 a 4.9475178,4.9475178 0 0 1 -1.20121,-0.56461 v 2.33788 c 0.0707,0.33256 0.61053,0.66637 1.44815,0.94557 1.02499,0.3425 2.45204,0.55469 4.03669,0.55469 1.58464,0 3.01169,-0.21219 4.03668,-0.55469 0.62046,-0.20723 1.07836,-0.44424 1.30173,-0.6887 0.18489,-0.20227 0.15635,-0.33505 0.15635,-0.57578 v -2.02765 z m -11.76386,-8.259508 c 0,-0.73213 0.76069,-1.35011 1.98547,-1.76086 1.10937,-0.36855 2.62453,-0.59688 4.28859,-0.59688 1.66406,0 3.17922,0.22833 4.28363,0.59688 1.10442,0.36856 1.85145,0.91953 1.97554,1.56356 a 0.38592378,0.38592378 0 0 1 0.0223,0.13153 v 10.763668 c 0,0.74455 -1.42581,1.40596 -1.99414,1.59581 -1.10442,0.37228 -2.61958,0.59688 -4.28364,0.59688 -1.66406,0 -3.18294,-0.23329 -4.29232,-0.59688 -0.58198,-0.19358 -1.98546,-0.83265 -1.98546,-1.59581 v -0.24818 q 0.009,-5.22672 0,-10.449718 z m 0.78923,7.152618 c 0.0707,0.33257 0.61053,0.66513 1.44442,0.94557 1.02499,0.34249 2.45204,0.55469 4.03668,0.55469 1.58465,0 3.01543,-0.21468 4.04042,-0.55469 0.89967,-0.3003 1.45559,-0.66389 1.45559,-1.01879 v 0 -2.27334 a 4.9375908,4.9375908 0 0 1 -1.21361,0.5733 c -1.10441,0.37227 -2.61957,0.59688 -4.28363,0.59688 -1.66407,0 -3.17426,-0.22834 -4.28363,-0.59688 a 4.9475178,4.9475178 0 0 1 -1.19624,-0.56462 z m 0,-3.45718 c 0.0707,0.33256 0.61053,0.66637 1.44815,0.94557 1.02498,0.34249 2.45203,0.55469 4.03668,0.55469 1.58465,0 3.0117,-0.2122 4.03669,-0.55469 0.89967,-0.3003 1.45559,-0.66389 1.45559,-1.01879 v 0 -2.44087 a 4.9822637,4.9822637 0 0 1 -1.21361,0.5733 c -1.09945,0.36855 -2.61088,0.60309 -4.27867,0.60309 -1.66778,0 -3.17922,-0.23454 -4.28859,-0.60309 a 4.9475178,4.9475178 0 0 1 -1.20121,-0.56586 v 2.50665 z"
       id="path11-3-5-6"
       style="stroke-width:0.124091" />
    <rect
       style="fill:#000000;fill-opacity:0;fill-rule:evenodd;stroke:#000000;stroke-width:0.89859;stroke-miterlimit:4;stroke-dasharray:none;stroke-opacity:1"
       id="rect55-7-5-6"
       width="46.763165"
       height="32.575813"
       x="-60.514"
       y="88.867233" />
    <path
       d="m -244.09574,100.07335 c 1.02499,0.34249 2.45204,0.55345 4.03668,0.55345 1.58465,0 3.01543,-0.20476 4.04042,-0.55345 0.89967,-0.300302 1.45559,-0.663892 1.45559,-1.020032 0,-0.35614 -0.55592,-0.71849 -1.45559,-1.01879 -1.02499,-0.34249 -2.45204,-0.55468 -4.03669,-0.55468 -1.58465,0 -3.0117,0.21219 -4.04041,0.55468 -1.90481,0.63659 -1.95816,1.38361 0,2.038822 z m 7.69366,8.74842 a 0.62045625,0.62045625 0 1 1 -0.61301,0.62045 0.61301078,0.61301078 0 0 1 0.61301,-0.62045 z m 0,-3.47456 a 0.61425168,0.61425168 0 1 1 -0.61301,0.62046 0.61301078,0.61301078 0 0 1 0.61301,-0.62046 z m 0,-3.61476 a 0.61425168,0.61425168 0 1 1 -0.61301,0.61425 0.61301078,0.61301078 0 0 1 0.61301,-0.61053 z m 1.83655,5.5841 a 4.8953995,4.8953995 0 0 1 -1.21113,0.5733 c -1.09945,0.37227 -2.61088,0.59811 -4.27867,0.59811 -1.66778,0 -3.17922,-0.22584 -4.28859,-0.59439 a 4.9475178,4.9475178 0 0 1 -1.20121,-0.56461 v 2.33787 c 0.0707,0.33256 0.61053,0.66637 1.44815,0.94557 1.02499,0.3425 2.45204,0.55469 4.03669,0.55469 1.58464,0 3.01169,-0.21219 4.03668,-0.55469 0.62046,-0.20723 1.07836,-0.44424 1.30173,-0.6887 0.18489,-0.20227 0.15635,-0.33505 0.15635,-0.57578 v -2.02764 z m -11.76386,-8.259512 c 0,-0.73213 0.76069,-1.35011 1.98547,-1.76085 1.10937,-0.36855 2.62453,-0.59688 4.28859,-0.59688 1.66406,0 3.17922,0.22833 4.28363,0.59688 1.10442,0.36855 1.85145,0.91952 1.97554,1.56355 a 0.38592378,0.38592378 0 0 1 0.0223,0.13153 v 10.763662 c 0,0.74455 -1.42581,1.40596 -1.99414,1.59581 -1.10442,0.37228 -2.61958,0.59688 -4.28364,0.59688 -1.66406,0 -3.18294,-0.23329 -4.29232,-0.59688 -0.58198,-0.19358 -1.98546,-0.83265 -1.98546,-1.59581 v -0.24818 q 0.009,-5.22672 0,-10.449712 z m 0.78923,7.152612 c 0.0707,0.33257 0.61053,0.66513 1.44442,0.94558 1.02499,0.34249 2.45204,0.55469 4.03668,0.55469 1.58465,0 3.01543,-0.21468 4.04042,-0.55469 0.89967,-0.30031 1.45559,-0.6639 1.45559,-1.0188 v 0 -2.27334 a 4.9375908,4.9375908 0 0 1 -1.21361,0.5733 c -1.10441,0.37227 -2.61957,0.59688 -4.28363,0.59688 -1.66407,0 -3.17426,-0.22834 -4.28363,-0.59688 a 4.9475178,4.9475178 0 0 1 -1.19624,-0.56462 z m 0,-3.45717 c 0.0707,0.33255 0.61053,0.66636 1.44815,0.94556 1.02498,0.34249 2.45203,0.55469 4.03668,0.55469 1.58465,0 3.0117,-0.2122 4.03669,-0.55469 0.89967,-0.3003 1.45559,-0.66389 1.45559,-1.01878 v 0 -2.44087 a 4.9822637,4.9822637 0 0 1 -1.21361,0.5733 c -1.09945,0.36855 -2.61088,0.60309 -4.27867,0.60309 -1.66778,0 -3.17922,-0.23454 -4.28859,-0.60309 a 4.9475178,4.9475178 0 0 1 -1.20121,-0.56586 v 2.50665 z"
       id="path11-3-5-1-2"
       style="stroke-width:0.124091" />
    <rect
       style="fill:#000000;fill-opacity:0;fill-rule:evenodd;stroke:#000000;stroke-width:0.89859;stroke-miterlimit:4;stroke-dasharray:none;stroke-opacity:1"
       id="rect55-7-5-7-1"
       width="46.763165"
       height="32.575813"
       x="-276.6098"
       y="88.173592" />
    <path
       d="m -262.51077,109.36058 h 2.54404 c 0.12132,0 0.21944,0.0969 0.21944,0.21682 v 3.76349 c 2.98471,0 5.96941,0 8.9559,0 v -12.52967 h -5.43598 v 12.52967 h -0.5138 V 95.411898 h -9.03619 v 17.927222 h -0.5138 v -12.5279 h -5.39494 v 12.52967 h 8.9559 v -3.76349 c 0,-0.11987 0.0981,-0.21682 0.21943,-0.21682 z m 0.74573,-12.854012 h 1.0508 c 0.19625,0 0.35681,0.15865 0.35681,0.35255 v 1.5477 h 1.56639 c 0.19624,0 0.3568,0.15865 0.3568,0.35255 v 1.03826 c 0,0.19391 -0.16056,0.352562 -0.3568,0.352562 h -1.56639 v 1.5477 c 0,0.1939 -0.16056,0.35255 -0.35681,0.35255 h -1.0508 c -0.19625,0 -0.35681,-0.15865 -0.35681,-0.35255 v -1.5477 h -1.56639 c -0.19625,0 -0.3568,-0.158652 -0.3568,-0.352562 v -1.03826 c 0,-0.1939 0.16055,-0.35255 0.3568,-0.35255 h 1.56639 v -1.5477 c 0,-0.1939 0.16056,-0.35255 0.35681,-0.35255 z m -10.17797,17.341992 c -0.14272,0 -0.2569,-0.11458 -0.2569,-0.25384 v -12.91923 c 0,-0.20624 0.16948,-0.37194 0.37821,-0.37194 h 5.53054 v -4.953342 c 0,-0.12164 0.0499,-0.23269 0.13202,-0.31378 0,-0.0617 0.25512,-0.13221 0.31935,-0.13221 h 9.16106 c 0.12488,0 0.23727,0.0494 0.31934,0.13045 0.0839,0.0934 0.13202,0.18685 0.13202,0.31554 v 4.951582 h 5.56979 c 0.20694,0 0.37821,0.16922 0.37821,0.3737 v 12.91923 c 0,0.14103 -0.11596,0.25384 -0.2569,0.25384 -7.13439,0 -14.27057,0 -21.40674,0 z m 9.65168,-0.50767 h 2.10517 v -3.54668 h -2.10517 z m 7.4234,-5.9211 h 2.83663 c 0.0232,0 0.0428,0.0141 0.0428,0.0299 v 0.8285 c 0,0.0158 -0.0196,0.0317 -0.0428,0.0317 h -2.83663 c -0.0232,0 -0.0428,-0.0141 -0.0428,-0.0317 v -0.8285 c 0,-0.0158 0.0196,-0.0299 0.0428,-0.0299 z m -15.59968,0 h 2.83663 c 0.0232,0 0.0428,0.0141 0.0428,0.0299 v 0.8285 c 0,0.0158 -0.0196,0.0317 -0.0428,0.0317 h -2.83663 c -0.0232,0 -0.0428,-0.0141 -0.0428,-0.0317 v -0.8285 c 0,-0.0158 0.0196,-0.0299 0.0428,-0.0299 z m 15.59968,-1.81035 h 2.83663 c 0.0232,0 0.0428,0.0141 0.0428,0.0316 v 0.82849 c 0,0.0177 -0.0196,0.0299 -0.0428,0.0299 h -2.83663 c -0.0232,0 -0.0428,-0.014 -0.0428,-0.0299 v -0.82849 c 0,-0.0194 0.0196,-0.0316 0.0428,-0.0316 z m 0,-1.81212 h 2.83663 c 0.0232,0 0.0428,0.0141 0.0428,0.0317 v 0.82849 c 0,0.0158 -0.0196,0.03 -0.0428,0.03 h -2.83663 c -0.0232,0 -0.0428,-0.0141 -0.0428,-0.03 v -0.82849 c 0,-0.0176 0.0196,-0.0317 0.0428,-0.0317 z m -15.59968,1.81212 h 2.83663 c 0.0232,0 0.0428,0.0141 0.0428,0.0316 v 0.82849 c 0,0.0177 -0.0196,0.0299 -0.0428,0.0299 h -2.83663 c -0.0232,0 -0.0428,-0.014 -0.0428,-0.0299 v -0.82849 c 0,-0.0194 0.0196,-0.0316 0.0428,-0.0316 z m 0,-1.81212 h 2.83663 c 0.0232,0 0.0428,0.0141 0.0428,0.0317 v 0.82849 c 0,0.0158 -0.0196,0.03 -0.0428,0.03 h -2.83663 c -0.0232,0 -0.0428,-0.0141 -0.0428,-0.03 v -0.82849 c 0,-0.0176 0.0196,-0.0317 0.0428,-0.0317 z m 11.05393,2.7922 h 1.51466 c 0.0232,0 0.0428,0.0194 0.0428,0.0423 v 1.49658 c 0,0.0228 -0.0196,0.0423 -0.0428,0.0423 h -1.51466 c -0.0232,0 -0.0428,-0.0194 -0.0428,-0.0423 v -1.49658 c 0,-0.0246 0.0196,-0.0423 0.0428,-0.0423 z m -2.60291,0 h 1.51465 c 0.0232,0 0.0428,0.0194 0.0428,0.0423 v 1.49658 c 0,0.0228 -0.0196,0.0423 -0.0428,0.0423 h -1.51465 c -0.0232,0 -0.0428,-0.0194 -0.0428,-0.0423 v -1.49658 c 0,-0.0246 0.0196,-0.0423 0.0428,-0.0423 z m -2.60292,0 h 1.51466 c 0.025,0 0.0428,0.0194 0.0428,0.0423 v 1.49658 c 0,0.0228 -0.0196,0.0423 -0.0428,0.0423 h -1.51466 c -0.0232,0 -0.0428,-0.0194 -0.0428,-0.0423 v -1.49658 c 0,-0.0246 0.0196,-0.0423 0.0428,-0.0423 z m 5.20583,-2.90501 h 1.51466 c 0.0232,0 0.0428,0.0194 0.0428,0.0423 v 1.49658 c 0,0.0229 -0.0196,0.0423 -0.0428,0.0423 h -1.51466 c -0.0232,0 -0.0428,-0.0194 -0.0428,-0.0423 v -1.49658 c 0,-0.0229 0.0196,-0.0423 0.0428,-0.0423 z m -2.60291,0 h 1.51465 c 0.0232,0 0.0428,0.0194 0.0428,0.0423 v 1.49658 c 0,0.0229 -0.0196,0.0423 -0.0428,0.0423 h -1.51465 c -0.0232,0 -0.0428,-0.0194 -0.0428,-0.0423 v -1.49658 c 0,-0.0229 0.0196,-0.0423 0.0428,-0.0423 z m -2.60292,0 h 1.51466 c 0.025,0 0.0428,0.0194 0.0428,0.0423 v 1.49658 c 0,0.0229 -0.0196,0.0423 -0.0428,0.0423 h -1.51466 c -0.0232,0 -0.0428,-0.0194 -0.0428,-0.0423 v -1.49658 c 0,-0.0229 0.0196,-0.0423 0.0428,-0.0423 z"
       id="path2003"
       style="stroke-width:0.177336" />
    <path
       class="st0"
       d="m -45.00675,91.972932 c 1.93556,-1.3371 2.08018,1.3104 3.98014,-0.34484 v 2.70089 c -1.81097,1.63078 -2.20253,-1.00338 -3.98014,0.33373 z m -0.86989,7.49754 h 0.33817 c 0.0623,0 0.11124,0.0512 0.11124,0.11124 v 1.299278 h 1.18581 c 0.0623,0 0.11124,0.0512 0.11124,0.11124 v 0.33817 c 0,0.0623 -0.0512,0.11124 -0.11124,0.11124 h -1.74869 v -1.862148 c 0,-0.0579 0.0512,-0.10902 0.11347,-0.10902 z m 0.38266,-1.52176 c 1.52398,0 2.75874,1.23477 2.75874,2.758748 0,1.52398 -1.23476,2.75874 -2.75874,2.75874 -1.52398,0 -2.75874,-1.23476 -2.75874,-2.75874 0,-1.521758 1.23476,-2.758748 2.75874,-2.758748 z m 0.37821,9.248458 v 8.95922 h 2.72537 v -8.95922 z m -0.75642,8.95922 v -8.95922 h -2.72537 v 0 8.95922 z m 11.76246,2.41167 v -15.79378 h -5.99804 v -3.824408 l -5.17263,-3.33273 v -3.69315 h -0.0178 c 0.10902,-0.0623 0.18021,-0.18243 0.18021,-0.31815 0,-0.20468 -0.16463,-0.36932 -0.36931,-0.36932 -0.20469,0 -0.36932,0.16464 -0.36932,0.36932 0,0.13572 0.0734,0.25363 0.18021,0.31815 h -0.0178 v 3.68647 l -5.18375,3.33941 v 3.824408 h -4.39174 -1.60853 v 15.80046 c 7.59099,0 15.17752,-0.007 22.7685,-0.007 z m -20.32345,-11.37089 h 3.00123 v 1.16801 h -3.00123 z m 14.87494,0 h 3.00124 v 1.16801 h -3.00124 z m -14.87494,2.57853 h 3.00123 v 1.16801 h -3.00123 z m 14.87494,0 h 3.00124 v 1.16801 h -3.00124 z m -14.87494,2.57853 h 3.00123 v 1.16801 h -3.00123 z m 14.87494,0 h 3.00124 v 1.16801 h -3.00124 z m -14.87494,2.57853 h 3.00123 v 1.16802 h -3.00123 z m 14.87494,0 h 3.00124 v 1.16802 h -3.00124 z"
       id="path2496"
       style="clip-rule:evenodd;fill-rule:evenodd;stroke-width:0.222479" />
    <g
       style="clip-rule:evenodd;fill-rule:evenodd;image-rendering:optimizeQuality;shape-rendering:geometricPrecision;text-rendering:geometricPrecision"
       id="g2517"
       transform="matrix(0.0448488,0,0,0.0448488,-164.82285,131.0985)">
      <path
         d="M 11.18,166.57 246.07,0 482.17,166.57 Z m 414.96,156.44 -5.39,-24.71 c 23.12,4.31 60.2,51.38 72.19,72.78 6.12,10.92 11.48,22.96 15.86,36.41 8.75,32.55 0.33,63 -34.99,70.09 -22.13,4.46 -63.4,4.77 -86.66,3.56 -25.03,-1.28 -63.74,-1.25 -73.86,-26.94 -16.31,-41.46 13.58,-90.85 40.85,-121.09 3.6,-3.98 7.32,-7.68 11.14,-11.11 9.92,-8.72 20.62,-19.08 33.39,-23.38 l -12.34,22.96 17.92,-23.75 h 9.42 z m -11.53,19.59 v 6.95 c 4.58,0.49 8.52,1.43 11.79,2.83 3.29,1.42 6.14,3.55 8.59,6.43 1.93,2.19 3.42,4.44 4.47,6.74 1.05,2.33 1.58,4.43 1.58,6.36 0,2.15 -0.79,4.02 -2.35,5.57 -1.57,1.56 -3.46,2.35 -5.69,2.35 -4.21,0 -6.95,-2.28 -8.18,-6.82 -1.43,-5.35 -4.83,-8.92 -10.21,-10.68 v 26.72 c 5.3,1.45 9.55,2.79 12.69,3.99 3.15,1.19 5.98,2.92 8.46,5.2 2.65,2.35 4.71,5.17 6.16,8.44 1.42,3.29 2.14,6.86 2.14,10.76 0,4.89 -1.13,9.45 -3.43,13.7 -2.31,4.28 -5.68,7.74 -10.13,10.46 -4.48,2.7 -9.76,4.3 -15.89,4.8 v 16 c 0,2.52 -0.25,4.37 -0.75,5.53 -0.49,1.16 -1.56,1.73 -3.25,1.73 -1.53,0 -2.6,-0.46 -3.24,-1.4 -0.62,-0.95 -0.92,-2.42 -0.92,-4.39 v -17.34 c -5,-0.54 -9.38,-1.73 -13.13,-3.53 -3.75,-1.79 -6.89,-4.03 -9.39,-6.71 -2.49,-2.69 -4.36,-5.48 -5.54,-8.35 -1.21,-2.89 -1.8,-5.74 -1.8,-8.53 0,-2.03 0.79,-3.9 2.41,-5.54 1.6,-1.64 3.6,-2.48 5.99,-2.48 1.93,0 3.55,0.44 4.88,1.34 1.32,0.9 2.24,2.17 2.77,3.79 1.14,3.51 2.15,6.21 3,8.07 0.88,1.86 2.17,3.57 3.9,5.11 1.73,1.53 4.04,2.71 6.91,3.53 v -29.86 c -5.75,-1.6 -10.53,-3.35 -14.38,-5.3 -3.86,-1.96 -7,-4.72 -9.38,-8.31 -2.39,-3.6 -3.6,-8.22 -3.6,-13.88 0,-7.36 2.35,-13.41 7.04,-18.11 4.69,-4.71 11.46,-7.45 20.32,-8.22 v -6.81 c 0,-3.6 1.36,-5.4 4.05,-5.4 2.75,0 4.11,1.76 4.11,5.26 z m -8.16,44.07 v -24.6 c -3.6,1.08 -6.4,2.48 -8.42,4.23 -2.02,1.75 -3.03,4.43 -3.03,7.98 0,3.37 0.95,5.94 2.83,7.67 1.89,1.74 4.76,3.31 8.62,4.72 z m 8.16,19.07 v 28.14 c 4.31,-0.85 7.65,-2.58 10.01,-5.19 2.35,-2.63 3.53,-5.66 3.53,-9.14 0,-3.73 -1.14,-6.6 -3.44,-8.64 -2.28,-2.04 -5.66,-3.77 -10.1,-5.17 z M 391.15,262.99 c -4.08,-12.02 -7.76,-24.2 -10.85,-36.56 11.55,-12.68 56.24,-10.99 69.08,-0.19 l -11.89,28.28 c 6.4,-8.4 8.55,-11.85 12.37,-16.54 1.59,1.05 3.11,2.23 4.53,3.52 3.38,3.07 6.4,6.45 7.02,11.16 0.39,3.06 -0.49,6.18 -3.2,9.35 L 430.9,293.8 c -3.5,-0.58 -6.94,-1.41 -10.27,-2.6 1.55,-3.64 3.42,-7.65 4.96,-11.29 l -9.94,10.73 c -10.34,-2.19 -18.67,-0.89 -26.43,3.22 l -27.68,-33.23 c -1.64,-1.97 -2.38,-3.96 -2.38,-5.93 0.03,-8.04 11.99,-14.96 18.27,-17.59 z M 0,409.64 h 27.32 v -25.35 h 14.33 v -12.1 H 57.07 V 227.09 H 25.55 v -34.77 h 367.39 c -12.5,2.38 -23.86,7.12 -31.36,14.51 a 27.239,27.239 0 0 0 -7.33,12.15 c -3.14,2.06 -6.26,4.46 -9.03,7.12 l -1,0.99 h -15.8 v 94.31 c -15.65,18.55 -31.3,42.46 -39.91,67.98 -5.15,15.26 -7.82,31.07 -6.71,46.81 H 0 Z M 433.74,192.32 h 32.81 v 13.07 c -7.58,-6.27 -19.7,-10.74 -32.81,-13.07 z M 130.53,384.29 h 17.78 v -12.1 h 15.42 v -145.1 h -48.62 v 145.1 h 15.42 z m 106.65,0 H 255 v -12.1 h 15.38 v -145.1 h -48.62 v 145.1 h 15.42 z m -70.21,-259.73 79.46,-60.96 79.9,60.96 z"
         id="path2508" />
    </g>
    <path
       class="st0"
       d="m -50.960834,1.2690099 h 8.06764 c 0.95155,0 1.73081,0.77926 1.73081,1.72923 V 18.96122 c 0,0.95155 -0.77926,1.729227 -1.72923,1.729227 h -8.06764 c -0.95155,0.002 -1.73081,-0.777677 -1.73081,-1.727647 V 2.9998199 c 0,-0.95155 0.77926,-1.73081 1.72923,-1.73081 z m 4.03382,15.8223001 c 0.61803,0 1.12068,0.50107 1.12068,1.12068 0,0.61803 -0.50265,1.12068 -1.12068,1.12068 -0.61962,0 -1.12068,-0.50106 -1.12068,-1.12068 0,-0.61803 0.50265,-1.12068 1.12068,-1.12068 z m -1.78456,-14.4218401 h 3.57069 c 0.0253,0 0.0474,0.0221 0.0474,0.0474 v 0.52162 c 0,0.0253 -0.0221,0.0474 -0.0474,0.0474 h -3.57069 c 0,0 0,0 0,0 -0.0253,0 -0.0474,-0.0206 -0.0474,-0.0474 v 0 -0.52162 c 0,0 0,0 0,0 0,-0.0269 0.0206,-0.0474 0.0474,-0.0474 z m -2.45316,2.00268 h 8.47702 c 0.15491,0 0.28136,0.12803 0.28136,0.28135 V 16.01963 c 0,0.15333 -0.12804,0.28136 -0.28136,0.28136 h -8.47702 c -0.15333,0 -0.28136,-0.12646 -0.28136,-0.28136 V 4.9519199 c 0,-0.15332 0.12645,-0.27977 0.28136,-0.27977 z"
       id="path2521"
       style="clip-rule:evenodd;fill-rule:evenodd;stroke-width:0.158065" />
    <path
       class="st0"
       d="m -268.7183,4.5257559 h 15.30897 c 1.0009,0 0.94676,0.40529 0.85979,1.43901 l -0.56937,7.2574001 c -0.0968,1.15679 -0.0148,0.87621 -1.24047,1.05178 l -11.25938,1.43244 0.59561,1.7278 c 4.88476,0 7.24592,0 12.1274,0 0.16408,0.61367 0.38723,1.61294 0.55132,2.29717 h -2.01495 l -0.19361,-0.699 c -4.06927,0 -5.61985,0 -9.69076,0 -2.22333,-0.0377 -2.00018,0.56445 -2.53344,-1.35697 l -3.81986,-13.8863601 h -1.83445 v -1.33072 h 3.21767 c 0.14932,0.55953 0.35606,1.50136 0.49553,2.06745 z m 5.09643,14.9840801 c 0.85815,0 1.55551,0.69736 1.55551,1.555511 0,0.8598 -0.69572,1.55551 -1.55551,1.55551 -0.8598,0 -1.55551,-0.69571 -1.55551,-1.55551 0,-0.858151 0.69571,-1.555511 1.55551,-1.555511 z m 6.41565,0 c 0.85815,0 1.55551,0.69736 1.55551,1.555511 0,0.8598 -0.69736,1.55551 -1.55551,1.55551 -0.85979,0 -1.55551,-0.69571 -1.55551,-1.55551 0,-0.858151 0.69572,-1.555511 1.55551,-1.555511 z m -10.17152,-9.9844601 h 2.47766 l -0.89918,-3.75915 c -0.88605,0 -1.75897,-0.002 -2.61385,-0.002 l 0.30192,1.12562 0.01,-0.002 z m 2.8731,-3.75751 0.89917,3.75751 h 2.38578 l -0.90246,-3.75423 z m 3.68039,0.005 0.90245,3.75259 h 2.2824 l -0.89917,-3.7493 z m 3.58357,0.005 0.89918,3.7493 h 2.28404 l 0.25269,-3.01258 c 0.0705,-0.8401 0.21823,-0.73344 -0.59562,-0.73344 -0.92871,-0.002 -1.87876,-0.003 -2.84029,-0.003 z m 3.10282,4.7026201 h -1.97556 l 0.6514,2.71722 0.16081,-0.0213 c 0.99598,-0.14276 0.93035,0.0853 1.00911,-0.85488 z m -2.57939,2.88951 -0.69243,-2.88951 h -2.28076 l 0.76627,3.18978 z m -3.4638,0.47092 -0.80893,-3.36207 h -2.38741 l 0.88113,3.67711 z m -3.57045,0.48732 -0.92051,-3.84775 h -2.44319 l 1.14202,4.15131 z"
       id="path2535"
       style="clip-rule:evenodd;fill-rule:evenodd;stroke-width:0.164083" />
    <path
       class="st0"
       d="m -161.82773,-40.657012 h 14.8151 c 0.34765,0 0.63023,0.2805 0.63023,0.62333 0,0.34284 -0.28444,0.62334 -0.63023,0.62334 h -14.8151 c -0.34765,0 -0.63023,-0.2805 -0.63023,-0.62334 -0.002,-0.34283 0.28258,-0.62333 0.63023,-0.62333 z m 18.22095,7.91452 v 0.75166 c 0.007,0.0715 0.0112,0.14301 0.0112,0.21451 0,1.26133 -1.19539,2.28434 -2.66965,2.28434 -1.47426,0 -2.66965,-1.02301 -2.66965,-2.28434 0,-0.0531 0.002,-0.10817 0.006,-0.16134 h -0.10597 c 0.004,0.0532 0.006,0.10634 0.006,0.16134 0,1.26133 -1.19539,2.28434 -2.66965,2.28434 -1.47427,0 -2.66966,-1.02301 -2.66966,-2.28434 0,-0.0531 0.002,-0.10817 0.006,-0.16134 h -0.10597 c 0.004,0.0532 0.006,0.10634 0.006,0.16134 0,1.26133 -1.19539,2.28434 -2.66965,2.28434 -1.47426,0 -2.66965,-1.02301 -2.66965,-2.28434 0,-0.0531 0.002,-0.10817 0.006,-0.16134 h -0.0669 c 0.004,0.0532 0.006,0.10634 0.006,0.16134 0,1.26133 -1.1954,2.28434 -2.66966,2.28434 -1.47425,0 -2.66965,-1.02301 -2.66965,-2.28434 0,-0.0624 0.004,-0.12283 0.009,-0.18334 v -0.78283 z m -18.91438,-6.00052 h 16.29307 l 2.0766,4.37251 h -20.5225 z m -2.50048,17.88788 h 2.25321 v -7.02169 c 0.0372,0.002 0.0744,0.003 0.11155,0.003 h 0.009 0.0427 0.007 0.006 0.0297 0.006 0.026 v 0.006 h 0.002 v -0.006 c 1.01879,0 1.96135,-0.32083 2.69569,-0.8525 l 0.006,0.003 0.006,0.003 0.006,0.003 0.006,0.003 0.006,0.003 0.006,0.003 0.002,0.002 0.004,0.002 0.006,0.003 0.006,0.003 0.006,0.003 h 0.002 l 0.0186,0.0128 v 0 l 0.006,0.003 0.002,0.002 0.009,0.006 0.006,0.003 0.006,0.003 0.002,0.002 0.004,0.002 0.006,0.003 0.006,0.003 0.006,0.003 0.004,0.011 0.006,0.003 0.004,0.003 v 0 l 0.006,0.003 0.006,0.003 0.006,0.003 0.006,0.003 0.006,0.003 0.006,0.003 h 0.002 l 0.0427,0.0275 0.006,0.003 0.006,0.003 0.0334,0.022 0.006,0.003 0.0409,0.0238 0.007,0.002 0.006,0.003 0.006,0.003 0.006,0.003 0.006,0.003 0.006,0.003 0.006,0.003 0.006,0.003 v 4.60168 h 9.92376 v -4.49718 c 0.15988,-0.0825 0.31604,-0.176 0.46291,-0.27683 l 0.004,-0.003 h 0.002 l 0.0297,-0.0202 0.002,-0.002 0.009,-0.006 0.009,-0.006 v 0 l 0.0149,-0.011 h 0.002 l 0.002,-0.002 0.0316,-0.022 c 0.73807,0.54084 1.68806,0.86717 2.71614,0.86717 v 0.006 h 0.002 v -0.006 h 0.006 v 7.01619 h 2.25322 c 0.34765,0 0.63209,0.61233 0.63209,1.36217 0,0.749832 -0.28444,1.362172 -0.63209,1.362172 h -21.01313 c -0.34579,-9e-5 -0.63023,-0.61243 -0.63023,-1.362262 0,-0.75167 0.28444,-1.36584 0.63023,-1.36584 z"
       id="path2549"
       style="clip-rule:evenodd;fill-rule:evenodd;stroke-width:0.184617" />
    <path
       style="fill:#000000;fill-opacity:1;stroke:#000000;stroke-width:1.265;stroke-linecap:butt;stroke-linejoin:miter;stroke-miterlimit:4;stroke-dasharray:none;stroke-opacity:1;marker-end:url(#Arrow2Lend)"
       d="m -220.45732,85.442117 42.57241,-18.626058"
       id="path3658" />
    <path
       style="fill:#000000;fill-opacity:1;stroke:#000000;stroke-width:1.265;stroke-linecap:butt;stroke-linejoin:miter;stroke-miterlimit:4;stroke-dasharray:none;stroke-opacity:1;marker-end:url(#Arrow2Lend)"
       d="m -144.55129,118.1559 -0.60895,-38.243231"
       id="path3660" />
    <path
       style="fill:#000000;fill-opacity:1;stroke:#000000;stroke-width:1.265;stroke-linecap:butt;stroke-linejoin:miter;stroke-miterlimit:4;stroke-dasharray:none;stroke-opacity:1;marker-end:url(#Arrow2Lend)"
       d="M -69.681505,84.590833 -112.96477,68.166741"
       id="path3662" />
    <path
       style="fill:#000000;fill-opacity:1;stroke:#000000;stroke-width:1.265;stroke-linecap:butt;stroke-linejoin:miter;stroke-miterlimit:4;stroke-dasharray:none;stroke-opacity:1;marker-end:url(#Arrow2Lend)"
       d="m -72.669862,27.783517 -41.129578,9.036719"
       id="path3664" />
    <path
       style="fill:#000000;fill-opacity:1;stroke:#000000;stroke-width:1.265;stroke-linecap:butt;stroke-linejoin:miter;stroke-miterlimit:4;stroke-dasharray:none;stroke-opacity:1;marker-end:url(#Arrow2Lend)"
       d="m -146.09465,-7.8636536 0.20579,34.0701216"
       id="path3666" />
    <path
       style="fill:#000000;fill-opacity:1;stroke:#000000;stroke-width:1.265;stroke-linecap:butt;stroke-linejoin:miter;stroke-miterlimit:4;stroke-dasharray:none;stroke-opacity:1;marker-end:url(#Arrow2Lend)"
       d="m -221.67294,21.209056 46.02885,12.651591"
       id="path3668" />
    <path
       style="fill:#8b0000;fill-opacity:1;stroke:#ff0081;stroke-width:1.965;stroke-linecap:butt;stroke-linejoin:miter;stroke-miterlimit:4;stroke-dasharray:none;stroke-opacity:1;marker-end:url(#Arrow2Lend)"
       d="M -118.8516,53.805396 25.152568,54.288938"
       id="path4136" />
    <path
       d="m 90.091649,72.405389 c -0.114365,-0.286928 -0.1784,-0.602077 -0.1784,-0.93134 0,-0.329261 0.06404,-0.644412 0.1784,-0.93134 0.11893,-0.286928 0.288182,-0.550336 0.4986,-0.76671 l 0.01366,-0.01881 c 0.11893,-0.122294 0.256163,-0.239889 0.40254,-0.329261 0.07776,-0.05173 0.160095,-0.09877 0.251589,-0.141121 v -3.866472 h -3.892752 c -0.11893,0.846672 -0.512324,1.608678 -1.079542,2.196645 -0.70902,0.729079 -1.6925,1.180638 -2.776616,1.180638 h -2.346629 v 10.54578 h 6.884361 c 0.0366,-0.06114 0.07318,-0.122294 0.114366,-0.183444 0.08235,-0.122295 0.173825,-0.235188 0.274459,-0.33867 0.214993,-0.221075 0.475731,-0.404522 0.768487,-0.526818 0.279034,-0.117601 0.585515,-0.183446 0.905717,-0.183446 0.315628,0 0.626682,0.06585 0.905717,0.183446 0.292756,0.122295 0.548919,0.305743 0.768486,0.526818 0.214993,0.221076 0.393393,0.48919 0.512324,0.790228 0.114366,0.286929 0.1784,0.602079 0.1784,0.931341 0,0.324557 -0.06404,0.635003 -0.1784,0.93134 -0.118929,0.301038 -0.297331,0.569152 -0.512324,0.790228 -0.214993,0.221075 -0.47573,0.404522 -0.768486,0.526818 -0.279035,0.117601 -0.585515,0.183446 -0.905717,0.183446 -0.311055,0 -0.608386,-0.06116 -0.88742,-0.178742 l -0.01829,-0.0046 C 88.911423,82.669048 88.65526,82.4856 88.435692,82.264525 88.303036,82.128115 88.184104,81.968188 88.08347,81.803558 88.02858,81.709478 87.978267,81.606001 87.937085,81.507223 h -7.826673 c -0.292756,0 -0.553493,-0.122294 -0.745615,-0.319855 -0.196695,-0.202261 -0.315628,-0.470373 -0.315628,-0.771413 v 0 -11.618233 h -5.123245 v 9.567403 c 0.07776,0.04233 0.15553,0.08468 0.23329,0.13641 0.141802,0.08937 0.274459,0.202261 0.388818,0.319855 0.219567,0.225779 0.393392,0.489189 0.512324,0.790228 0.114365,0.286928 0.178399,0.602079 0.178399,0.93134 0,0.319855 -0.05947,0.625598 -0.173825,0.912526 l -0.0045,0.01881 c -0.118929,0.301039 -0.297331,0.564449 -0.512324,0.790228 -0.214993,0.221075 -0.47573,0.404522 -0.768487,0.526818 -0.279034,0.117601 -0.585514,0.183447 -0.905716,0.183447 -0.31563,0 -0.622108,-0.06585 -0.905717,-0.183447 -0.292756,-0.122294 -0.553494,-0.305743 -0.768487,-0.526818 -0.214993,-0.221075 -0.393392,-0.489189 -0.512324,-0.790228 -0.114365,-0.286928 -0.178399,-0.602079 -0.178399,-0.93134 0,-0.319855 0.05947,-0.625598 0.173825,-0.912526 l 0.0045,-0.01881 c 0.118929,-0.301039 0.297331,-0.564449 0.512324,-0.790228 0.114365,-0.117601 0.237864,-0.221075 0.375094,-0.310447 l 0.01829,-0.01404 c 0.07318,-0.04233 0.150949,-0.08468 0.228716,-0.127006 v 0 -9.572107 h -6.834044 v 4.957739 c 0,0.301041 -0.11893,0.569153 -0.311053,0.76671 -0.192122,0.197557 -0.45286,0.319855 -0.745616,0.319855 H 59.08229 c -0.0366,0.07525 -0.07777,0.145814 -0.123511,0.221075 -0.08235,0.127005 -0.178398,0.249298 -0.288181,0.362188 l -0.01829,0.01881 c -0.214995,0.221075 -0.47573,0.40452 -0.768487,0.526818 -0.279034,0.117601 -0.585514,0.183445 -0.905716,0.183445 -0.311055,0 -0.608386,-0.06114 -0.88742,-0.178741 l -0.01829,-0.0046 c -0.292756,-0.122294 -0.548919,-0.305742 -0.768487,-0.526818 -0.214993,-0.221294 -0.393392,-0.489406 -0.512326,-0.790445 -0.114348,-0.286928 -0.178397,-0.602079 -0.178397,-0.93134 0,-0.324559 0.06404,-0.639709 0.178397,-0.93134 0.11893,-0.30104 0.297333,-0.569152 0.512326,-0.790228 0.224143,-0.216373 0.489453,-0.399818 0.782209,-0.522116 v 0 c 0.279034,-0.117601 0.585515,-0.183445 0.905717,-0.183445 0.320204,0 0.626682,0.06585 0.905717,0.183445 0.279034,0.122295 0.535197,0.296337 0.745615,0.517412 l 0.01829,0.01404 c 0.118929,0.122294 0.233291,0.26341 0.320204,0.41393 0.04575,0.07997 0.09606,0.164623 0.137221,0.258704 h 3.760096 v -3.974593 c -0.745608,-0.169334 -1.413461,-0.55504 -1.930359,-1.086562 -0.690724,-0.710265 -1.116135,-1.679236 -1.116135,-2.74228 V 62.297056 H 48.60708 v 7.079127 c 0.05947,0.03764 0.11893,0.07525 0.178398,0.117583 0.11893,0.08468 0.224142,0.178743 0.329352,0.282225 0.214993,0.221077 0.393392,0.489189 0.512325,0.790228 0.114366,0.286928 0.178398,0.602079 0.178398,0.93134 0,0.324559 -0.06404,0.644413 -0.178398,0.93134 -0.118929,0.30104 -0.297332,0.564449 -0.512325,0.790228 -0.214994,0.221077 -0.475729,0.404522 -0.768487,0.52682 -0.279035,0.117601 -0.585513,0.183445 -0.905717,0.183445 -0.315628,0 -0.617533,-0.06585 -0.905717,-0.183445 -0.292756,-0.122294 -0.553493,-0.305743 -0.768487,-0.52682 -0.214993,-0.221067 -0.39339,-0.489179 -0.512324,-0.790219 -0.118929,-0.296335 -0.182972,-0.611486 -0.182972,-0.940747 0,-0.319854 0.05946,-0.625597 0.173823,-0.912525 l 0.0045,-0.01881 c 0.11893,-0.301041 0.297331,-0.564449 0.512326,-0.790228 0.132657,-0.13641 0.288182,-0.258712 0.448283,-0.362193 0.08691,-0.05645 0.192122,-0.108197 0.288183,-0.150526 v -8.043387 c 0,-0.301039 0.11893,-0.569152 0.311053,-0.766709 0.196697,-0.202262 0.457434,-0.324558 0.750191,-0.324558 v 0 H 59.832398 V 54.851038 H 49.55846 c -0.04116,0.07997 -0.08235,0.159931 -0.132657,0.239892 -0.08691,0.145814 -0.196696,0.282224 -0.311053,0.399818 -0.219568,0.22578 -0.475731,0.40452 -0.768487,0.526818 -0.279034,0.117601 -0.585514,0.183445 -0.905717,0.183445 -0.311054,0 -0.608385,-0.06114 -0.887419,-0.178741 l -0.01829,-0.0046 c -0.292758,-0.122294 -0.548919,-0.305743 -0.768487,-0.526818 -0.214995,-0.221159 -0.393393,-0.489271 -0.512326,-0.79031 -0.114365,-0.286928 -0.178399,-0.602079 -0.178399,-0.93134 0,-0.324559 0.06404,-0.63971 0.178399,-0.93134 0.11893,-0.301041 0.297331,-0.569153 0.512324,-0.790228 0.214993,-0.221077 0.475731,-0.404522 0.768487,-0.52682 0.283609,-0.122294 0.585515,-0.188149 0.910292,-0.188149 0.311054,0 0.608385,0.06116 0.88742,0.178743 l 0.01829,0.0046 c 0.292756,0.122294 0.548919,0.305744 0.768487,0.52682 0.114365,0.117601 0.214993,0.244593 0.30648,0.385706 l 0.01366,0.01881 c 0.04116,0.07525 0.08235,0.155219 0.123511,0.235187 v 0 h 10.269359 v -6.542814 c 0,-0.15993 0.0092,-0.319855 0.02745,-0.479781 h -5.818542 c -0.292758,0 -0.553494,-0.122295 -0.745616,-0.319855 -0.192121,-0.197557 -0.311054,-0.465669 -0.311054,-0.76671 v -4.985962 c -0.07318,-0.03764 -0.141803,-0.07997 -0.214994,-0.127005 -0.123511,-0.08468 -0.242439,-0.183445 -0.352222,-0.296335 l -0.01829,-0.01881 c -0.214995,-0.221077 -0.393393,-0.489189 -0.512326,-0.790228 -0.114365,-0.286928 -0.178398,-0.602079 -0.178398,-0.93134 0,-0.319855 0.05947,-0.625597 0.173824,-0.912526 l 0.0047,-0.01881 c 0.118929,-0.301038 0.297332,-0.564448 0.512325,-0.790228 0.214987,-0.221077 0.475722,-0.404522 0.76848,-0.52682 0.279033,-0.1176 0.585513,-0.183444 0.905717,-0.183444 0.315628,0 0.622108,0.06585 0.905717,0.183444 0.292756,0.122295 0.553492,0.305743 0.768487,0.52682 0.210418,0.230482 0.388816,0.5033 0.507749,0.804339 v 0 c 0.114365,0.286928 0.1784,0.602079 0.1784,0.93134 0,0.329261 -0.06404,0.644412 -0.1784,0.93134 -0.11893,0.286928 -0.288182,0.550338 -0.498602,0.76671 l -0.01366,0.01881 c -0.11893,0.122294 -0.256158,0.239891 -0.40711,0.329262 -0.07777,0.04704 -0.160094,0.09877 -0.251588,0.141104 v 3.866473 h 5.74078 v 0.02823 c 0.0366,-0.04233 0.07776,-0.08466 0.114366,-0.122294 0.70902,-0.72908 1.6925,-1.180638 2.776616,-1.180638 h 2.20025 V 29.568451 h -6.875212 c -0.0366,0.06116 -0.07318,0.122295 -0.114366,0.183445 -0.08235,0.122294 -0.173825,0.230484 -0.274459,0.338669 -0.214993,0.221078 -0.475731,0.404522 -0.768487,0.52682 -0.279034,0.117601 -0.585514,0.183445 -0.905717,0.183445 -0.315629,0 -0.626682,-0.06585 -0.905716,-0.183445 -0.292758,-0.122294 -0.54892,-0.305742 -0.768487,-0.52682 -0.214993,-0.221075 -0.393393,-0.489187 -0.512326,-0.790228 -0.114348,-0.29163 -0.178398,-0.602077 -0.178398,-0.936042 0,-0.324559 0.06404,-0.635006 0.178398,-0.93134 0.11893,-0.301041 0.297333,-0.569153 0.512326,-0.790228 0.214993,-0.221077 0.475729,-0.404522 0.768487,-0.52682 0.279034,-0.117601 0.585512,-0.183445 0.905716,-0.183445 0.311053,0 0.608386,0.06116 0.887419,0.178741 l 0.01829,0.0046 c 0.292758,0.122294 0.548919,0.305745 0.768487,0.52682 0.132657,0.13641 0.25159,0.296335 0.352225,0.460965 0.05489,0.08937 0.105202,0.197557 0.150948,0.296337 h 7.817526 c 0.292756,0 0.553493,0.122294 0.745615,0.319853 0.196696,0.202261 0.315628,0.470375 0.315628,0.771413 v 0 13.725509 h 5.123247 V 30.546747 c -0.07776,-0.04233 -0.15553,-0.08468 -0.233292,-0.13641 -0.141803,-0.08937 -0.274459,-0.202261 -0.388818,-0.319853 -0.219568,-0.22578 -0.393391,-0.48919 -0.512324,-0.790228 -0.114365,-0.286929 -0.178399,-0.602079 -0.178399,-0.931341 0,-0.319854 0.05947,-0.625597 0.173824,-0.912525 l 0.0045,-0.01881 c 0.118929,-0.301041 0.297331,-0.564449 0.512324,-0.790228 0.214993,-0.221078 0.47573,-0.404523 0.768486,-0.52682 0.279035,-0.117601 0.585515,-0.183445 0.905717,-0.183445 0.31563,0 0.62211,0.06585 0.905717,0.183445 0.292758,0.122294 0.553494,0.305742 0.768487,0.52682 0.214993,0.221075 0.393392,0.489187 0.512325,0.790228 0.114366,0.286926 0.178398,0.602077 0.178398,0.93134 0,0.319853 -0.05947,0.625595 -0.173823,0.912524 l -0.0045,0.01881 c -0.11893,0.30104 -0.297333,0.564448 -0.512326,0.790228 -0.114365,0.117601 -0.237864,0.221075 -0.375094,0.315151 l -0.01829,0.01404 c -0.07318,0.04233 -0.150948,0.08468 -0.228716,0.127006 v 0 11.665271 h 6.829469 v -7.055607 c 0,-0.301041 0.118929,-0.569153 0.311055,-0.76671 0.192121,-0.197557 0.452857,-0.319855 0.745615,-0.319855 h 4.85336 c 0.0366,-0.07525 0.07776,-0.145814 0.123512,-0.221075 0.08235,-0.127006 0.178399,-0.249298 0.288183,-0.362188 l 0.01829,-0.01881 c 0.214994,-0.221075 0.475731,-0.404522 0.768487,-0.526818 0.279035,-0.117601 0.585515,-0.183447 0.905717,-0.183447 0.311055,0 0.608386,0.06116 0.88742,0.178743 l 0.01829,0.0046 c 0.292756,0.122295 0.548919,0.305743 0.768486,0.526818 0.214993,0.221076 0.393393,0.48919 0.512326,0.790228 0.114365,0.286929 0.178398,0.602079 0.178398,0.931341 0,0.324557 -0.06404,0.639707 -0.178398,0.93134 -0.11893,0.301038 -0.297333,0.569152 -0.512326,0.790228 -0.228715,0.216371 -0.489452,0.399818 -0.782209,0.522114 v 0 c -0.279034,0.117583 -0.585514,0.183434 -0.905716,0.183434 -0.320204,0 -0.626683,-0.06585 -0.905717,-0.183447 -0.279063,-0.122267 -0.535226,-0.296307 -0.745644,-0.51268 l -0.01829,-0.01405 c -0.11893,-0.122294 -0.233292,-0.263408 -0.320204,-0.413928 -0.05031,-0.07997 -0.09606,-0.164624 -0.137238,-0.258706 h -3.760097 v 6.0396 c 0.809657,0.145814 1.532399,0.550338 2.085893,1.11949 0.690724,0.710265 1.116135,1.679236 1.116135,2.74228 v 0.484485 h 10.337979 v -7.079122 c -0.05946,-0.03763 -0.118929,-0.07525 -0.178396,-0.117601 -0.118929,-0.08468 -0.22414,-0.178742 -0.324777,-0.282224 -0.214993,-0.221075 -0.393391,-0.489189 -0.512324,-0.790228 -0.114365,-0.286928 -0.178399,-0.602079 -0.178399,-0.93134 0,-0.324559 0.06404,-0.644412 0.178399,-0.93134 0.11893,-0.301041 0.297331,-0.564449 0.512324,-0.790228 0.214993,-0.221076 0.475731,-0.404522 0.768487,-0.52682 0.279034,-0.117601 0.585515,-0.183445 0.905717,-0.183445 0.315629,0 0.622109,0.06585 0.905717,0.183445 0.292763,0.122294 0.553493,0.305744 0.768483,0.52682 0.215,0.221075 0.3934,0.489187 0.51233,0.790228 0.11435,0.286928 0.1784,0.602077 0.1784,0.93134 0,0.319853 -0.0595,0.625597 -0.17383,0.912524 l -0.004,0.01881 c -0.11893,0.301039 -0.29733,0.564449 -0.51232,0.790228 -0.13266,0.13641 -0.28819,0.258706 -0.44829,0.362188 -0.0915,0.05644 -0.192118,0.108178 -0.28818,0.155219 v 8.038688 c 0,0.301038 -0.11893,0.569152 -0.311055,0.766711 -0.196694,0.202259 -0.457432,0.324557 -0.750188,0.324557 v 0 H 87.406609 v 5.268186 h 9.386519 c 0.04116,-0.07997 0.08235,-0.15993 0.132656,-0.239889 0.09149,-0.145815 0.196695,-0.282225 0.311054,-0.399818 0.219567,-0.22578 0.47573,-0.404522 0.768486,-0.526818 0.279035,-0.117601 0.585515,-0.183447 0.905717,-0.183447 0.311055,0 0.608386,0.06116 0.88742,0.178743 l 0.01829,0.0046 c 0.292759,0.122294 0.548919,0.305742 0.768489,0.526818 0.21499,0.221075 0.39339,0.489189 0.51232,0.790228 0.11435,0.286928 0.1784,0.602079 0.1784,0.93134 0,0.324557 -0.064,0.639706 -0.1784,0.93134 -0.11893,0.301039 -0.29733,0.569153 -0.51232,0.790228 -0.215,0.221076 -0.47573,0.404522 -0.768489,0.526818 -0.279035,0.117601 -0.585513,0.183447 -0.905717,0.183447 -0.311053,0 -0.608386,-0.06116 -0.887418,-0.178743 l -0.01829,-0.0046 c -0.292756,-0.122294 -0.548919,-0.305743 -0.768487,-0.52682 -0.114365,-0.117601 -0.214993,-0.244592 -0.30648,-0.385706 l -0.01366,-0.01881 c -0.04116,-0.07525 -0.08235,-0.155219 -0.123511,-0.235185 v 0 h -9.386516 v 7.02268 h 4.903679 c 0.292756,0 0.553494,0.122295 0.745615,0.319855 0.192122,0.197557 0.311053,0.465669 0.311053,0.766708 v 4.990669 c 0.07318,0.03764 0.141803,0.07997 0.214994,0.131699 0.123511,0.08468 0.24244,0.183445 0.352224,0.296335 l 0.01829,0.01881 c 0.214993,0.221075 0.393392,0.489187 0.512324,0.79023 0.114365,0.286928 0.178399,0.602077 0.178399,0.93134 0,0.319851 -0.05947,0.625597 -0.173825,0.912524 l -0.0045,0.01881 c -0.118929,0.301039 -0.297331,0.564447 -0.512324,0.790228 -0.214993,0.221075 -0.47573,0.40452 -0.768487,0.526818 -0.279034,0.117601 -0.585514,0.183447 -0.905716,0.183447 -0.31563,0 -0.622108,-0.06585 -0.905717,-0.183447 C 91.079925,73.614064 90.819187,73.430615 90.604194,73.20954 90.393776,72.979056 90.210801,72.70624 90.09187,72.4052 Z M 69.539198,50.457748 h 8.160599 c 0.635832,0 1.152731,0.531522 1.152731,1.185342 v 7.728241 c 0,0.65382 -0.516899,1.185342 -1.152731,1.185342 h -8.160599 c -0.63583,0 -1.15273,-0.531522 -1.15273,-1.185342 V 51.64309 c 0,-0.65382 0.5169,-1.185342 1.15273,-1.185342 z M 83.513766,44.314666 H 63.720655 c -0.452858,0 -0.869122,0.192853 -1.171027,0.508004 -0.324777,0.333965 -0.526048,0.799634 -0.526048,1.317046 v 18.734989 c 0,0.517412 0.201271,0.983081 0.526048,1.317046 0.30648,0.315151 0.718169,0.508004 1.171027,0.508004 h 19.793111 c 0.452859,0 0.869123,-0.192853 1.171029,-0.508004 0.324777,-0.333965 0.526046,-0.799634 0.526046,-1.317046 V 46.139716 c 0,-0.517412 -0.201269,-0.983081 -0.526046,-1.317046 -0.301906,-0.315151 -0.71817,-0.508004 -1.171029,-0.508004 z"
       id="path7374"
       style="stroke-width:0.463858" />
  </g>
</svg>
