<?xml version="1.0" encoding="UTF-8"?>
<!-- Generator: Adobe Illustrator 14.0.0, SVG Export Plug-In . SVG Version: 6.00 Build 43363)  -->
<!DOCTYPE svg PUBLIC "-//W3C//DTD SVG 1.1//EN" "http://www.w3.org/Graphics/SVG/1.1/DTD/svg11.dtd">
<svg version="1.1" id="Layer_1" xmlns="http://www.w3.org/2000/svg" xmlns:xlink="http://www.w3.org/1999/xlink" x="0px" y="0px" width="474.59px" height="298.361px" viewBox="0 0 474.59 298.361" enable-background="new 0 0 474.59 298.361" xml:space="preserve">
<polyline fill="none" stroke="#333333" stroke-width="10" points="25.41,40.983 25.41,258.197 414.754,258.197 "/>
<line fill="none" stroke="#333333" stroke-width="10" x1="25.41" y1="174.59" x2="69.672" y2="174.59"/>
<line fill="none" stroke="#333333" stroke-width="10" x1="195.082" y1="212.295" x2="195.082" y2="258.197"/>
<polyline fill="none" stroke="#333333" stroke-width="10" points="62.295,40.983 452.459,40.983 452.459,258.197 "/>
<line fill="none" stroke="#333333" stroke-width="10" x1="281.147" y1="40.983" x2="281.147" y2="86.885"/>
<polyline fill="none" stroke="#333333" stroke-width="10" points="112.295,86.885 69.672,86.885 69.672,130.328 195.082,130.328   195.082,171.311 153.279,171.311 153.279,212.295 69.672,212.295 "/>
<line fill="none" stroke="#333333" stroke-width="10" x1="109.017" y1="130.328" x2="109.017" y2="174.59"/>
<line fill="none" stroke="#333333" stroke-width="10" x1="154.099" y1="40.983" x2="154.099" y2="130.328"/>
<polyline fill="none" stroke="#333333" stroke-width="10" points="409.836,174.59 409.836,130.328 452.459,130.328 "/>
<line fill="none" stroke="#333333" stroke-width="10" x1="366.394" y1="217.213" x2="452.459" y2="217.213"/>
<polyline fill="none" stroke="#333333" stroke-width="10" points="195.082,86.885 239.344,86.885 239.344,130.328 281.147,130.328   281.147,174.59 366.394,174.59 366.394,86.885 324.59,86.885 323.771,130.328 "/>
<line fill="none" stroke="#333333" stroke-width="10" x1="414.754" y1="86.885" x2="366.394" y2="86.885"/>
<polyline fill="none" stroke="#333333" stroke-width="10" points="239.344,174.59 239.344,212.295 324.59,212.295 324.59,174.59 "/>
<line fill="none" stroke="#333333" stroke-width="10" x1="281.967" y1="212.295" x2="281.967" y2="258.197"/>
<linearGradient id="SVGID_1_" gradientUnits="userSpaceOnUse" x1="46.54" y1="55.9707" x2="46.54" y2="9.2495">
	<stop offset="0.5031" style="stop-color:#FF0000"/>
	<stop offset="0.6056" style="stop-color:#F20004;stop-opacity:0.7937"/>
	<stop offset="0.7972" style="stop-color:#CE000F;stop-opacity:0.4081"/>
	<stop offset="1" style="stop-color:#A2001C;stop-opacity:0"/>
</linearGradient>
<path fill="url(#SVGID_1_)" d="M51.54,35.79V13.348h-10V35.79l-6.887-2.491c4.758,5.459,9.253,14.268,11.887,21.367  c2.633-7.1,7.129-15.908,11.887-21.367L51.54,35.79z"/>
<linearGradient id="SVGID_2_" gradientUnits="userSpaceOnUse" x1="431.1475" y1="285.6685" x2="431.1475" y2="238.9462">
	<stop offset="0.5031" style="stop-color:#0AB000"/>
	<stop offset="0.6758" style="stop-color:#17B508;stop-opacity:0.6523"/>
	<stop offset="0.9979" style="stop-color:#3BC41C;stop-opacity:0.0043"/>
	<stop offset="1" style="stop-color:#3BC41C;stop-opacity:0"/>
</linearGradient>
<path fill="url(#SVGID_2_)" d="M436.147,265.486v-22.441h-10v22.441l-6.888-2.49c4.759,5.459,9.254,14.268,11.888,21.367  c2.633-7.1,7.129-15.908,11.888-21.367L436.147,265.486z"/>
</svg>